<?xml version="1.0" encoding="UTF-8"?>
<svg width="1010px" height="790px" viewBox="0 0 1010 790" version="1.1" xmlns="http://www.w3.org/2000/svg" xmlns:xlink="http://www.w3.org/1999/xlink">
    <title>backgrounds/1</title>
    <g id="backgrounds/1" stroke="none" stroke-width="1" fill="none" fill-rule="evenodd">
        <g id="undraw_empty_xct9" transform="translate(505.000000, 395.000000) scale(-1, 1) translate(-505.000000, -395.000000) " fill="#F15A24" fill-rule="nonzero">
            <ellipse id="Oval" opacity="0.1" cx="354.13" cy="741.27" rx="176.1" ry="33.36"></ellipse>
            <path d="M586.55,111.4 C521.83,109.16 460.19,88.26 401.33,65.4 C342.47,42.54 284.17,17.22 221,5.11 C180.37,-2.68 133.9,-3.79 101.17,17.97 C69.66,38.97 59.48,75.12 54.01,108.69 C49.89,133.95 47.47,160.54 58.75,184.19 C66.59,200.61 80.49,214.41 90.11,230.14 C123.58,284.86 99.92,352.34 63.66,405.77 C46.66,430.83 26.91,454.77 13.78,481.42 C0.65,508.07 -5.42,538.71 6.07,565.97 C17.45,592.97 44.58,613.21 73.97,627.46 C133.66,656.41 203.97,664.69 272.58,669.39 C424.41,679.77 577.04,675.28 729.27,670.77 C785.61,669.11 842.19,667.42 897.61,658.71 C928.39,653.87 960.16,646.19 982.51,627.65 C1010.87,604.12 1017.9,564.28 998.89,534.78 C967.01,485.28 878.89,472.99 856.58,419.88 C844.32,390.64 856.91,358.08 874.74,330.97 C912.98,272.8 977.07,221.77 980.44,155.29 C982.76,109.63 951.95,63.9 904.31,42.29 C854.38,19.64 785.13,22.49 748.31,59.98 C710.36,98.54 643.7,113.39 586.55,111.4 Z" id="Path" opacity="0.1"></path>
            <path d="M653.77,112.39 C653.77,112.39 615.77,110.1 620.21,136.76 C620.21,136.76 619.32,141.47 623.59,143.61 C623.59,143.61 623.66,141.61 627.49,142.3 C628.853936,142.529547 630.240266,142.596682 631.62,142.5 C633.489808,142.375294 635.267203,141.641153 636.68,140.41 L636.68,140.41 C636.68,140.41 647.37,136 651.53,118.52 C651.53,118.52 654.61,114.7 654.53,113.72 L648.11,116.47 C648.11,116.47 650.3,121.1 648.57,124.95 C648.57,124.95 648.37,116.64 647.13,116.83 C646.88,116.83 643.8,118.44 643.8,118.44 C643.8,118.44 647.57,126.5 644.72,132.37 C644.72,132.37 645.8,122.43 642.62,119.02 L638.1,121.66 C638.1,121.66 642.51,129.99 639.52,136.79 C639.52,136.79 640.29,126.36 637.15,122.3 L633.05,125.49 C633.05,125.49 637.2,133.71 634.67,139.35 C634.67,139.35 634.34,127.21 632.16,126.29 C632.16,126.29 628.58,129.45 628.04,130.75 C628.04,130.75 630.87,136.75 629.11,139.86 C629.11,139.86 628.03,131.77 627.11,131.73 C627.11,131.73 623.54,137.09 623.17,140.73 C623.342899,137.336511 624.401332,134.047439 626.24,131.19 C624.182474,131.579277 622.284202,132.56318 620.78,134.02 C620.78,134.02 621.33,130.23 627.12,129.9 C627.12,129.9 630.12,125.83 630.86,125.58 C630.86,125.58 625.1,125.1 621.61,126.65 C621.61,126.65 624.68,123.08 631.92,124.65 L635.92,121.35 C635.92,121.35 628.34,120.35 625.12,121.46 C625.12,121.46 628.82,118.3 637.01,120.6 L641.41,117.97 C641.41,117.97 634.95,116.57 631.1,117.08 C631.1,117.08 635.16,114.89 642.7,117.26 L645.85,115.85 C645.85,115.85 641.11,114.92 639.73,114.77 C638.35,114.62 638.27,114.24 638.27,114.24 C641.268688,113.740911 644.347127,114.087192 647.16,115.24 C647.16,115.24 653.91,112.81 653.77,112.39 Z" id="Path"></path>
            <path d="M769.23,245.73 C769.23,245.73 731.23,243.44 735.67,270.1 C735.67,270.1 734.78,274.81 739.05,276.95 C739.05,276.95 739.12,274.95 742.96,275.64 C744.323936,275.869547 745.710266,275.936682 747.09,275.84 C748.937843,275.706027 750.692344,274.976154 752.09,273.76 L752.09,273.76 C752.09,273.76 762.79,269.34 766.95,251.86 C766.95,251.86 770.02,248.05 769.9,247.07 L763.48,249.81 C763.48,249.81 765.67,254.44 763.95,258.29 C763.95,258.29 763.74,249.98 762.51,250.17 C762.26,250.17 759.17,251.78 759.17,251.78 C759.17,251.78 762.95,259.85 760.1,265.71 C760.1,265.71 761.18,255.77 757.99,252.36 L753.52,254.97 C753.52,254.97 757.93,263.3 754.94,270.1 C754.94,270.1 755.71,259.67 752.57,255.61 L748.48,258.81 C748.48,258.81 752.62,267.02 750.1,272.66 C750.1,272.66 749.77,260.52 747.59,259.6 C747.59,259.6 744.01,262.76 743.46,264.06 C743.46,264.06 746.3,270.06 744.54,273.17 C744.54,273.17 743.46,265.08 742.54,265.04 C742.54,265.04 738.97,270.4 738.6,274.04 C738.778662,270.646096 739.840341,267.357649 741.68,264.5 C739.619877,264.890226 737.718653,265.873858 736.21,267.33 C736.21,267.33 736.77,263.54 742.56,263.21 C742.56,263.21 745.51,259.14 746.3,258.89 C746.3,258.89 740.54,258.41 737.05,259.96 C737.05,259.96 740.12,256.39 747.35,258.01 L751.35,254.71 C751.35,254.71 743.76,253.71 740.55,254.82 C740.55,254.82 744.25,251.66 752.44,253.96 L756.84,251.33 C756.84,251.33 750.37,249.94 746.52,250.44 C746.52,250.44 750.59,248.25 758.13,250.62 L761.28,249.21 C761.28,249.21 756.54,248.28 755.15,248.13 C753.76,247.98 753.69,247.6 753.69,247.6 C756.691974,247.100612 759.773702,247.446873 762.59,248.6 C762.59,248.6 769.35,246.15 769.23,245.73 Z" id="Path" opacity="0.1"></path>
            <path d="M538.38,222.06 C538.38,222.06 547.13,184.97 520.09,184.84 C520.09,184.84 515.6,183.16 512.77,187 C512.77,187 514.7,187.41 513.39,191.07 C512.936931,192.364217 512.634928,193.706452 512.49,195.07 C512.296296,196.928813 512.714086,198.800089 513.68,200.4 L513.68,200.4 C513.68,200.4 516.21,211.7 532.68,218.78 C532.68,218.78 535.92,222.46 536.9,222.5 L535.3,215.71 C535.3,215.71 530.36,217.08 526.86,214.71 C526.86,214.71 535.09,215.92 535.1,214.71 C535.1,214.46 534.1,211.15 534.1,211.15 C534.1,211.15 525.51,213.49 520.21,209.68 C520.21,209.68 529.82,212.44 533.73,209.89 L531.93,204.97 C531.93,204.97 522.93,207.9 516.77,203.79 C516.77,203.79 526.92,206.33 531.46,203.93 L529.01,199.35 C529.01,199.35 520.21,202.03 515.08,198.58 C515.08,198.58 527.08,200.32 528.38,198.34 C528.38,198.34 525.88,194.27 524.69,193.51 C524.69,193.51 518.33,195.29 515.53,193.02 C515.53,193.02 523.68,193.33 523.87,192.47 C523.87,192.47 519.2,188.04 515.64,187.04 C518.95758,187.795367 522.021378,189.401362 524.53,191.7 C524.493329,189.604203 523.847006,187.564464 522.67,185.83 C522.67,185.83 526.31,187.03 525.67,192.83 C525.67,192.83 529.17,196.43 529.28,197.25 C529.28,197.25 530.73,191.66 529.8,187.95 C529.8,187.95 532.8,191.59 529.97,198.44 L532.53,202.99 C532.53,202.99 534.85,195.69 534.26,192.33 C534.26,192.33 536.75,196.51 533.08,204.19 L534.93,208.98 C534.93,208.98 537.4,202.84 537.56,198.98 C537.56,198.98 539.03,203.36 535.4,210.39 L536.26,213.73 C536.26,213.73 537.98,209.22 538.36,207.88 C538.74,206.54 539.13,206.53 539.13,206.53 C539.11476,209.572279 538.252549,212.550198 536.64,215.13 C536.64,215.13 537.95,222.11 538.38,222.06 Z" id="Path" opacity="0.1"></path>
            <path d="M455.16,234.7 C455.16,234.7 424.64,211.87 413.73,236.6 C413.73,236.6 410.4,240.05 412.79,244.18 C412.79,244.18 413.93,242.57 416.79,245.24 C417.80302,246.182438 418.924174,247.001485 420.13,247.68 C421.763264,248.589434 423.648858,248.940569 425.5,248.68 L425.5,248.68 C425.5,248.68 436.86,250.87 449.94,238.56 C449.94,238.56 454.61,237.06 455.05,236.18 L448.16,234.97 C448.16,234.97 447.44,240.04 443.89,242.31 C443.89,242.31 448.28,235.25 447.14,234.74 C446.91,234.63 443.47,234.24 443.47,234.24 C443.47,234.24 442.19,243.06 436.59,246.39 C436.59,246.39 442.96,238.68 442.17,234.08 L436.94,233.8 C436.94,233.8 436.05,243.19 429.81,247.23 C429.81,247.23 436.18,238.94 435.81,233.82 L430.63,234.24 C430.63,234.24 429.58,243.37 424.37,246.69 C424.37,246.69 430.76,236.37 429.45,234.41 C429.45,234.41 424.72,235.08 423.55,235.86 C423.55,235.86 422.64,242.4 419.44,244.06 C419.44,244.06 422.99,236.71 422.27,236.2 C422.27,236.2 416.34,238.71 414.01,241.57 C416.025551,238.831628 418.721104,236.666913 421.83,235.29 C419.895651,234.486034 417.76883,234.263622 415.71,234.65 C415.71,234.65 418.25,231.79 423.27,234.7 C423.27,234.7 427.97,232.93 428.77,233.15 C428.77,233.15 424.22,229.58 420.45,228.96 C420.45,228.96 424.99,227.66 430.14,232.96 L435.33,232.43 C435.33,232.43 429.56,227.43 426.25,226.59 C426.25,226.59 431.08,225.98 436.65,232.4 L441.77,232.63 C441.77,232.63 437.14,227.91 433.65,226.21 C433.65,226.21 438.24,226.61 443.24,232.74 L446.65,233.29 C446.65,233.29 443.2,229.91 442.12,229.03 C441.04,228.15 441.19,227.78 441.19,227.78 C443.971987,229.011934 446.357257,230.992158 448.08,233.5 C448.08,233.5 455.03,235.11 455.16,234.7 Z" id="Path" opacity="0.1"></path>
            <path d="M556.77,22.59 C556.77,22.59 526.25,-0.25 515.34,24.49 C515.34,24.49 512.01,27.94 514.4,32.07 C514.4,32.07 515.54,30.46 518.4,33.13 C519.418327,34.0675702 520.542599,34.883087 521.75,35.56 C523.383012,36.4701325 525.268842,36.8213112 527.12,36.56 L527.12,36.56 C527.12,36.56 538.48,38.75 551.56,26.43 C551.56,26.43 556.23,24.94 556.66,24.05 L549.77,22.86 C549.77,22.86 549.06,27.93 545.5,30.2 C545.5,30.2 549.9,23.14 548.76,22.63 C548.53,22.52 545.09,22.13 545.09,22.13 C545.09,22.13 543.77,30.97 538.17,34.28 C538.17,34.28 544.53,26.57 543.75,21.97 L538.52,21.69 C538.52,21.69 537.62,31.08 531.39,35.11 C531.39,35.11 537.76,26.82 537.39,21.7 L532.22,22.12 C532.22,22.12 531.16,31.26 525.95,34.58 C525.95,34.58 532.35,24.26 531.04,22.3 C531.04,22.3 526.31,22.97 525.14,23.75 C525.14,23.75 524.23,30.29 521.03,31.95 C521.03,31.95 524.58,24.6 523.86,24.08 C523.86,24.08 517.93,26.6 515.6,29.46 C517.612505,26.7187091 520.308911,24.5533085 523.42,23.18 C521.483664,22.3700553 519.351878,22.1474871 517.29,22.54 C517.29,22.54 519.84,19.68 524.86,22.59 C524.86,22.59 529.56,20.81 530.36,21.04 C530.36,21.04 525.81,17.47 522.04,16.84 C522.04,16.84 526.57,15.55 531.72,20.84 L536.91,20.31 C536.91,20.31 531.15,15.31 527.83,14.46 C527.83,14.46 532.66,13.86 538.24,20.28 L543.36,20.5 C543.36,20.5 538.73,15.78 535.23,14.09 C535.23,14.09 539.83,14.49 544.83,20.62 L548.23,21.17 C548.23,21.17 544.77,17.83 543.69,16.97 C542.61,16.11 542.76,15.73 542.76,15.73 C545.542826,16.9605807 547.928433,18.941085 549.65,21.45 C549.65,21.45 556.6,22.97 556.77,22.59 Z" id="Path" opacity="0.1"></path>
            <path d="M673.39,51.52 C673.39,51.52 661.19,15.41 638.18,29.6 C638.18,29.6 633.48,30.6 633.11,35.31 C633.11,35.31 634.96,34.63 635.78,38.43 C636.08465,39.7817197 636.544361,41.0937418 637.15,42.34 C637.976487,44.0172151 639.323617,45.3818855 640.99,46.23 L640.99,46.23 C640.99,46.23 649.11,54.48 666.87,51.75 C666.87,51.75 671.56,53.17 672.42,52.68 L667.42,47.77 C667.42,47.77 663.96,51.54 659.74,51.39 C659.74,51.39 667.37,48.07 666.74,47 C666.61,46.79 664,44.52 664,44.52 C664,44.52 657.94,51.05 651.44,50.62 C651.44,50.62 661.05,47.88 663.01,43.62 L658.87,40.43 C658.87,40.43 652.81,47.65 645.38,47.43 C645.38,47.43 655.38,44.22 657.91,39.78 L653.41,37.19 C653.41,37.19 647.41,44.12 641.19,43.9 C641.19,43.9 652.31,39.03 652.34,36.67 C652.34,36.67 648.07,34.54 646.66,34.52 C646.66,34.52 642.2,39.39 638.66,38.95 C638.66,38.95 645.74,34.9 645.44,34.07 C645.44,34.07 639.14,32.78 635.59,33.82 C638.800859,32.7020595 642.248308,32.4435008 645.59,33.07 C644.448881,31.3089831 642.819029,29.9189175 640.9,29.07 C640.9,29.07 644.62,28.16 647.11,33.4 C647.11,33.4 651.99,34.61 652.51,35.24 C652.51,35.24 650.79,29.73 648.04,27.07 C648.04,27.07 652.51,28.58 653.73,35.89 L658.31,38.39 C658.31,38.39 656.42,30.98 654.14,28.39 C654.14,28.39 658.47,30.63 659.41,39.08 L663.51,42.17 C663.51,42.17 662.37,35.65 660.45,32.27 C660.45,32.27 664.01,35.21 664.65,43.1 L667.14,45.48 C667.14,45.48 666.22,40.74 665.84,39.4 C665.46,38.06 665.77,37.97 665.77,37.97 C667.359706,40.5641393 668.200727,43.5475137 668.2,46.59 C668.2,46.59 673.04,51.78 673.39,51.52 Z" id="Path" opacity="0.1"></path>
            <path d="M593.77,53.3 C593.77,53.3 555.87,49.08 559,75.97 C559,75.97 557.87,80.63 562,82.97 C562,82.97 562.17,80.97 566,81.87 C567.353534,82.1612366 568.735615,82.2987737 570.12,82.28 C571.989987,82.2462286 573.797994,81.6037719 575.27,80.45 L575.27,80.45 C575.27,80.45 586.18,76.58 591.27,59.33 C591.27,59.33 594.53,55.68 594.46,54.69 L587.91,57.11 C587.91,57.11 589.91,61.84 587.91,65.6 C587.91,65.6 588.12,57.29 586.91,57.42 C586.66,57.42 583.5,58.86 583.5,58.86 C583.5,58.86 586.86,67.11 583.72,72.86 C583.72,72.86 585.3,62.98 582.29,59.42 L577.64,61.82 C577.64,61.82 581.64,70.37 578.29,77.01 C578.29,77.01 579.59,66.63 576.66,62.42 L572.41,65.42 C572.41,65.42 576.13,73.83 573.32,79.34 C573.32,79.34 573.61,67.2 571.48,66.17 C571.48,66.17 567.74,69.17 567.13,70.41 C567.13,70.41 569.66,76.51 567.75,79.56 C567.75,79.56 567.08,71.43 566.2,71.35 C566.2,71.35 562.36,76.52 561.8,80.17 C562.146877,76.7860268 563.374295,73.551987 565.36,70.79 C563.284907,71.0767593 561.338646,71.9630034 559.76,73.34 C559.76,73.34 560.5,69.59 566.3,69.55 C566.3,69.55 569.45,65.64 570.3,65.43 C570.3,65.43 564.57,64.66 561,66.03 C561,66.03 564.25,62.61 571.39,64.6 L575.6,61.51 C575.6,61.51 567.99,59.97 564.77,60.97 C564.77,60.97 568.63,57.97 576.69,60.72 L581.22,58.31 C581.22,58.31 574.83,56.59 570.96,56.9 C570.96,56.9 575.13,54.9 582.54,57.67 L585.76,56.42 C585.76,56.42 581.07,55.25 579.69,55.03 C578.31,54.81 578.26,54.43 578.26,54.43 C581.283137,54.083136 584.343239,54.5816141 587.1,55.87 C587.1,55.87 593.84,53.72 593.77,53.3 Z" id="Path" opacity="0.1"></path>
            <path d="M925.37,347.47 C925.37,347.47 887.49,343.25 890.62,370.11 C890.62,370.11 889.49,374.77 893.62,377.11 C893.62,377.11 893.79,375.11 897.62,376 C898.971969,376.301104 900.355206,376.438756 901.74,376.41 C903.610916,376.381361 905.420512,375.73834 906.89,374.58 L906.89,374.58 C906.89,374.58 917.8,370.71 922.84,353.47 C922.84,353.47 926.1,349.81 926.03,348.83 L919.48,351.24 C919.48,351.24 921.48,355.98 919.48,359.74 C919.48,359.74 919.69,351.42 918.48,351.56 C918.23,351.56 915.07,352.99 915.07,352.99 C915.07,352.99 918.43,361.24 915.29,366.99 C915.29,366.99 916.87,357.12 913.86,353.55 L909.21,355.96 C909.21,355.96 913.21,364.51 909.87,371.15 C909.87,371.15 911.16,360.77 908.23,356.55 L903.98,359.55 C903.98,359.55 907.7,367.96 904.89,373.46 C904.89,373.46 905.18,361.32 903.05,360.3 C903.05,360.3 899.32,363.3 898.7,364.54 C898.7,364.54 901.24,370.64 899.32,373.69 C899.32,373.69 898.65,365.56 897.77,365.48 C897.77,365.48 893.93,370.65 893.37,374.3 C893.716877,370.916027 894.944295,367.681987 896.93,364.92 C894.853425,365.201638 892.905755,366.088523 891.33,367.47 C891.33,367.47 892.07,363.71 897.87,363.67 C897.87,363.67 901.03,359.76 901.87,359.56 C901.87,359.56 896.14,358.78 892.57,360.15 C892.57,360.15 895.82,356.74 902.97,358.73 L907.17,355.64 C907.17,355.64 899.65,354.22 896.38,355.2 C896.38,355.2 900.24,352.2 908.3,354.94 L912.83,352.54 C912.83,352.54 906.44,350.82 902.57,351.13 C902.57,351.13 906.74,349.13 914.15,351.9 L917.37,350.64 C917.37,350.64 912.68,349.47 911.3,349.26 C909.92,349.05 909.87,348.66 909.87,348.66 C912.892279,348.306842 915.953204,348.801991 918.71,350.09 C918.71,350.09 925.47,347.9 925.37,347.47 Z" id="Path" opacity="0.1"></path>
            <path d="M983.28,382.85 C983.28,382.85 945.4,378.64 948.53,405.49 C948.53,405.49 947.41,410.15 951.53,412.49 C951.53,412.49 951.7,410.49 955.53,411.39 C956.87963,411.68369 958.259068,411.817942 959.64,411.79 C961.50143,411.751907 963.300759,411.113548 964.77,409.97 L964.77,409.97 C964.77,409.97 975.67,406.1 980.71,388.85 C980.71,388.85 983.98,385.2 983.9,384.21 L977.35,386.62 C977.35,386.62 979.35,391.36 977.35,395.12 C977.35,395.12 977.56,386.81 976.35,386.94 C976.1,386.94 972.94,388.37 972.94,388.37 C972.94,388.37 976.3,396.62 973.16,402.37 C973.16,402.37 974.74,392.5 971.73,388.94 L967.08,391.34 C967.08,391.34 971.08,399.89 967.74,406.53 C967.74,406.53 969.03,396.15 966.1,391.94 L961.85,394.94 C961.85,394.94 965.57,403.35 962.77,408.86 C962.77,408.86 963.05,396.71 960.92,395.69 C960.92,395.69 957.19,398.69 956.57,399.93 C956.57,399.93 959.11,406.03 957.19,409.08 C957.19,409.08 956.52,400.95 955.64,400.87 C955.64,400.87 951.8,406.04 951.25,409.69 C951.596194,406.307512 952.819919,403.074119 954.8,400.31 C952.724907,400.596759 950.778646,401.483003 949.2,402.86 C949.2,402.86 949.95,399.1 955.75,399.07 C955.75,399.07 958.9,395.16 959.75,394.95 C959.75,394.95 954.02,394.18 950.45,395.55 C950.45,395.55 953.7,392.13 960.85,394.12 L965.05,391.03 C965.05,391.03 957.53,389.61 954.26,390.59 C954.26,390.59 958.12,387.59 966.18,390.34 L970.71,387.93 C970.71,387.93 964.32,386.21 960.45,386.52 C960.45,386.52 964.62,384.52 972.03,387.29 L975.25,386.04 C975.25,386.04 970.56,384.87 969.19,384.65 C967.82,384.43 967.75,384.05 967.75,384.05 C970.773137,383.703136 973.833239,384.201614 976.59,385.49 C976.59,385.49 983.38,383.28 983.28,382.85 Z" id="Path" opacity="0.1"></path>
            <path d="M854.71,84.84 C854.71,84.84 824.19,62.01 813.28,86.74 C813.28,86.74 809.95,90.19 812.34,94.32 C812.34,94.32 813.48,92.71 816.34,95.38 C817.35302,96.322438 818.474174,97.1414846 819.68,97.82 C821.313515,98.7287378 823.198875,99.0798289 825.05,98.82 L825.05,98.82 C825.05,98.82 836.41,101.01 849.5,88.7 C849.5,88.7 854.16,87.2 854.6,86.32 L847.73,85.08 C847.73,85.08 847.01,90.15 843.46,92.42 C843.46,92.42 847.85,85.36 846.71,84.85 C846.48,84.74 843.05,84.35 843.05,84.35 C843.05,84.35 841.76,93.17 836.16,96.5 C836.16,96.5 842.53,88.79 841.74,84.19 L836.51,83.91 C836.51,83.91 835.62,93.3 829.38,97.34 C829.38,97.34 835.76,89.05 835.38,83.93 L830.2,84.35 C830.2,84.35 829.2,93.48 823.94,96.8 C823.94,96.8 830.34,86.48 829.02,84.52 C829.02,84.52 824.29,85.19 823.12,85.97 C823.12,85.97 822.22,92.51 819.02,94.17 C819.02,94.17 822.56,86.82 821.84,86.31 C821.84,86.31 815.91,88.82 813.58,91.68 C815.595551,88.941628 818.291104,86.776913 821.4,85.4 C819.465651,84.5960345 817.33883,84.3736218 815.28,84.76 C815.28,84.76 817.83,81.9 822.85,84.81 C822.85,84.81 827.54,83.04 828.34,83.26 C828.34,83.26 823.79,79.69 820.02,79.07 C820.02,79.07 824.56,77.77 829.71,83.07 L834.9,82.54 C834.9,82.54 829.14,77.54 825.82,76.7 C825.82,76.7 830.65,76.09 836.22,82.51 L841.35,82.74 C841.35,82.74 836.71,78.02 833.22,76.32 C833.22,76.32 837.82,76.72 842.81,82.85 L846.22,83.4 C846.22,83.4 842.77,80.02 841.69,79.14 C840.61,78.26 840.77,77.97 840.77,77.97 C843.548046,79.2039427 845.929584,81.1839429 847.65,83.69 C847.65,83.69 854.58,85.25 854.71,84.84 Z" id="Path" opacity="0.1"></path>
            <path d="M878.29,249.66 C878.29,249.66 867.77,213.03 844.11,226.18 C844.11,226.18 839.37,226.91 838.78,231.65 C838.78,231.65 840.66,231.06 841.31,234.89 C841.551028,236.26595 841.953822,237.608595 842.51,238.89 C843.251736,240.61318 844.537201,242.046157 846.17,242.97 L846.17,242.97 C846.17,242.97 853.91,251.57 871.77,249.65 C871.77,249.65 876.39,251.27 877.27,250.83 L872.54,245.69 C872.54,245.69 868.91,249.31 864.71,248.97 C864.71,248.97 872.47,245.97 871.87,244.9 C871.75,244.68 869.25,242.29 869.25,242.29 C869.25,242.29 862.91,248.55 856.43,247.82 C856.43,247.82 866.16,245.52 868.3,241.38 L864.3,238 C864.3,238 857.92,244.94 850.51,244.4 C850.51,244.4 860.59,241.63 863.37,237.32 L858.99,234.53 C858.99,234.53 852.64,241.18 846.48,240.68 C846.48,240.68 857.81,236.31 857.95,233.96 C857.95,233.96 853.77,231.64 852.36,231.56 C852.36,231.56 847.69,236.22 844.14,235.62 C844.14,235.62 851.4,231.89 851.14,231.05 C851.14,231.05 844.9,229.48 841.31,230.35 C844.561472,229.385829 848.008118,229.285876 851.31,230.06 C850.252379,228.250559 848.687996,226.790468 846.81,225.86 C846.81,225.86 850.57,225.11 852.81,230.46 C852.81,230.46 857.62,231.88 858.12,232.54 C858.12,232.54 856.65,226.95 854.02,224.18 C854.02,224.18 858.42,225.88 859.31,233.24 L863.77,235.95 C863.77,235.95 862.21,228.45 860.05,225.81 C860.05,225.81 864.27,228.24 864.84,236.72 L868.84,239.99 C868.84,239.99 867.99,233.43 866.23,229.99 C866.23,229.99 869.66,233.09 869.94,240.99 L872.32,243.49 C872.32,243.49 871.62,238.71 871.32,237.35 C871.02,235.99 871.32,235.8 871.32,235.8 C872.799785,238.459921 873.509632,241.479368 873.37,244.52 C873.37,244.52 877.93,249.9 878.29,249.66 Z" id="Path" opacity="0.1"></path>
            <path d="M643.87,332.2 C643.87,332.2 623.44,300.02 604.47,319.28 C604.47,319.28 600.13,321.28 600.89,326.03 C600.89,326.03 602.54,324.93 604.24,328.43 C604.850854,329.670361 605.609715,330.832157 606.5,331.89 C607.692342,333.333828 609.326176,334.345751 611.15,334.77 L611.15,334.77 C611.15,334.77 621,340.85 637.6,333.97 C637.6,333.97 642.49,334.23 643.21,333.56 L637.21,329.96 C637.21,329.96 634.74,334.46 630.61,335.31 C630.61,335.31 637.23,330.31 636.34,329.39 C636.17,329.21 633.09,327.63 633.09,327.63 C633.09,327.63 628.76,335.41 622.34,336.54 C622.34,336.54 631.03,331.59 631.93,327.01 L627.14,324.9 C627.14,324.9 622.97,333.35 615.71,334.9 C615.71,334.9 624.61,329.41 626.06,324.49 L621.06,323.05 C621.06,323.05 616.84,331.22 610.79,332.47 C610.79,332.47 620.43,325.09 619.9,322.79 C619.9,322.79 615.24,321.74 613.9,322.06 C613.9,322.06 610.73,327.85 607.15,328.27 C607.15,328.27 613.07,322.65 612.58,321.91 C612.58,321.91 606.15,322.16 602.95,324.01 C605.804458,322.160743 609.093738,321.091899 612.49,320.91 C610.969432,319.470836 609.061051,318.507955 607,318.14 C607,318.14 610.39,316.37 614,320.87 C614,320.87 619,320.87 619.69,321.37 C619.69,321.37 616.69,316.37 613.4,314.5 C613.4,314.5 618.1,314.9 621.02,321.71 L626.07,323.05 C626.07,323.05 622.46,316.3 619.65,314.37 C619.65,314.37 624.38,315.51 627.31,323.5 L632.03,325.5 C632.03,325.5 629.37,319.45 626.7,316.62 C626.7,316.62 630.86,318.62 633.35,326.13 L636.35,327.86 C636.35,327.86 634.35,323.47 633.64,322.26 C632.93,321.05 633.21,320.77 633.21,320.77 C635.373943,322.907476 636.900827,325.604625 637.62,328.56 C637.62,328.56 643.6,332.54 643.87,332.2 Z" id="Path" opacity="0.1"></path>
            <path d="M778.14,167.78 C778.14,167.78 758.71,134.99 739.14,153.65 C739.14,153.65 734.74,155.55 735.36,160.29 C735.36,160.29 737.03,159.23 738.63,162.78 C739.202149,164.04193 739.924,165.230465 740.78,166.32 C741.928341,167.794675 743.531216,168.849198 745.34,169.32 L745.34,169.32 C745.34,169.32 754.99,175.7 771.8,169.32 C771.8,169.32 776.68,169.73 777.42,169.08 L771.55,165.3 C771.55,165.3 768.95,169.71 764.79,170.44 C764.79,170.44 771.56,165.61 770.71,164.7 C770.53,164.51 767.51,162.83 767.51,162.83 C767.51,162.83 762.94,170.48 756.51,171.41 C756.51,171.41 765.35,166.73 766.38,162.19 L761.66,159.97 C761.66,159.97 757.23,168.3 749.92,169.63 C749.92,169.63 758.99,164.42 760.59,159.55 L755.65,157.95 C755.65,157.95 751.17,165.95 745.09,167.05 C745.09,167.05 754.95,159.97 754.49,157.66 C754.49,157.66 749.87,156.46 748.49,156.74 C748.49,156.74 745.14,162.43 741.55,162.74 C741.55,162.74 747.64,157.32 747.18,156.56 C747.18,156.56 740.74,156.61 737.49,158.36 C740.401369,156.60392 743.720929,155.638732 747.12,155.56 C745.6419,154.073471 743.761419,153.051545 741.71,152.62 C741.71,152.62 745.16,150.95 748.71,155.56 C748.71,155.56 753.71,155.73 754.38,156.24 C754.38,156.24 751.55,151.24 748.31,149.18 C748.31,149.18 752.99,149.72 755.7,156.62 L760.7,158.12 C760.7,158.12 757.31,151.26 754.55,149.24 C754.55,149.24 759.25,150.53 761.93,158.6 L766.58,160.77 C766.58,160.77 764.11,154.64 761.58,151.77 C761.58,151.77 765.67,153.9 767.94,161.48 L770.87,163.3 C770.87,163.3 768.99,158.85 768.33,157.62 C767.67,156.39 767.95,156.12 767.95,156.12 C770.046179,158.323208 771.489752,161.064957 772.12,164.04 C772.12,164.04 777.85,168.11 778.14,167.78 Z" id="Path"></path>
            <path d="M655.21,236.73 C655.21,236.73 656.21,198.63 629.74,204 C629.74,204 625,203.27 623,207.61 C623,207.61 625,207.61 624.44,211.46 C624.256807,212.832805 624.236667,214.222463 624.38,215.6 C624.560775,217.468475 625.351448,219.225525 626.63,220.6 L626.63,220.6 C626.63,220.6 631.4,231.14 649.01,234.72 C649.01,234.72 652.92,237.67 653.9,237.51 L650.9,231.19 C650.9,231.19 646.35,233.53 642.44,231.94 C642.44,231.94 650.74,231.45 650.51,230.23 C650.51,229.98 648.79,226.94 648.79,226.94 C648.79,226.94 640.85,230.99 634.9,228.33 C634.9,228.33 644.9,229.08 648.17,225.79 L645.38,221.36 C645.38,221.36 637.2,226.04 630.3,223.28 C630.3,223.28 640.75,223.7 644.71,220.43 L641.38,216.43 C641.38,216.43 633.31,220.85 627.59,218.51 C627.59,218.51 639.71,217.78 640.59,215.57 C640.59,215.57 637.31,212.1 635.99,211.57 C635.99,211.57 630.13,214.57 626.93,212.95 C626.93,212.95 634.93,211.61 634.98,210.72 C634.98,210.72 629.51,207.33 625.82,207.08 C629.222597,207.140833 632.549821,208.092454 635.47,209.84 C635.014399,207.796002 633.971706,205.929582 632.47,204.47 C632.47,204.47 636.28,204.9 636.8,210.67 C636.8,210.67 640.97,213.49 641.24,214.27 C641.24,214.27 641.53,208.5 639.86,205.06 C639.86,205.06 643.54,208.01 642.16,215.29 L645.59,219.23 C645.59,219.23 646.37,211.61 645.12,208.44 C645.12,208.44 648.4,212.03 646.38,220.29 L649.15,224.6 C649.15,224.6 650.33,218.09 649.7,214.26 C649.7,214.26 652.02,218.26 649.9,225.87 L651.42,228.97 C651.42,228.97 652.19,224.2 652.29,222.81 C652.39,221.42 652.77,221.33 652.77,221.33 C653.371971,224.313094 653.133083,227.404789 652.08,230.26 C652.08,230.26 654.77,236.86 655.21,236.73 Z" id="Path"></path>
            <ellipse id="Oval" opacity="0.1" cx="698.97" cy="716.3" rx="26.93" ry="4.55"></ellipse>
            <ellipse id="Oval" opacity="0.1" cx="600.8" cy="785.38" rx="26.93" ry="4.55"></ellipse>
            <ellipse id="Oval" opacity="0.1" cx="93.14" cy="749.99" rx="26.93" ry="4.55"></ellipse>
            <ellipse id="Oval" opacity="0.1" cx="805.06" cy="780.83" rx="26.93" ry="4.55"></ellipse>
            <ellipse id="Oval" cx="833.1" cy="723.1" rx="40.21" ry="6.8"></ellipse>
            <path d="M849.77,711.97 C851.60562,710.47844 852.941895,708.461816 853.6,706.19 C854.1,703.89 853.12,701.14 850.93,700.3 C848.47,699.36 845.84,701.06 843.84,702.78 C841.84,704.5 839.57,706.47 836.96,706.11 C839.685285,703.634241 840.914683,699.911895 840.2,696.3 C840.086694,695.56412 839.775618,694.87284 839.3,694.3 C837.93,692.84 835.46,693.47 833.82,694.62 C828.62,698.28 827.17,705.34 827.14,711.7 C826.62,709.41 827.06,707.02 827.05,704.7 C827.04,702.38 826.39,699.7 824.4,698.48 C823.178515,697.798916 821.798291,697.45386 820.4,697.48 C818.06,697.4 815.45,697.63 813.86,699.34 C811.86,701.46 812.39,705.03 814.11,707.34 C815.83,709.65 818.46,711.14 820.88,712.76 C822.816838,713.916624 824.470521,715.491724 825.72,717.37 C825.862387,717.631625 825.979581,717.906194 826.07,718.19 L840.73,718.19 C844.011937,716.53702 847.053262,714.444427 849.77,711.97 Z" id="Path"></path>
        </g>
    </g>
</svg>