<?xml version="1.0" encoding="UTF-8"?>
<svg width="1130px" height="584px" viewBox="0 0 1130 584" version="1.1" xmlns="http://www.w3.org/2000/svg" xmlns:xlink="http://www.w3.org/1999/xlink">
    <title>backgrounds/2</title>
    <g id="backgrounds/2" stroke="none" stroke-width="1" fill="none" fill-rule="evenodd" opacity="0.1">
        <g id="undraw_quitting_time_dm8t" transform="translate(85.000000, 0.000000)" fill="#F15A24" fill-rule="nonzero">
            <path d="M551.962162,96.2747885 C491.062581,94.335798 433.052055,76.2725705 377.667171,56.5169784 C322.282286,36.7613864 267.407235,14.8456909 207.960679,4.40235594 C169.723186,-2.33308483 126.004985,-3.25155402 95.1940631,15.5430471 C65.5557573,33.6573007 55.9708924,64.9362794 50.8215766,93.9616068 C46.946844,115.792259 44.6695888,138.770998 55.2826175,159.215441 C62.658205,173.400688 75.7439249,185.332283 84.793465,198.922225 C116.292662,246.223389 94.0299439,304.546183 59.8966083,350.724773 C43.8878445,372.359825 25.3214173,393.0594 12.9664584,416.114677 C0.611499483,439.169955 -5.09013561,465.601457 5.7098319,489.124474 C16.4248272,512.443386 41.9504782,529.945327 69.6089316,542.276626 C125.77556,567.296408 191.96891,574.457066 256.547787,578.513638 C399.37757,587.519739 542.9806,583.599236 686.269232,579.71275 C739.283392,578.267012 792.484491,576.812769 844.682918,569.27792 C873.641446,565.093782 903.543166,558.460394 924.556792,542.438209 C951.25506,522.104321 957.865898,487.661727 939.979248,462.165702 C909.984059,419.38885 827.03419,408.758419 806.06305,362.860473 C794.498332,337.585561 806.394441,309.427677 823.159458,286.006712 C859.13669,235.737532 919.449963,191.608489 922.627923,134.170147 C924.811709,94.7014848 895.819192,55.173292 850.987856,36.4977517 C803.998225,16.9377596 738.824542,19.3870108 704.164379,51.8055716 C668.467555,85.151106 605.741072,97.9926661 551.962162,96.2747885 Z" id="Path"></path>
        </g>
    </g>
</svg>