<?xml version="1.0" encoding="UTF-8"?>
<svg width="1028px" height="790px" viewBox="0 0 1028 790" version="1.1" xmlns="http://www.w3.org/2000/svg" xmlns:xlink="http://www.w3.org/1999/xlink">
    <title>backgrounds/3</title>
    <g id="backgrounds/3" stroke="none" stroke-width="1" fill="none" fill-rule="evenodd">
        <g id="undraw_Calculator_0evy" transform="translate(0.000000, -0.000000)" fill-rule="nonzero">
            <path d="M586.56,124.98 C521.84,122.73 460.2,101.84 401.33,78.98 C342.46,56.12 284.17,30.8 221,18.68 C180.37,10.89 133.91,9.79 101.17,31.57 C69.67,52.57 59.49,88.72 54.01,122.3 C49.9,147.56 47.48,174.15 58.76,197.8 C66.59,214.22 80.5,228.02 90.12,243.74 C123.58,298.46 99.93,365.98 63.68,419.37 C46.68,444.44 26.94,468.37 13.81,495.03 C0.68,521.69 -5.39,552.28 6.09,579.5 C17.48,606.5 44.61,626.74 74,640.99 C133.68,669.99 204,678.22 272.61,682.91 C424.43,693.3 577.07,688.8 729.29,684.3 C785.63,682.63 842.21,680.94 897.64,672.23 C928.41,667.4 960.19,659.72 982.53,641.23 C1010.89,617.7 1017.92,577.86 998.92,548.35 C967.04,498.86 878.92,486.57 856.61,433.46 C844.34,404.22 856.94,371.66 874.76,344.54 C913,286.38 977.09,235.35 980.47,168.87 C982.79,123.21 951.98,77.48 904.34,55.87 C854.4,33.23 785.16,36.08 748.34,73.56 C710.36,112.11 643.68,126.98 586.56,124.98 Z" id="Path" fill="#F15A24" opacity="0.1"></path>
            <ellipse id="Oval" fill="#F15A24" opacity="0.1" cx="579.79" cy="727.58" rx="370.98" ry="27.58"></ellipse>
            <path d="M292.94,638.25 C292.94,638.25 313.94,634.89 326.54,649.74 C326.54,649.74 317.3,657.02 297.42,646.94 L292.94,638.25 Z" id="Path" fill="#F15A24"></path>
            <path d="M290.68,637.98 C290.68,637.98 277.29,654.5 283.86,672.83 C283.86,672.83 294.78,668.45 295.97,646.19 L290.68,637.98 Z" id="Path" fill="#F15A24"></path>
            <path d="M278.68,610.81 C278.68,610.81 287.08,595.41 320.68,616.97 C320.68,616.97 316.2,627.33 301.36,626.49 C286.52,625.65 282.58,618.98 278.68,610.81 Z" id="Path" fill="#F15A24"></path>
            <path d="M276.49,609.7 C276.49,609.7 259.06,607.7 257.37,647.61 C257.37,647.61 268.42,649.9 276.27,637.28 C284.12,624.66 280.88,617.58 276.49,609.7 Z" id="Path" fill="#F15A24"></path>
            <path d="M266.34,577.88 C266.34,577.88 276.14,550.72 311.7,570.04 C311.7,570.04 303.58,594.96 269.98,587.12 L266.34,577.88 Z" id="Path" fill="#F15A24"></path>
            <path d="M255.41,537.28 C255.41,537.28 273.9,509.83 306.66,535.28 C306.66,535.28 295.18,561.04 258.21,547.04 L255.41,537.28 Z" id="Path" fill="#F15A24"></path>
            <path d="M251.49,498.63 C251.49,498.63 273.06,473.43 305.54,498.63 C305.54,498.63 285.1,520.75 251.49,505.07 L251.49,498.63 Z" id="Path" fill="#F15A24"></path>
            <path d="M248.13,461.11 C248.13,461.11 269.98,434.79 301.06,459.71 C301.06,459.71 276.42,482.95 248.13,467.27 L248.13,461.11 Z" id="Path" fill="#F15A24"></path>
            <path d="M250.09,427.79 C250.09,427.79 273.09,393.9 302.18,416.87 C302.18,416.87 277.54,445.99 250.09,434.23 L250.09,427.79 Z" id="Path" fill="#F15A24"></path>
            <path d="M255.41,388.86 C255.41,388.86 279.78,355.26 308.06,381.02 C308.06,381.02 279.22,410.15 255.41,395.02 L255.41,388.86 Z" id="Path" fill="#F15A24"></path>
            <path d="M263.54,354.07 C263.54,354.07 292.38,322.5 317.54,335.07 C317.54,335.07 287.48,368.6 262.28,362.44 L263.54,354.07 Z" id="Path" fill="#F15A24"></path>
            <path d="M273.62,321.1 C273.62,321.1 306.94,282.46 326.26,295.34 C326.26,295.34 301.74,325.34 271.26,328.34 L273.62,321.1 Z" id="Path" fill="#F15A24"></path>
            <path d="M288.17,282.85 C288.17,282.85 317.3,251.27 338.58,259.11 C338.58,259.11 313.66,291.87 284.26,292.71 L288.17,282.85 Z" id="Path" fill="#F15A24"></path>
            <path d="M301.34,247.07 C301.34,247.07 333.54,216.82 347.54,222.14 C347.54,222.14 324.3,255.75 299.94,253.79 L301.34,247.07 Z" id="Path" fill="#F15A24"></path>
            <path d="M314.22,213.98 C314.22,213.98 341.94,177.86 357.06,180.66 C357.06,180.66 340.26,212.86 314.22,217.66 L314.22,213.98 Z" id="Path" fill="#F15A24"></path>
            <path d="M328.2,169.48 C328.2,169.48 352.7,141.78 365.93,141.849868 C365.93,141.849868 346.59,178.85 327.19,178.51 L328.2,169.48 Z" id="Path" fill="#F15A24"></path>
            <path d="M336.48,139.82 L360.14,82.13 C360.14,82.13 361.33,134.28 333.47,150.52 L336.48,139.82 Z" id="Path" fill="#F15A24"></path>
            <path d="M346.09,76.2 C346.09,76.2 350.01,28.04 347.49,24.12 C347.49,24.12 364.41,64.12 345.92,97.48 L346.09,76.2 Z" id="Path" fill="#F15A24"></path>
            <path d="M265.42,577.23 C265.42,577.23 240.88,562.02 224.99,599.23 C224.99,599.23 246.83,613.72 268.3,586.72 L265.42,577.23 Z" id="Path" fill="#F15A24"></path>
            <path d="M254.68,535.73 C254.68,535.73 224.58,522 209.97,560.85 C209.97,560.85 233.23,576.85 257.42,545.55 L254.68,535.73 Z" id="Path" fill="#F15A24"></path>
            <path d="M250.09,500.98 C250.09,500.98 228.53,475.78 196.09,500.98 C196.09,500.98 216.53,523.1 250.09,507.42 L250.09,500.98 Z" id="Path" fill="#F15A24"></path>
            <path d="M247.4,461.11 C247.4,461.11 225.56,434.79 194.47,459.71 C194.47,459.71 219.12,482.95 247.4,467.27 L247.4,461.11 Z" id="Path" fill="#F15A24"></path>
            <path d="M250.09,428.75 C250.09,428.75 234.77,390.75 201.47,407.12 C201.47,407.12 219.47,440.77 248.74,435.04 L250.09,428.75 Z" id="Path" fill="#F15A24"></path>
            <path d="M257.34,388.67 C257.34,388.67 242.12,350.06 208.34,367.97 C208.34,367.97 229.02,403.36 255.84,394.64 L257.34,388.67 Z" id="Path" fill="#F15A24"></path>
            <path d="M266.78,354.27 C266.78,354.27 260.78,311.94 232.78,308.15 C232.78,308.15 238.71,352.79 263,361.9 L266.78,354.27 Z" id="Path" fill="#F15A24"></path>
            <path d="M274.33,321.17 C274.33,321.17 271.99,270.17 248.84,268.4 C248.84,268.4 249.62,307.11 271.72,328.4 L274.33,321.17 Z" id="Path" fill="#F15A24"></path>
            <path d="M290.57,281.39 C290.57,281.39 283.66,238.98 261.57,233.79 C261.57,233.79 264.31,274.87 288.39,291.79 L290.57,281.39 Z" id="Path" fill="#F15A24"></path>
            <path d="M303.96,247.37 C303.96,247.37 303.72,203.2 290.23,196.7 C290.23,196.7 281.85,236.7 300.05,253.01 L303.96,247.37 Z" id="Path" fill="#F15A24"></path>
            <path d="M315.25,213.53 C315.25,213.53 313.36,168.04 299.38,161.63 C299.38,161.63 294.59,197.63 313.15,216.51 L315.25,213.53 Z" id="Path" fill="#F15A24"></path>
            <path d="M330.15,173.1 C330.15,173.1 330.06,136.1 320.09,127.43 C320.09,127.43 310.16,167.96 324.94,180.55 L330.15,173.1 Z" id="Path" fill="#F15A24"></path>
            <path d="M335.3,137.98 L325.6,76.39 C325.6,76.39 312.41,126.85 335.77,149.08 L335.3,137.98 Z" id="Path" fill="#F15A24"></path>
            <path d="M337.2,76.79 C337.2,76.79 312.28,35.39 312.79,30.79 C312.79,30.79 315.44,74.18 346.79,95.79 L337.2,76.79 Z" id="Path" fill="#F15A24"></path>
            <path d="M340.12,64.56 C340.12,64.56 316.6,5.76 305.96,0.98 C305.96,0.98 339.56,18.06 342.08,62.86 L340.12,64.56 Z" id="Path" fill="#F15A24"></path>
            <path d="M327.06,178.86 L325.46,178.36 C345.31,113.64 350.26,72.36 339.4,62.02 L340.56,60.8 C352.07,71.72 347.4,112.54 327.06,178.86 Z" id="Path" fill="#444053"></path>
            <path d="M272.41,330.37 L270.03,329.53 C272.13,323.6 274.41,317.58 276.79,311.65 C297.51,259.98 315.14,211.98 326.45,175.09 L328.52,174.09 C317.19,210.98 299.87,260.88 279.13,312.59 C276.76,318.49 274.5,324.47 272.41,330.37 Z" id="Path" fill="#444053"></path>
            <path d="M322.49,686.7 C322.17,686.34 289.99,650.12 267.57,588.26 C254.422077,552.053123 247.097823,513.990627 245.87,475.49 C244.34,427.36 254.43,373.61 271.74,324.8 L273.62,327 C234.78,436.56 250.21,530.45 270.68,586.98 C292.87,648.27 324.68,684.1 324.99,684.46 L322.49,686.7 Z" id="Path" fill="#444053"></path>
            <path d="M182.28,678.8 C182.28,678.8 144.23,676.51 148.72,703.17 C148.72,703.17 147.83,707.88 152.1,710.02 C152.1,710.02 152.16,708.02 156,708.71 C157.363936,708.939547 158.750266,709.006682 160.13,708.91 C161.997777,708.784495 163.773933,708.054375 165.19,706.83 L165.19,706.83 C165.19,706.83 175.88,702.41 180.04,684.93 C180.04,684.93 183.12,681.12 182.99,680.14 L176.57,682.88 C176.57,682.88 178.77,687.51 177.04,691.36 C177.04,691.36 176.83,683.05 175.6,683.24 C175.35,683.24 172.26,684.85 172.26,684.85 C172.26,684.85 176.04,692.92 173.19,698.78 C173.19,698.78 174.27,688.84 171.09,685.43 L166.57,688.07 C166.57,688.07 170.98,696.4 167.99,703.2 C167.99,703.2 168.75,692.77 165.62,688.71 L161.52,691.91 C161.52,691.91 165.66,700.12 163.14,705.76 C163.14,705.76 162.81,693.62 160.63,692.7 C160.63,692.7 157.05,695.86 156.5,697.16 C156.5,697.16 159.34,703.16 157.58,706.27 C157.58,706.27 156.5,698.18 155.58,698.14 C155.58,698.14 152.01,703.5 151.64,707.14 C151.812899,703.746511 152.871332,700.457439 154.71,697.6 C152.652474,697.989277 150.754202,698.97318 149.25,700.43 C149.25,700.43 149.8,696.64 155.59,696.31 C155.59,696.31 158.59,692.24 159.33,691.99 C159.33,691.99 153.57,691.51 150.08,693.06 C150.08,693.06 153.15,689.49 160.39,691.06 L164.39,687.76 C164.39,687.76 156.81,686.76 153.59,687.87 C153.59,687.87 157.29,684.71 165.48,687.01 L169.88,684.38 C169.88,684.38 163.42,682.99 159.56,683.49 C159.56,683.49 163.63,681.3 171.17,683.67 L174.32,682.26 C174.32,682.26 169.58,681.33 168.2,681.18 C166.82,681.03 166.73,680.65 166.73,680.65 C169.731974,680.150612 172.813702,680.496873 175.63,681.65 C175.63,681.65 182.39,679.22 182.28,678.8 Z" id="Path" fill="#F15A24"></path>
            <path d="M71.68,691.17 C71.68,691.17 33.68,688.88 38.13,715.54 C38.13,715.54 37.23,720.25 41.5,722.39 C41.5,722.39 41.57,720.39 45.41,721.08 C46.7734008,721.314462 48.1603237,721.381626 49.54,721.28 C51.4052947,721.156686 53.1789439,720.426153 54.59,719.2 L54.59,719.2 C54.59,719.2 65.29,714.78 69.45,697.3 C69.45,697.3 72.52,693.49 72.45,692.51 L66.03,695.25 C66.03,695.25 68.23,699.88 66.5,703.73 C66.5,703.73 66.29,695.42 65.06,695.61 C64.81,695.61 61.72,697.22 61.72,697.22 C61.72,697.22 65.5,705.29 62.65,711.15 C62.65,711.15 63.73,701.21 60.54,697.8 L56.02,700.44 C56.02,700.44 60.43,708.77 57.44,715.57 C57.44,715.57 58.21,705.14 55.07,701.08 L50.98,704.28 C50.98,704.28 55.12,712.49 52.6,718.13 C52.6,718.13 52.27,705.99 50.09,705.07 C50.09,705.07 46.51,708.23 45.96,709.53 C45.96,709.53 48.8,715.53 47.04,718.64 C47.04,718.64 45.96,710.55 45.04,710.51 C45.04,710.51 41.48,715.87 41.1,719.51 C41.2786617,716.116096 42.3403408,712.827649 44.18,709.97 C42.1198774,710.360226 40.2186527,711.343858 38.71,712.8 C38.71,712.8 39.27,709.01 45.06,708.68 C45.06,708.68 48.06,704.61 48.8,704.37 C48.8,704.37 43.04,703.88 39.55,705.43 C39.55,705.43 42.62,701.86 49.86,703.43 L53.86,700.13 C53.86,700.13 46.28,699.13 43.06,700.24 C43.06,700.24 46.76,697.08 54.95,699.38 L59.35,696.75 C59.35,696.75 52.88,695.36 49.03,695.86 C49.03,695.86 53.1,693.67 60.64,696.04 L63.79,694.63 C63.79,694.63 59.05,693.7 57.66,693.55 C56.27,693.4 56.2,693.02 56.2,693.02 C59.2021381,692.526949 62.2821354,692.873016 65.1,694.02 C65.1,694.02 71.76,691.59 71.68,691.17 Z" id="Path" fill="#F15A24"></path>
            <path d="M133.32,720.21 C133.32,720.21 95.32,717.92 99.76,744.58 C99.76,744.58 98.87,749.29 103.14,751.43 C103.14,751.43 103.21,749.43 107.04,750.12 C108.407275,750.349777 109.796943,750.416911 111.18,750.32 C113.044288,750.192366 114.816616,749.462378 116.23,748.24 L116.23,748.24 C116.23,748.24 126.92,743.82 131.08,726.34 C131.08,726.34 134.16,722.53 134.08,721.55 L127.66,724.29 C127.66,724.29 129.85,728.92 128.13,732.77 C128.13,732.77 127.92,724.46 126.68,724.65 C126.43,724.65 123.35,726.26 123.35,726.26 C123.35,726.26 127.12,734.32 124.27,740.19 C124.27,740.19 125.35,730.25 122.17,726.84 L117.65,729.48 C117.65,729.48 122.06,737.81 119.07,744.61 C119.07,744.61 119.84,734.18 116.7,730.12 L112.6,733.32 C112.6,733.32 116.75,741.53 114.22,747.17 C114.22,747.17 113.89,735.03 111.72,734.11 C111.72,734.11 108.13,737.27 107.59,738.57 C107.59,738.57 110.43,744.57 108.66,747.68 C108.66,747.68 107.58,739.59 106.66,739.55 C106.66,739.55 103.09,744.91 102.72,748.55 C102.892899,745.156511 103.951332,741.867439 105.79,739.01 C103.732474,739.399277 101.834202,740.38318 100.33,741.84 C100.33,741.84 100.88,738.05 106.68,737.72 C106.68,737.72 109.62,733.65 110.41,733.4 C110.41,733.4 104.65,732.92 101.16,734.47 C101.16,734.47 104.24,730.9 111.47,732.52 L115.47,729.22 C115.47,729.22 107.89,728.22 104.67,729.33 C104.67,729.33 108.38,726.17 116.56,728.47 L120.97,725.84 C120.97,725.84 114.54,724.48 110.68,724.98 C110.68,724.98 114.74,722.79 122.29,725.16 L125.43,723.75 C125.43,723.75 120.7,722.82 119.31,722.67 C117.92,722.52 117.85,722.14 117.85,722.14 C120.851974,721.640612 123.933702,721.986873 126.75,723.14 C126.75,723.14 133.43,720.63 133.32,720.21 Z" id="Path" fill="#F15A24"></path>
            <ellipse id="Oval" fill="#F15A24" opacity="0.1" cx="103.66" cy="754.23" rx="26.93" ry="4.55"></ellipse>
            <ellipse id="Oval" fill="#F15A24" opacity="0.1" cx="957.84" cy="754.23" rx="26.93" ry="4.55"></ellipse>
            <ellipse id="Oval" fill="#F15A24" opacity="0.1" cx="699.95" cy="780.42" rx="26.93" ry="4.55"></ellipse>
            <ellipse id="Oval" fill="#F15A24" opacity="0.1" cx="1000.43" cy="714.79" rx="26.93" ry="4.55"></ellipse>
            <ellipse id="Oval" fill="#F15A24" opacity="0.1" cx="156.07" cy="711.95" rx="26.93" ry="4.55"></ellipse>
            <ellipse id="Oval" fill="#F15A24" opacity="0.1" cx="45.44" cy="724.72" rx="26.93" ry="4.55"></ellipse>
            <g id="Group" opacity="0.1" transform="translate(805.000000, 336.000000)" fill="#000000">
                <path d="M14.02,0.98 L13.93,0.57 L12.21,0.11 L12.4,0.95 C12.9390284,0.989979432 13.479861,0.999994851 14.02,0.98 L14.02,0.98 Z" id="Path"></path>
                <path d="M9.29,7.8 L9.47,7.64 C10.4747958,6.70256962 10.8621679,5.27704008 10.47,3.96 C10.2620446,3.45841184 9.9713356,2.99530572 9.61,2.59 C8.76276334,2.42295974 7.93262315,2.17860396 7.13,1.86 C7.03,3.37 8.73,4.35 9.26,5.77 C9.50561815,6.42261639 9.51622595,7.14041055 9.29,7.8 L9.29,7.8 Z" id="Path"></path>
                <path d="M37.88,54.27 C36.0160176,53.095037 34.5922828,51.3373397 33.83,49.27 C32.98,47.27 32.45,45.11 31.58,43.11 C30.6297232,40.912156 29.2725662,38.9137425 27.58,37.22 C27.291221,36.8872966 26.9232093,36.6327839 26.51,36.48 C25.7242723,36.3763501 24.930164,36.5965347 24.31,37.09 C23.292016,37.7796386 22.1567672,38.2777925 20.96,38.56 C19.7422503,38.8353555 18.4690086,38.4564146 17.6,37.56 C16.66,36.44 16.79,34.79 17.06,33.36 C17.65,30.24 18.63,27.15 18.64,23.98 C18.65,20.81 17.43,17.37 14.64,15.8 C12.2,14.41 9.17,14.8 6.46,14.02 C5.06989912,13.6376776 3.77311606,12.9739697 2.65,12.07 C2.57857121,12.011876 2.51170823,11.9483562 2.45,11.88 C2.22274834,11.9671323 2.00216191,12.0707411 1.79,12.19 C1.35,12.42 0.88,12.84 1,13.32 C1.09039489,13.5476008 1.24719448,13.7427292 1.45,13.88 C2.56827419,14.7856571 3.86217048,15.4496302 5.25,15.83 C7.96,16.57 10.99,16.22 13.43,17.61 C16.19,19.18 17.43,22.61 17.43,25.79 C17.43,28.97 16.43,32.05 15.85,35.17 C15.58,36.61 15.45,38.25 16.39,39.37 C17.2590086,40.2664146 18.5322503,40.6453555 19.75,40.37 C20.9468645,40.0932296 22.082489,39.5983007 23.1,38.91 C23.7169773,38.409797 24.5126258,38.1855688 25.3,38.29 C25.7126144,38.4439257 26.0803626,38.6982562 26.37,39.03 C28.0587006,40.7269348 29.4153304,42.7245721 30.37,44.92 C31.25,46.92 31.77,49.07 32.63,51.09 C33.3792786,53.1500313 34.7846891,54.9067945 36.63,56.09 C38.54,57.15 41.21,57.09 42.63,55.45 C43.0233731,55.0047706 43.3287659,54.488996 43.53,53.93 C41.8824115,55.1583393 39.663001,55.2918967 37.88,54.27 L37.88,54.27 Z" id="Path"></path>
                <path d="M46.52,46.58 C48.03,44.67 50.02,43.04 51.44,41.04 C51.72,40.64 51.98,40.22 52.22,39.8 C50.39,42.13 47.88,43.98 46.52,46.58 Z" id="Path"></path>
            </g>
        </g>
    </g>
</svg>