<?xml version="1.0" encoding="UTF-8"?>
<svg width="1004px" height="544px" viewBox="0 0 1004 544" version="1.1" xmlns="http://www.w3.org/2000/svg" xmlns:xlink="http://www.w3.org/1999/xlink">
    <title>backgrounds/4</title>
    <g id="backgrounds/4" stroke="none" stroke-width="1" fill="none" fill-rule="evenodd">
        <g id="undraw_personal_settings_kihd" transform="translate(56.000000, 0.000000)" fill-rule="nonzero">
            <path d="M892,323.930966 C892.047607,349.734944 885.002255,375.055794 871.633172,397.126935 C871.633172,424.119314 859.048499,448.585542 838.635441,466.416729 C833.525641,470.873546 828.024563,474.860822 822.198953,478.330176 C821.965037,478.478315 821.723324,478.618656 821.481611,478.758998 C821.044968,479.016291 820.608325,479.273584 820.163885,479.538674 L819.750634,479.780373 L819.750634,479.780373 C800.422322,490.545575 778.639305,496.132028 756.515378,496 L169.331978,496 C164.65366,496 160.016928,495.810509 155.421781,495.436265 C139.091781,494.150175 123.045153,490.434377 107.812105,484.411648 C104.838775,483.236936 101.922624,481.973861 99.0636519,480.622423 C97.7017417,479.983089 96.3528269,479.325562 95.0169074,478.649843 C94.1826075,478.228818 93.3483076,477.7922 92.5218049,477.355581 C82.9156839,472.293761 73.9036766,466.177132 65.6526692,459.118963 C39.1422046,436.329038 22.7057165,404.845726 22.7057165,370.072183 C7.83447511,347.173967 -0.0544828891,320.444576 0,293.141566 C0,215.844501 61.7852603,153.181953 138.010643,153.181953 C140.349802,153.181953 142.688961,153.252123 145.028119,153.376872 C145.363399,153.376872 145.690881,153.376872 146.02616,153.423652 C158.875938,131.522557 176.05316,111.399123 196.707931,93.6848877 C253.034871,45.422952 335.357661,15 427.060477,15 C504.112363,15 574.54443,36.4800699 628.493225,71.970915 C648.93637,60.415233 672.026724,54.3575447 695.510121,54.3892244 C771.719909,54.3892244 833.520481,117.051773 833.520481,194.348838 C833.509134,199.239675 833.248891,204.126765 832.740761,208.991151 C870.021004,235.379811 892.12748,278.258153 892,323.930966 Z" id="Path" fill="#F15A24" opacity="0.1"></path>
            <g id="Group" opacity="0.2" transform="translate(62.000000, 273.000000)">
                <path d="M46.1766667,210.2775 C46.1766667,210.636029 46.1377778,210.986765 46.0988889,211.329706 C43.132963,210.155392 40.2240741,208.892745 37.3722222,207.541765 C35.8487361,207.340993 34.4318322,206.648836 33.3355556,205.569853 C32.5033333,205.148971 31.6711111,204.7125 30.8466667,204.276029 C31.0333502,203.884215 31.243742,203.504194 31.4766667,203.138088 C33.0788889,200.597206 35.5133333,199.007206 38.1966667,199.092941 C40.88,199.178676 43.2055556,200.916765 44.6444444,203.543382 C45.7449031,205.611152 46.2738955,207.936073 46.1766667,210.2775 L46.1766667,210.2775 Z" id="Path" fill="#3F3D56"></path>
                <path d="M46.5966667,196.933971 C46.5436417,199.271817 45.869773,201.553256 44.6444444,203.543382 C43.0422222,206.076471 40.6077778,207.666471 37.9244444,207.580735 L37.3722222,207.541765 C35.8487361,207.340993 34.4318322,206.648836 33.3355556,205.569853 C32.5921344,204.862299 31.9647893,204.041618 31.4766667,203.138088 C29.294149,198.919109 29.4531588,193.867318 31.8966667,189.794559 C33.4988889,187.253676 35.9333333,185.663676 38.6166667,185.749412 C41.3,185.835147 43.6255556,187.573235 45.0644444,190.199853 C46.1649031,192.267622 46.6938955,194.592544 46.5966667,196.933971 Z" id="Path" fill="#3F3D56"></path>
                <ellipse id="Oval" fill="#3F3D56" transform="translate(38.701137, 183.350610) rotate(-88.190000) translate(-38.701137, -183.350610) " cx="38.7011375" cy="183.35061" rx="10.919536" ry="8.32223966"></ellipse>
                <ellipse id="Oval" fill="#3F3D56" transform="translate(39.117714, 170.006715) rotate(-88.190000) translate(-39.117714, -170.006715) " cx="39.1177136" cy="170.006715" rx="10.919536" ry="8.32223966"></ellipse>
                <ellipse id="Oval" fill="#3F3D56" transform="translate(39.600478, 155.795916) rotate(-88.281642) translate(-39.600478, -155.795916) " cx="39.6004778" cy="155.795916" rx="10.9244509" ry="8.32598211"></ellipse>
                <path d="M11.2544444,64.3404412 C10.1591456,62.8543019 9.17143521,61.2914828 8.29888889,59.6639706 L30.2788889,56.7567647 L6.61888889,56.1877941 C2.35168445,46.0448756 2.43888609,34.5890052 6.86,24.5125 L38.0644444,42.0102941 L9.48111111,19.5242647 C17.3409395,6.78518413 31.6484314,-0.481241339 46.5479062,0.698945384 C61.4473809,1.87913211 74.437991,11.307839 80.203021,25.126144 C85.9680511,38.944449 83.5398521,54.8329769 73.9122222,66.2889706 C75.6141918,68.6016683 77.0615006,71.0920881 78.2288889,73.7167647 L49.3811111,87.5980882 L79.9711111,78.3776471 C83.8848611,91.3185299 81.011863,105.364814 72.3333333,115.719265 C84.6767976,132.501733 82.0741176,155.97292 66.3552069,169.630512 C50.6362962,183.288103 27.081857,182.543888 12.2527369,167.921115 C-2.57638313,153.298343 -3.69840329,129.709472 9.67555556,113.739559 C-1.24531367,98.8869236 -0.602505398,78.4735343 11.2311111,64.3404412 L11.2544444,64.3404412 Z" id="Path" fill="#F15A24"></path>
                <path d="M81.6668568,91.2925 C81.390792,100.255982 78.1019598,108.86336 72.3333333,115.719265 C84.6767976,132.501733 82.0741176,155.97292 66.3552069,169.630512 C50.6362962,183.288103 27.081857,182.543888 12.2527369,167.921115 C-2.57638313,153.298343 -3.69840329,129.709472 9.67555556,113.739559 C4.56555556,106.779412 81.8066667,86.8030882 81.6668568,91.2925 Z" id="Path" fill="#000000" opacity="0.1"></path>
            </g>
            <ellipse id="Oval" fill="#F15A24" opacity="0.1" cx="620" cy="536" rx="115" ry="8"></ellipse>
            <circle id="Oval" fill="#F15A24" opacity="0.1" cx="55" cy="110" r="17"></circle>
            <circle id="Oval" fill="#F15A24" opacity="0.1" cx="125" cy="17" r="17"></circle>
            <circle id="Oval" fill="#F15A24" opacity="0.1" cx="119.5" cy="80.5" r="28.5"></circle>
            <ellipse id="Oval" fill="#F15A24" cx="761.5" cy="514" rx="26.5" ry="5"></ellipse>
            <ellipse id="Oval" fill="#3F3D56" cx="762" cy="512" rx="3" ry="4"></ellipse>
            <ellipse id="Oval" fill="#3F3D56" cx="762" cy="507" rx="3" ry="4"></ellipse>
            <ellipse id="Oval" fill="#3F3D56" cx="762" cy="502" rx="3" ry="4"></ellipse>
            <ellipse id="Oval" fill="#3F3D56" cx="762" cy="497" rx="3" ry="4"></ellipse>
            <ellipse id="Oval" fill="#3F3D56" cx="762" cy="492" rx="3" ry="4"></ellipse>
            <ellipse id="Oval" fill="#3F3D56" cx="762" cy="487" rx="3" ry="4"></ellipse>
            <ellipse id="Oval" fill="#3F3D56" cx="762" cy="482" rx="3" ry="4"></ellipse>
            <path d="M750.205019,448.915559 C749.777762,448.379618 749.389076,447.814955 749.0418,447.225693 L757.255546,445.894049 L748.369191,445.964135 C746.649863,442.273787 746.546864,438.050309 748.084321,434.28304 L760.009288,440.364997 L749.010148,432.414064 C751.806775,427.613032 757.098921,424.756587 762.715968,425.016323 C768.333014,425.276059 773.329683,428.608267 775.656549,433.646213 C777.983414,438.684158 777.248893,444.58002 773.754256,448.915559 C774.423526,449.745922 774.996796,450.647021 775.463474,451.602211 L764.796683,457.053389 L776.175649,453.299863 C776.697627,454.822984 776.964872,456.419402 776.966954,458.026813 C776.971111,461.335973 775.838987,464.549438 773.754256,467.145855 C778.583632,473.189408 777.88232,481.870779 772.143299,487.087477 C766.404278,492.304174 757.554996,492.304174 751.815975,487.087477 C746.076955,481.870779 745.375642,473.189408 750.205019,467.145855 C745.93213,461.796547 745.93213,454.264867 750.205019,448.915559 L750.205019,448.915559 Z" id="Path" fill="#F15A24"></path>
            <path d="M777,457.215047 C777.004151,460.505316 775.870778,463.700436 773.783749,466.282031 C778.618449,472.291083 777.916363,480.922895 772.171016,486.109812 C766.425669,491.296729 757.566632,491.296729 751.821284,486.109812 C746.075937,480.922895 745.373851,472.291083 750.208552,466.282031 C748.196422,463.788804 777,455.573544 777,457.215047 Z" id="Path" fill="#000000" opacity="0.1"></path>
            <ellipse id="Oval" fill="#F15A24" cx="813" cy="457.5" rx="18" ry="3.5"></ellipse>
            <ellipse id="Oval" fill="#3F3D56" cx="814" cy="455.5" rx="2" ry="2.5"></ellipse>
            <ellipse id="Oval" fill="#3F3D56" cx="814" cy="452.5" rx="2" ry="2.5"></ellipse>
            <ellipse id="Oval" fill="#3F3D56" cx="814" cy="449.5" rx="2" ry="2.5"></ellipse>
            <ellipse id="Oval" fill="#3F3D56" cx="814" cy="445.5" rx="2" ry="2.5"></ellipse>
            <ellipse id="Oval" fill="#3F3D56" cx="814" cy="442.5" rx="2" ry="2.5"></ellipse>
            <ellipse id="Oval" fill="#3F3D56" cx="814" cy="439.5" rx="2" ry="2.5"></ellipse>
            <ellipse id="Oval" fill="#3F3D56" cx="814" cy="436.5" rx="2" ry="2.5"></ellipse>
            <path d="M806.153451,413.308526 C805.862166,412.946848 805.600313,412.562142 805.370433,412.158142 L810.851559,411.252017 L804.939773,411.299293 C804.334796,409.985791 804.022136,408.5552 804.023642,407.10748 C804.022759,405.81984 804.267302,404.543978 804.744019,403.349031 L812.683821,407.493568 L805.362603,402.080457 C807.21421,398.79668 810.741428,396.837361 814.489473,397.010611 C818.237518,397.183861 821.571377,399.460328 823.116015,402.901092 C824.660653,406.341857 824.15437,410.363969 821.805981,413.308526 C822.249457,413.874444 822.630173,414.487415 822.941357,415.136535 L815.847214,418.847707 L823.411168,416.28692 C824.499525,419.509015 823.895605,423.066355 821.805981,425.742136 C825.032445,429.855289 824.572023,435.773806 820.748807,439.331631 C816.92559,442.889456 811.026011,442.889456 807.202795,439.331631 C803.379578,435.773806 802.919156,429.855289 806.145621,425.742136 C803.295791,422.105431 803.295791,416.976749 806.145621,413.340044 L806.153451,413.308526 Z" id="Path" fill="#F15A24"></path>
            <path d="M823.98415,420.144115 C823.9857,422.332656 823.233731,424.458111 821.849174,426.178662 C825.083466,430.181376 824.621927,435.94098 820.789436,439.403277 C816.956945,442.865574 811.043055,442.865574 807.210564,439.403277 C803.378073,435.94098 802.916534,430.181376 806.150826,426.178662 C804.800768,424.514753 823.98415,419.047621 823.98415,420.144115 Z" id="Path" fill="#000000" opacity="0.1"></path>
        </g>
    </g>
</svg>