<?xml version="1.0" encoding="UTF-8"?>
<svg width="925px" height="698px" viewBox="0 0 925 698" version="1.1" xmlns="http://www.w3.org/2000/svg" xmlns:xlink="http://www.w3.org/1999/xlink">
    <title>backgrounds/5</title>
    <g id="backgrounds/5" stroke="none" stroke-width="1" fill="none" fill-rule="evenodd">
        <g id="undraw_mobile_testing_reah">
            <path d="M414.03,195.83 C377.91,184.14 339.72,174.34 300.69,175.35 C243.31,176.84 188.14,203.58 160.93,243.1 C137.93,276.59 134.86,315.95 124.82,353.19 C112.45,399.07 88.97,442.61 63.91,485.19 C50.45,508.06 36.25,531.41 33.91,556.54 C30.7,591.43 51.84,626.31 85.17,649.69 C118.5,673.07 162.85,685.53 207.41,688.44 C231.12,689.98 255.9,688.79 277.01,680.25 C299.34,671.25 315.67,654.78 338.09,645.88 C358.87,637.64 383.09,636.58 406.4,637.79 C436.587864,639.317064 466.485775,644.439926 495.46,653.05 C527.95,662.77 558.14,676.76 590.56,686.62 C622.98,696.48 659.22,702.06 692.44,694.13 C723.63,686.69 748.37,668.35 770.68,649.77 C806.632353,619.904637 840.06217,587.127027 870.63,551.77 C890.78,528.38 909.55,503.68 918.55,476.35 C935.74,424.09 912.71,364.92 861.18,328.93 C818.49,299.1 761.06,285.93 704.82,277.93 C653.53,270.56 594.19,269.83 547.05,251.06 C502.09,233.11 461.19,211.09 414.03,195.83 Z" id="Path" fill="#F15A24" fill-rule="nonzero" opacity="0.1"></path>
            <ellipse id="Oval" fill="#F15A24" fill-rule="nonzero" opacity="0.1" cx="874.45" cy="370.75" rx="23.11" ry="3.17"></ellipse>
            <ellipse id="Oval" fill="#F15A24" fill-rule="nonzero" opacity="0.1" cx="785.92" cy="379.73" rx="23.11" ry="3.17"></ellipse>
            <ellipse id="Oval" fill="#F15A24" fill-rule="nonzero" opacity="0.1" cx="681.64" cy="367.58" rx="23.11" ry="3.17"></ellipse>
            <ellipse id="Oval" fill="#F15A24" fill-rule="nonzero" opacity="0.1" cx="821.35" cy="405.29" rx="16.43" ry="2.26"></ellipse>
            <ellipse id="Oval" fill="#F15A24" fill-rule="nonzero" opacity="0.1" cx="729.47" cy="403.03" rx="16.43" ry="2.26"></ellipse>
            <path d="M785.42,379.01 C785.42,379.01 817.84,272.75 780.35,230.19 C752.35,198.35 720.47,202.19 706.22,206.1 C698.754193,208.086753 692.538267,213.253284 689.22,220.23 C684.22,230.98 685.14,248.43 720.32,268.8 C779.23,302.91 782.9,349.7 782.9,349.7 L785.42,379.01 Z" id="Path" fill="#F15A24" fill-rule="nonzero"></path>
            <path d="M711.29,221.17 C711.29,221.17 806.85,251.05 785.42,379.01" id="Path" stroke="#565987"></path>
            <path d="M767.09,231.88 C767.09,231.88 753.93,240.75 758.09,254.07" id="Path" stroke="#565987"></path>
            <path d="M720.88,239.77 C720.88,239.77 728.88,231.59 738.71,236.1" id="Path" stroke="#565987"></path>
            <path d="M758.65,280.92 C758.65,280.92 772.77,273.76 776.42,282.73" id="Path" stroke="#565987"></path>
            <path d="M793.6,295.86 C793.6,295.86 782.99,295.02 782.8,300.09" id="Path" stroke="#565987"></path>
            <path d="M786.73,379.86 C786.73,379.86 748.73,302.63 738.34,304.32 C733.34,305.12 731.1,310 730.07,314.89 C728.790164,321.219538 729.513674,327.790555 732.14,333.69 C737.53,346.05 752,369.52 786.73,379.86 Z" id="Path" fill="#F15A24" fill-rule="nonzero"></path>
            <path d="M738.62,318.98 C738.62,318.98 778.47,376.76 786.17,379.3" id="Path" stroke="#565987"></path>
            <line x1="734.96" y1="328" x2="744.26" y2="328" id="Path" stroke="#565987"></line>
            <line x1="746.1" y1="349.14" x2="760.68" y2="349.76" id="Path" stroke="#565987"></line>
            <line x1="754.97" y1="332.23" x2="753.39" y2="339.82" id="Path" stroke="#565987"></line>
            <line x1="770.47" y1="355.34" x2="770.19" y2="362.24" id="Path" stroke="#565987"></line>
            <path d="M785.61,379.86 C785.61,379.86 823.61,302.63 834,304.32 C839,305.12 841.24,310 842.27,314.89 C843.549836,321.219538 842.826326,327.790555 840.2,333.69 C834.81,346.05 820.34,369.52 785.61,379.86 Z" id="Path" fill="#F15A24" fill-rule="nonzero"></path>
            <path d="M833.72,318.98 C833.72,318.98 793.87,376.76 786.17,379.3" id="Path" stroke="#565987"></path>
            <line x1="837.38" y1="328" x2="828.08" y2="328" id="Path" stroke="#565987"></line>
            <line x1="826.24" y1="349.14" x2="811.66" y2="349.76" id="Path" stroke="#565987"></line>
            <line x1="817.37" y1="332.23" x2="818.95" y2="339.82" id="Path" stroke="#565987"></line>
            <line x1="801.86" y1="355.34" x2="802.15" y2="362.24" id="Path" stroke="#565987"></line>
            <path d="M720.42,397.9 C719.389071,397.054802 718.636422,395.918859 718.26,394.64 C717.916083,393.312887 718.545097,391.925726 719.77,391.31 C721.16,390.78 722.64,391.74 723.77,392.72 C724.9,393.7 726.18,394.79 727.65,394.59 C726.11453,393.194035 725.423716,391.095023 725.83,389.06 C725.891447,388.645058 726.064243,388.254539 726.33,387.93 C727.1,387.11 728.5,387.47 729.42,388.11 C732.35,390.18 733.17,394.16 733.19,397.74 C733.333013,396.410502 733.333013,395.069498 733.19,393.74 C733.073957,392.395319 733.632069,391.080572 734.68,390.23 C735.37446,389.849457 736.158574,389.662927 736.95,389.69 C738.273184,389.50179 739.614131,389.88336 740.64,390.74 C741.75,391.94 741.46,393.95 740.49,395.27 C739.398987,396.478473 738.110672,397.492894 736.68,398.27 C735.584333,398.918065 734.650709,399.80723 733.95,400.87 C733.871363,401.017846 733.80449,401.171655 733.75,401.33 L725.49,401.33 C723.653383,400.419969 721.94799,399.266222 720.42,397.9 L720.42,397.9 Z" id="Path" fill="#F15A24" fill-rule="nonzero"></path>
            <path d="M865.09,366.79 C864.054835,365.948637 863.301238,364.811265 862.93,363.53 C862.58733,362.205708 863.216651,360.822037 864.44,360.21 C865.83,359.68 867.31,360.64 868.44,361.61 C869.57,362.58 870.86,363.69 872.33,363.48 C870.787417,362.088405 870.09204,359.987073 870.5,357.95 C870.560528,357.535909 870.737386,357.147516 871.01,356.83 C871.78,356.01 873.17,356.36 874.09,357.01 C877.02,359.07 877.84,363.01 877.86,366.64 C878.007373,365.310739 878.007373,363.969261 877.86,362.64 C877.743957,361.295319 878.302069,359.980572 879.35,359.13 C880.047807,358.759215 880.830148,358.576554 881.62,358.6 C882.936273,358.392831 884.278445,358.756563 885.31,359.6 C886.43,360.79 886.14,362.8 885.16,364.12 C884.076089,365.35221 882.787059,366.387494 881.35,367.18 C880.254333,367.828065 879.320709,368.71723 878.62,369.78 C878.537771,369.926087 878.470754,370.080228 878.42,370.24 L870.16,370.24 C868.323881,369.32095 866.618794,368.160684 865.09,366.79 L865.09,366.79 Z" id="Path" fill="#F15A24" fill-rule="nonzero"></path>
            <path d="M816.87,397.9 C815.839071,397.054802 815.086422,395.918859 814.71,394.64 C814.366083,393.312887 814.995097,391.925726 816.22,391.31 C817.61,390.78 819.09,391.74 820.22,392.72 C821.35,393.7 822.63,394.79 824.1,394.59 C822.562601,393.195028 821.868215,391.096692 822.27,389.06 C822.339439,388.645573 822.515158,388.256236 822.78,387.93 C823.55,387.11 824.95,387.47 825.87,388.11 C828.8,390.18 829.62,394.16 829.64,397.74 C829.799643,396.41229 829.816405,395.071286 829.69,393.74 C829.573957,392.395319 830.132069,391.080572 831.18,390.23 C831.87446,389.849457 832.658574,389.662927 833.45,389.69 C834.773184,389.50179 836.114131,389.88336 837.14,390.74 C838.25,391.94 837.96,393.95 836.99,395.27 C835.898987,396.478473 834.610672,397.492894 833.18,398.27 C832.084333,398.918065 831.150709,399.80723 830.45,400.87 C830.371363,401.017846 830.30449,401.171655 830.25,401.33 L821.99,401.33 C820.135844,400.423865 818.413419,399.269975 816.87,397.9 L816.87,397.9 Z" id="Path" fill="#F15A24" fill-rule="nonzero"></path>
            <path d="M680.14,335.02 C680.14,335.02 677.04,339.07 681.57,345.18 C686.1,351.29 689.82,356.46 688.32,360.27 C688.32,360.27 681.49,348.92 675.93,348.76 C670.37,348.6 674.02,341.85 680.14,335.02 Z" id="Path" fill="#F15A24" fill-rule="nonzero"></path>
            <path d="M680.14,335.02 C679.865919,335.409884 679.650306,335.837741 679.5,336.29 C674.08,342.66 671.19,348.61 676.4,348.76 C681.26,348.9 687.09,357.58 688.48,359.76 C688.48,359.93 688.38,360.1 688.32,360.26 C688.32,360.26 681.49,348.91 675.93,348.75 C670.37,348.59 674.02,341.85 680.14,335.02 Z" id="Path" fill="#000000" fill-rule="nonzero" opacity="0.1"></path>
            <path d="M674.38,340.18 C674.38,341.61 674.54,342.76 674.74,342.76 C674.94,342.76 675.09,341.61 675.09,340.18 C675.09,338.75 674.89,339.43 674.7,339.43 C674.51,339.43 674.38,338.76 674.38,340.18 Z" id="Path" fill="#FFD037" fill-rule="nonzero"></path>
            <path d="M672.4,341.88 C673.65,342.57 674.75,342.98 674.84,342.81 C674.93,342.64 674,341.94 672.75,341.26 C671.5,340.58 671.99,341.07 671.89,341.26 C671.79,341.45 671.15,341.2 672.4,341.88 Z" id="Path" fill="#FFD037" fill-rule="nonzero"></path>
            <path d="M696.49,335.02 C696.49,335.02 699.59,339.07 695.06,345.18 C690.53,351.29 686.81,356.46 688.32,360.27 C688.32,360.27 695.14,348.92 700.7,348.76 C706.26,348.6 702.61,341.85 696.49,335.02 Z" id="Path" fill="#F15A24" fill-rule="nonzero"></path>
            <path d="M696.49,335.02 C696.764081,335.409884 696.979694,335.837741 697.13,336.29 C702.55,342.66 705.44,348.61 700.23,348.76 C695.37,348.9 689.54,357.58 688.15,359.76 C688.196122,359.930068 688.252901,360.097065 688.32,360.26 C688.32,360.26 695.14,348.91 700.7,348.75 C706.26,348.59 702.61,341.85 696.49,335.02 Z" id="Path" fill="#000000" fill-rule="nonzero" opacity="0.1"></path>
            <path d="M702.25,340.18 C702.25,341.61 702.09,342.76 701.89,342.76 C701.69,342.76 701.54,341.61 701.54,340.18 C701.54,338.75 701.74,339.43 701.93,339.43 C702.12,339.43 702.25,338.76 702.25,340.18 Z" id="Path" fill="#FFD037" fill-rule="nonzero"></path>
            <path d="M704.23,341.88 C702.98,342.57 701.88,342.98 701.79,342.81 C701.7,342.64 702.63,341.94 703.88,341.26 C705.13,340.58 704.64,341.07 704.74,341.26 C704.84,341.45 705.48,341.2 704.23,341.88 Z" id="Path" fill="#FFD037" fill-rule="nonzero"></path>
            <path d="M701.26,359.74 C701.26,359.74 692.61,359.48 690,357.62 C687.39,355.76 676.68,353.54 676,356.52 C675.32,359.5 663,371.34 672.76,371.42 C682.52,371.5 695.48,369.9 698.08,368.31 C700.68,366.72 701.26,359.74 701.26,359.74 Z" id="Path" fill="#A8A8A8" fill-rule="nonzero"></path>
            <path d="M672.62,370.38 C682.39,370.46 695.33,368.86 697.94,367.27 C699.94,366.07 700.71,361.73 700.94,359.73 L701.22,359.73 C701.22,359.73 700.68,366.73 698.07,368.3 C695.46,369.87 682.53,371.49 672.75,371.41 C669.93,371.41 668.96,370.41 669.01,368.9 C669.44,369.81 670.52,370.37 672.62,370.38 Z" id="Path" fill="#000000" fill-rule="nonzero" opacity="0.2"></path>
            <circle id="Oval" fill="#F15A24" fill-rule="nonzero" opacity="0.1" cx="214.99" cy="43.52" r="21.63"></circle>
            <circle id="Oval" fill="#F15A24" fill-rule="nonzero" opacity="0.1" cx="518.1" cy="65.38" r="21.63"></circle>
            <circle id="Oval" fill="#F15A24" fill-rule="nonzero" opacity="0.1" cx="688.25" cy="21.83" r="21.63"></circle>
            <circle id="Oval" fill="#F15A24" fill-rule="nonzero" opacity="0.1" cx="36.25" cy="137.85" r="36.25"></circle>
            <circle id="Oval" fill="#F15A24" fill-rule="nonzero" opacity="0.1" cx="71" cy="316.85" r="36.25"></circle>
            <circle id="Oval" fill="#F15A24" fill-rule="nonzero" opacity="0.1" cx="749.92" cy="158.96" r="36.25"></circle>
        </g>
    </g>
</svg>