<?xml version="1.0" encoding="UTF-8"?>
<svg width="400px" height="400px" viewBox="0 0 400 400" version="1.1" xmlns="http://www.w3.org/2000/svg" xmlns:xlink="http://www.w3.org/1999/xlink">
    <title>graphics/arrow-curly-gray</title>
    <g id="graphics/arrow-curly-gray" stroke="none" stroke-width="1" fill="none" fill-rule="evenodd">
        <g id="Outlines" transform="translate(28.324219, 26.593187)" fill="#F4F4F4" fill-rule="nonzero">
            <path d="M0,103.975932 C18.1757041,103.975932 35.955653,104.540096 53.47463,105.631776 C57.8843547,105.906564 61.6819026,102.554535 61.9566906,98.1448106 C62.2314787,93.7350859 58.8794502,89.937538 54.4697255,89.6627499 C36.6225991,88.5506222 18.5109218,87.9759322 0,87.9759322 C-4.418278,87.9759322 -8,91.5576542 -8,95.9759322 C-8,100.39421 -4.418278,103.975932 0,103.975932 Z M89.0075778,108.592216 C106.770053,110.443751 124.207524,112.809836 142.066326,115.713761 C146.427327,116.42288 150.537471,113.462445 151.246591,109.101444 C151.95571,104.740443 148.995275,100.630298 144.634274,99.9211791 C126.48487,96.9700008 108.746356,94.5630676 90.6664074,92.6784392 C86.2719393,92.2203661 82.3381774,95.4114446 81.8801043,99.8059127 C81.4220311,104.200381 84.6131097,108.134143 89.0075778,108.592216 Z M177.301523,121.989986 L187.669698,124.020817 L222.950873,130.980046 L229.437183,132.230265 L230.336737,132.398876 C234.680629,133.206209 238.856522,130.339262 239.663854,125.99537 C240.471187,121.651479 237.60424,117.475586 233.260349,116.668253 L229.706458,115.992379 L217.498733,113.606095 L182.551303,106.708993 L180.309322,106.275243 C175.969816,105.444662 171.778632,108.289208 170.948051,112.628715 C170.11747,116.968221 172.962016,121.159405 177.301523,121.989986 Z M266.699618,137.751724 L267.520145,137.82118 L269.14623,137.948691 C269.41559,137.96867 269.684127,137.988013 269.951845,138.006715 L271.548373,138.111222 L273.125494,138.20024 L274.683447,138.273645 C295.32941,139.147741 310.927103,135.825436 324.013661,126.990341 C327.675528,124.518113 328.639921,119.545447 326.167694,115.88358 C323.695466,112.221712 318.7228,111.257319 315.060933,113.729546 C305.362834,120.277001 293.222767,122.941091 276.222306,122.322663 L274.794298,122.263542 C274.314511,122.241311 273.830921,122.216559 273.343477,122.189301 L271.869533,122.100018 L270.372153,121.99577 C270.12062,121.977152 269.868097,121.957915 269.614579,121.938058 L268.081464,121.811507 C263.679694,121.429921 259.802019,124.688923 259.420433,129.090693 C259.038846,133.492462 262.297849,137.370138 266.699618,137.751724 Z M349.807009,97.104922 C360.59334,77.5079704 362.784598,56.87867 356.560591,38.5215124 C355.141897,34.3371981 350.599761,32.0952204 346.415446,33.513915 C342.231132,34.9326096 339.989154,39.4747458 341.407849,43.6590601 C346.155367,57.6614435 344.457946,73.6415748 335.789974,89.3898251 C333.659508,93.2605225 335.070245,98.125426 338.940943,100.255891 C342.81164,102.386356 347.676544,100.975619 349.807009,97.104922 Z M332.339727,6.17313662 C319.517266,-3.0152862 303.459394,-8 285.95728,-8 C282.38156,-8 278.799035,-7.74685079 275.240223,-7.24228112 C270.865694,-6.62205871 267.822227,-2.5730126 268.44245,1.80151647 C269.062672,6.17604555 273.111718,9.21951243 277.486247,8.59929001 C280.301689,8.20011554 283.133691,8 285.95728,8 C299.920568,8 312.512153,11.8326586 322.488178,18.8023226 L323.020099,19.1786945 C326.611485,21.7522387 331.609148,20.9271152 334.182692,17.3357295 C336.756236,13.7443439 335.931113,8.74668081 332.339727,6.17313662 Z M238.643508,8.27493471 C223.617241,19.9447063 212.930439,36.9924351 208.140259,58.0505447 C207.16025,62.358765 209.858298,66.6457222 214.166518,67.6257317 C218.474738,68.6057412 222.761696,65.9076933 223.741705,61.599473 C227.720084,44.1101196 236.385388,30.2871114 248.457477,20.9116279 C251.947004,18.2015753 252.578892,13.1758234 249.86884,9.68629692 C247.158787,6.19677044 242.133035,5.56488205 238.643508,8.27493471 Z M205.761013,96.3031573 C207.111527,113.173409 211.34252,131.408691 218.562616,150.861676 C220.100009,155.003849 224.704208,157.115441 228.846382,155.578048 C232.988555,154.040654 235.100147,149.436455 233.562753,145.294282 C226.836941,127.173038 222.938308,110.370202 221.70999,95.0263939 C221.357421,90.6222054 217.501308,87.3377185 213.09712,87.690287 C208.692931,88.0428555 205.408444,91.8989689 205.761013,96.3031573 Z M230.166337,183.676856 C231.391184,189.182761 232.386587,195.229667 233.150294,201.814957 L233.362189,203.711115 C233.499247,204.984985 233.627891,206.278379 233.748105,207.591278 L233.922103,209.575255 C234.033884,210.907656 234.137227,212.259554 234.232118,213.630931 L234.368112,215.702604 C234.476155,217.441168 234.570977,219.210154 234.65255,221.009526 L234.744074,223.183356 C234.758268,223.548092 234.771931,223.914042 234.785063,224.281206 L234.857486,226.498767 L234.917159,228.745465 C234.934924,229.499219 234.950562,230.257827 234.964071,231.021286 L234.99821,233.326217 C235.00746,234.099378 235.014579,234.877387 235.019565,235.660244 C235.047706,240.078433 238.652168,243.637269 243.070356,243.609458 C247.488545,243.580988 251.047381,239.976526 251.019241,235.558338 C250.880386,213.757729 249.147557,195.319784 245.784542,180.202423 C244.825104,175.889575 240.551071,173.171099 236.238223,174.130537 C231.925375,175.089976 229.206899,179.364008 230.166337,183.676856 Z M233.987809,271.117209 C233.568679,278.166495 233.022907,285.496579 232.350417,293.10718 L232.031039,296.639682 C231.647933,300.784171 231.228083,305.00998 230.771477,309.317066 L230.371099,313.028758 C230.234639,314.272623 230.095178,315.523122 229.952716,316.780253 L229.516327,320.571545 C229.367863,321.841941 229.216397,323.118969 229.06193,324.402628 C228.534071,328.78926 231.662225,332.773243 236.048858,333.301102 C240.435491,333.828961 244.419473,330.700806 244.947332,326.314174 L245.409023,322.421486 C246.389623,314.030104 247.241976,305.916753 247.966004,298.081153 L248.291059,294.484442 C248.764973,289.118957 249.177377,283.886573 249.528246,278.787199 L249.753042,275.40732 C249.824935,274.287262 249.893788,273.173771 249.959603,272.066846 C250.221838,267.656357 246.859014,263.868365 242.448525,263.60613 C238.038036,263.343895 234.250044,266.70672 233.987809,271.117209 Z" id="Path"></path>
            <path d="M204.212249,297.013585 C207.740571,294.5069 212.605074,295.267041 215.207572,298.684889 L215.36725,298.90196 L238.454,331.399 L267.881737,298.226444 C270.752639,294.990058 275.66024,294.632524 278.966418,297.371559 L279.175241,297.550598 C282.411626,300.421501 282.769161,305.329101 280.030126,308.635279 L279.851087,308.844102 L243.746268,349.545279 C240.391771,353.326824 234.438148,353.076009 231.402556,349.090838 L231.239905,348.869764 L202.323875,308.168586 C199.764967,304.566758 200.610421,299.572494 204.212249,297.013585 Z" id="Path-2"></path>
        </g>
    </g>
</svg>