<?xml version="1.0" encoding="UTF-8"?>
<svg width="400px" height="400px" viewBox="0 0 400 400" version="1.1" xmlns="http://www.w3.org/2000/svg" xmlns:xlink="http://www.w3.org/1999/xlink">
    <title>graphics/arrow-simple-orange</title>
    <g id="graphics/arrow-simple-orange" stroke="none" stroke-width="1" fill="none" fill-rule="evenodd">
        <g id="Outlines" transform="translate(19.652344, 20.875000)" fill="#FFEFEA" fill-rule="nonzero">
            <path d="M8.34765625,16.125 C26.1236136,16.125 43.6411387,17.5985621 60.7544791,20.5166663 C65.1098922,21.2593354 69.2427044,18.3306278 69.9853735,13.9752147 C70.7280426,9.61980162 67.7993349,5.48698944 63.4439218,4.74432034 C45.4393296,1.67424316 27.0221179,0.125 8.34765625,0.125 C3.92937825,0.125 0.34765625,3.706722 0.34765625,8.125 C0.34765625,12.543278 3.92937825,16.125 8.34765625,16.125 Z M94.9064665,28.4201565 C111.831237,33.4073572 128.150266,39.8740373 143.701261,47.7497461 C147.642877,49.7459538 152.456434,48.168889 154.452642,44.2272732 C156.44885,40.2856573 154.871785,35.4721003 150.930169,33.4758926 C134.509653,25.1598205 117.284597,18.334112 99.4289114,13.0725999 C95.1908007,11.8237612 90.7427494,14.247045 89.4939107,18.4851557 C88.245072,22.7232664 90.6683558,27.1713178 94.9064665,28.4201565 Z M173.882964,65.4614811 C188.402956,75.2426304 201.973601,86.3569104 214.45292,98.6995659 C217.594268,101.806512 222.659511,101.778624 225.766458,98.637276 C228.873404,95.4959282 228.845516,90.4306851 225.704168,87.323739 C212.514409,74.2784246 198.169588,62.5300989 182.822066,52.1914978 C179.157662,49.7230329 174.185989,50.6925337 171.717524,54.3569384 C169.249059,58.0213431 170.21856,62.9930162 173.882964,65.4614811 Z M237.81589,124.865965 C248.566499,138.515657 258.140131,153.228117 266.4405,168.893612 C268.509096,172.797725 273.350932,174.285705 277.255044,172.21711 C281.159157,170.148514 282.647137,165.306678 280.578542,161.402565 C271.829443,144.890171 261.73111,129.371368 250.38541,114.966108 C247.651639,111.495131 242.621698,110.897507 239.150721,113.631277 C235.679744,116.365047 235.08212,121.394988 237.81589,124.865965 Z M281.014707,200.691593 C287.313945,216.780435 292.380781,233.626978 296.162146,251.142161 C297.09453,255.460939 301.351437,258.206153 305.670215,257.273769 C309.988992,256.341386 312.734207,252.084478 311.801823,247.7657 C307.840495,229.41693 302.526522,211.74869 295.913459,194.858309 C294.302642,190.744133 289.661618,188.714759 285.547441,190.325575 C281.433265,191.936392 279.403891,196.577416 281.014707,200.691593 Z M301.869611,285.923266 C303.829212,303.059068 304.633819,320.692724 304.257695,338.762209 C304.165747,343.17953 307.672154,346.835015 312.089475,346.926964 C316.506797,347.018912 320.162282,343.512504 320.25423,339.095183 C320.645206,320.312205 319.807815,301.960081 317.766006,284.105401 C317.264016,279.715733 313.298544,276.564147 308.908876,277.066136 C304.519208,277.568126 301.367622,281.533598 301.869611,285.923266 Z" id="Path"></path>
            <path d="M278.598972,303.686833 C282.082108,301.11773 286.959373,301.791148 289.622306,305.162122 L289.785823,305.376315 L314.271,338.573 L345.463004,304.70551 C348.393749,301.523215 353.307163,301.257244 356.561698,304.057446 L356.767146,304.240348 C359.949441,307.171093 360.215412,312.084507 357.41521,315.339041 L357.232308,315.54449 L319.473225,356.54449 C316.129291,360.175437 310.349596,359.930141 307.316076,356.090684 L307.150405,355.873685 L276.909489,314.873685 C274.286863,311.317983 275.04327,306.309459 278.598972,303.686833 Z" id="Path-2"></path>
        </g>
    </g>
</svg>