<?xml version="1.0" encoding="UTF-8"?>
<svg width="400px" height="400px" viewBox="0 0 400 400" version="1.1" xmlns="http://www.w3.org/2000/svg" xmlns:xlink="http://www.w3.org/1999/xlink">
    <title>graphics/arrow-curly-orange</title>
    <g id="graphics/arrow-curly-orange" stroke="none" stroke-width="1" fill="none" fill-rule="evenodd">
        <g id="Outlines" transform="translate(20.324219, 18.593187)" fill="#FFEFEA" fill-rule="nonzero">
            <path d="M8,111.975932 C26.1757041,111.975932 43.955653,112.540096 61.47463,113.631776 C65.8843547,113.906564 69.6819026,110.554535 69.9566906,106.144811 C70.2314787,101.735086 66.8794502,97.937538 62.4697255,97.6627499 C44.6225991,96.5506222 26.5109218,95.9759322 8,95.9759322 C3.581722,95.9759322 0,99.5576542 0,103.975932 C0,108.39421 3.581722,111.975932 8,111.975932 Z M97.0075778,116.592216 C114.770053,118.443751 132.207524,120.809836 150.066326,123.713761 C154.427327,124.42288 158.537471,121.462445 159.246591,117.101444 C159.95571,112.740443 156.995275,108.630298 152.634274,107.921179 C134.48487,104.970001 116.746356,102.563068 98.6664074,100.678439 C94.2719393,100.220366 90.3381774,103.411445 89.8801043,107.805913 C89.4220311,112.200381 92.6131097,116.134143 97.0075778,116.592216 Z M185.301523,129.989986 L195.669698,132.020817 L230.950873,138.980046 L237.437183,140.230265 L238.336737,140.398876 C242.680629,141.206209 246.856522,138.339262 247.663854,133.99537 C248.471187,129.651479 245.60424,125.475586 241.260349,124.668253 L237.706458,123.992379 L225.498733,121.606095 L190.551303,114.708993 L188.309322,114.275243 C183.969816,113.444662 179.778632,116.289208 178.948051,120.628715 C178.11747,124.968221 180.962016,129.159405 185.301523,129.989986 Z M274.699618,145.751724 L275.520145,145.82118 L277.14623,145.948691 C277.41559,145.96867 277.684127,145.988013 277.951845,146.006715 L279.548373,146.111222 L281.125494,146.20024 L282.683447,146.273645 C303.32941,147.147741 318.927103,143.825436 332.013661,134.990341 C335.675528,132.518113 336.639921,127.545447 334.167694,123.88358 C331.695466,120.221712 326.7228,119.257319 323.060933,121.729546 C313.362834,128.277001 301.222767,130.941091 284.222306,130.322663 L282.794298,130.263542 C282.314511,130.241311 281.830921,130.216559 281.343477,130.189301 L279.869533,130.100018 L278.372153,129.99577 C278.12062,129.977152 277.868097,129.957915 277.614579,129.938058 L276.081464,129.811507 C271.679694,129.429921 267.802019,132.688923 267.420433,137.090693 C267.038846,141.492462 270.297849,145.370138 274.699618,145.751724 Z M357.807009,105.104922 C368.59334,85.5079704 370.784598,64.87867 364.560591,46.5215124 C363.141897,42.3371981 358.599761,40.0952204 354.415446,41.513915 C350.231132,42.9326096 347.989154,47.4747458 349.407849,51.6590601 C354.155367,65.6614435 352.457946,81.6415748 343.789974,97.3898251 C341.659508,101.260523 343.070245,106.125426 346.940943,108.255891 C350.81164,110.386356 355.676544,108.975619 357.807009,105.104922 Z M340.339727,14.1731366 C327.517266,4.9847138 311.459394,0 293.95728,0 C290.38156,0 286.799035,0.253149213 283.240223,0.757718875 C278.865694,1.37794129 275.822227,5.4269874 276.44245,9.80151647 C277.062672,14.1760455 281.111718,17.2195124 285.486247,16.59929 C288.301689,16.2001155 291.133691,16 293.95728,16 C307.920568,16 320.512153,19.8326586 330.488178,26.8023226 L331.020099,27.1786945 C334.611485,29.7522387 339.609148,28.9271152 342.182692,25.3357295 C344.756236,21.7443439 343.931113,16.7466808 340.339727,14.1731366 Z M246.643508,16.2749347 C231.617241,27.9447063 220.930439,44.9924351 216.140259,66.0505447 C215.16025,70.358765 217.858298,74.6457222 222.166518,75.6257317 C226.474738,76.6057412 230.761696,73.9076933 231.741705,69.599473 C235.720084,52.1101196 244.385388,38.2871114 256.457477,28.9116279 C259.947004,26.2015753 260.578892,21.1758234 257.86884,17.6862969 C255.158787,14.1967704 250.133035,13.5648821 246.643508,16.2749347 Z M213.761013,104.303157 C215.111527,121.173409 219.34252,139.408691 226.562616,158.861676 C228.100009,163.003849 232.704208,165.115441 236.846382,163.578048 C240.988555,162.040654 243.100147,157.436455 241.562753,153.294282 C234.836941,135.173038 230.938308,118.370202 229.70999,103.026394 C229.357421,98.6222054 225.501308,95.3377185 221.09712,95.690287 C216.692931,96.0428555 213.408444,99.8989689 213.761013,104.303157 Z M238.166337,191.676856 C239.391184,197.182761 240.386587,203.229667 241.150294,209.814957 L241.362189,211.711115 C241.499247,212.984985 241.627891,214.278379 241.748105,215.591278 L241.922103,217.575255 C242.033884,218.907656 242.137227,220.259554 242.232118,221.630931 L242.368112,223.702604 C242.476155,225.441168 242.570977,227.210154 242.65255,229.009526 L242.744074,231.183356 C242.758268,231.548092 242.771931,231.914042 242.785063,232.281206 L242.857486,234.498767 L242.917159,236.745465 C242.934924,237.499219 242.950562,238.257827 242.964071,239.021286 L242.99821,241.326217 C243.00746,242.099378 243.014579,242.877387 243.019565,243.660244 C243.047706,248.078433 246.652168,251.637269 251.070356,251.609458 C255.488545,251.580988 259.047381,247.976526 259.019241,243.558338 C258.880386,221.757729 257.147557,203.319784 253.784542,188.202423 C252.825104,183.889575 248.551071,181.171099 244.238223,182.130537 C239.925375,183.089976 237.206899,187.364008 238.166337,191.676856 Z M241.987809,279.117209 C241.568679,286.166495 241.022907,293.496579 240.350417,301.10718 L240.031039,304.639682 C239.647933,308.784171 239.228083,313.00998 238.771477,317.317066 L238.371099,321.028758 C238.234639,322.272623 238.095178,323.523122 237.952716,324.780253 L237.516327,328.571545 C237.367863,329.841941 237.216397,331.118969 237.06193,332.402628 C236.534071,336.78926 239.662225,340.773243 244.048858,341.301102 C248.435491,341.828961 252.419473,338.700806 252.947332,334.314174 L253.409023,330.421486 C254.389623,322.030104 255.241976,313.916753 255.966004,306.081153 L256.291059,302.484442 C256.764973,297.118957 257.177377,291.886573 257.528246,286.787199 L257.753042,283.40732 C257.824935,282.287262 257.893788,281.173771 257.959603,280.066846 C258.221838,275.656357 254.859014,271.868365 250.448525,271.60613 C246.038036,271.343895 242.250044,274.70672 241.987809,279.117209 Z" id="Path"></path>
            <path d="M212.212249,305.013585 C215.740571,302.5069 220.605074,303.267041 223.207572,306.684889 L223.36725,306.90196 L246.454,339.399 L275.881737,306.226444 C278.752639,302.990058 283.66024,302.632524 286.966418,305.371559 L287.175241,305.550598 C290.411626,308.421501 290.769161,313.329101 288.030126,316.635279 L287.851087,316.844102 L251.746268,357.545279 C248.391771,361.326824 242.438148,361.076009 239.402556,357.090838 L239.239905,356.869764 L210.323875,316.168586 C207.764967,312.566758 208.610421,307.572494 212.212249,305.013585 Z" id="Path-2"></path>
        </g>
    </g>
</svg>