<?xml version="1.0" encoding="UTF-8"?>
<svg width="121px" height="102px" viewBox="0 0 121 102" version="1.1" xmlns="http://www.w3.org/2000/svg" xmlns:xlink="http://www.w3.org/1999/xlink">
    <title>Group</title>
    <defs>
        <path d="M1.9816,1.47036364 C1.6918,1.52854545 1.3996,1.58672727 1.1076,1.64672727 C0.7958,1.71036364 0.4816,1.76854545 0.1618,1.82672727 C0.1096,1.70490909 0.0618,1.58309091 0.0156,1.46127273 C0.2656,1.18309091 0.5258,0.912181818 0.7936,0.644909091 C1.0038,0.435818182 1.2196,0.234 1.4396,0.034 C1.6016,0.517636364 1.7816,0.997636364 1.9816,1.47036364" id="path-1"></path>
        <linearGradient x1="-4.22177009%" y1="57.5138447%" x2="93.3560529%" y2="40.9513408%" id="linearGradient-3">
            <stop stop-color="#3AA7CB" offset="0%"></stop>
            <stop stop-color="#214A8D" offset="100%"></stop>
        </linearGradient>
        <path d="M46.8128034,10.2735174 C46.7708248,10.2775872 46.7286453,10.2836919 46.6882735,10.2877616 L46.4894274,10.3101453 C46.3528462,10.3264244 46.2202821,10.3427035 46.0877179,10.3589826 C44.4567778,8.44415698 42.5566923,6.77962209 40.4557521,5.43456395 C37.6821496,3.64386628 34.5689017,2.40869186 31.349,1.83485465 C28.1315085,1.25287791 24.813188,1.30985465 21.6298419,2.00781977 C18.4481026,2.71188953 15.413188,4.03456395 12.7420214,5.89241279 C10.0664359,7.74822674 7.76685043,10.1432849 6.0031453,12.8924128 C4.23763248,15.6374709 2.99253419,18.7223547 2.38997009,21.9374709 C1.78117949,25.1525872 1.81532479,28.481657 2.46609402,31.684564 C2.5787735,32.2461919 2.71113675,32.8057849 2.86378632,33.3572384 C2.78766239,33.4325291 2.70732051,33.5078198 2.63079487,33.5851453 C2.38374359,33.8334012 2.16300427,34.0653779 1.95793162,34.2932849 C1.76711966,34.5049128 1.57851709,34.7226453 1.39553846,34.9424128 C1.09023932,33.9982267 0.83917094,33.0377616 0.640525641,32.0650872 C-0.0506153846,28.6200291 -0.0705,25.0365988 0.598346154,21.585436 C1.26498291,18.138343 2.60287607,14.8235174 4.52686325,11.9054942 C6.45326068,8.98747093 8.94566667,6.46218023 11.8239145,4.51886628 C13.2620342,3.54619186 14.7927479,2.7159593 16.3893419,2.05462209 C17.9883462,1.39531977 19.6472051,0.896773256 21.336594,0.563052326 C24.7169786,-0.09625 28.2239017,-0.09625 31.5801838,0.617994186 C34.9382735,1.32613372 38.1459231,2.70985465 40.9600983,4.65927326 C43.1893846,6.21188953 45.1758376,8.11450581 46.8128034,10.2735174" id="path-4"></path>
        <linearGradient x1="-3.88331345%" y1="54.7229214%" x2="101.896532%" y2="38.3409616%" id="linearGradient-6">
            <stop stop-color="#3AA7CB" offset="0%"></stop>
            <stop stop-color="#214A8D" offset="100%"></stop>
        </linearGradient>
        <path d="M46.5638884,10.2252152 C45.9970644,13.5912911 44.7363348,16.8439494 42.9047468,19.7502785 C41.0650901,22.646481 38.6444893,25.1842025 35.8184378,27.1629367 C32.9964206,29.1497722 29.758867,30.5371139 26.3821288,31.2723038 C24.6917425,31.6368608 22.9652489,31.8393924 21.2302833,31.8677468 C19.4975365,31.8961013 17.7607554,31.7421772 16.0544335,31.4221772 C12.6413863,30.7842025 9.3554206,29.4596456 6.44041202,27.5558481 C4.054103,25.9983797 1.9342618,24.0398987 0.171055794,21.7978734 C0.483918455,21.7553418 0.754017167,21.7148354 1.01019742,21.6743291 C1.19577682,21.6540759 1.38357511,21.6338228 1.56713734,21.6135696 C1.68211588,21.6014177 1.7968927,21.5872405 1.90985408,21.5750886 L1.92014163,21.5750886 C2.04903863,21.5588861 2.18035622,21.5426835 2.30925322,21.5285063 C3.79409013,23.2642025 5.51876824,24.7973671 7.41470386,26.0712911 C10.1158927,27.8859747 13.1739185,29.168 16.3668927,29.808 C19.5582532,30.448 22.878309,30.4581266 26.0896395,29.8383797 C29.3011717,29.2186329 32.3874378,27.9507848 35.1348197,26.1462278 C37.882,24.3436962 40.2743605,21.9801519 42.1402403,19.2419241 C44.0184249,16.5097722 45.3495536,13.3928101 46.0575794,10.1259747 C46.4105837,8.49356962 46.6042318,6.82065823 46.634691,5.14167089 C46.6689828,3.46268354 46.5398841,1.77356962 46.2512275,0.11078481 C46.6326738,1.75534177 46.8563777,3.44243038 46.9148755,5.13964557 C46.9673219,6.83686076 46.848309,8.54217722 46.5638884,10.2252152" id="path-7"></path>
        <linearGradient x1="0.55476999%" y1="60.2842959%" x2="106.081867%" y2="45.5475031%" id="linearGradient-9">
            <stop stop-color="#3AA7CB" offset="0%"></stop>
            <stop stop-color="#214A8D" offset="100%"></stop>
        </linearGradient>
    </defs>
    <g id="Acknowledgements" stroke="none" stroke-width="1" fill="none" fill-rule="evenodd">
        <g id="acknowledgements/envri-fair" transform="translate(-189.000000, 1.000000)">
            <g id="Group" transform="translate(189.000000, -0.775168)">
                <g id="Group-4" transform="translate(35.000000, 34.775168)">
                    <mask id="mask-2" fill="white">
                        <use xlink:href="#path-1"></use>
                    </mask>
                    <g id="Clip-3"></g>
                    <path d="M1.9816,1.47036364 C1.6918,1.52854545 1.3996,1.58672727 1.1076,1.64672727 C0.7958,1.71036364 0.4816,1.76854545 0.1618,1.82672727 C0.1096,1.70490909 0.0618,1.58309091 0.0156,1.46127273 C0.2656,1.18309091 0.5258,0.912181818 0.7936,0.644909091 C1.0038,0.435818182 1.2196,0.234 1.4396,0.034 C1.6016,0.517636364 1.7816,0.997636364 1.9816,1.47036364" id="Fill-2" fill="url(#linearGradient-3)" mask="url(#mask-2)"></path>
                </g>
                <g id="Group-7" transform="translate(34.000000, 0.775168)">
                    <mask id="mask-5" fill="white">
                        <use xlink:href="#path-4"></use>
                    </mask>
                    <g id="Clip-6"></g>
                    <path d="M46.8128034,10.2735174 C46.7708248,10.2775872 46.7286453,10.2836919 46.6882735,10.2877616 L46.4894274,10.3101453 C46.3528462,10.3264244 46.2202821,10.3427035 46.0877179,10.3589826 C44.4567778,8.44415698 42.5566923,6.77962209 40.4557521,5.43456395 C37.6821496,3.64386628 34.5689017,2.40869186 31.349,1.83485465 C28.1315085,1.25287791 24.813188,1.30985465 21.6298419,2.00781977 C18.4481026,2.71188953 15.413188,4.03456395 12.7420214,5.89241279 C10.0664359,7.74822674 7.76685043,10.1432849 6.0031453,12.8924128 C4.23763248,15.6374709 2.99253419,18.7223547 2.38997009,21.9374709 C1.78117949,25.1525872 1.81532479,28.481657 2.46609402,31.684564 C2.5787735,32.2461919 2.71113675,32.8057849 2.86378632,33.3572384 C2.78766239,33.4325291 2.70732051,33.5078198 2.63079487,33.5851453 C2.38374359,33.8334012 2.16300427,34.0653779 1.95793162,34.2932849 C1.76711966,34.5049128 1.57851709,34.7226453 1.39553846,34.9424128 C1.09023932,33.9982267 0.83917094,33.0377616 0.640525641,32.0650872 C-0.0506153846,28.6200291 -0.0705,25.0365988 0.598346154,21.585436 C1.26498291,18.138343 2.60287607,14.8235174 4.52686325,11.9054942 C6.45326068,8.98747093 8.94566667,6.46218023 11.8239145,4.51886628 C13.2620342,3.54619186 14.7927479,2.7159593 16.3893419,2.05462209 C17.9883462,1.39531977 19.6472051,0.896773256 21.336594,0.563052326 C24.7169786,-0.09625 28.2239017,-0.09625 31.5801838,0.617994186 C34.9382735,1.32613372 38.1459231,2.70985465 40.9600983,4.65927326 C43.1893846,6.21188953 45.1758376,8.11450581 46.8128034,10.2735174" id="Fill-5" fill="url(#linearGradient-6)" mask="url(#mask-5)"></path>
                </g>
                <g id="Group-10" transform="translate(39.000000, 21.775168)">
                    <mask id="mask-8" fill="white">
                        <use xlink:href="#path-7"></use>
                    </mask>
                    <g id="Clip-9"></g>
                    <path d="M46.5638884,10.2252152 C45.9970644,13.5912911 44.7363348,16.8439494 42.9047468,19.7502785 C41.0650901,22.646481 38.6444893,25.1842025 35.8184378,27.1629367 C32.9964206,29.1497722 29.758867,30.5371139 26.3821288,31.2723038 C24.6917425,31.6368608 22.9652489,31.8393924 21.2302833,31.8677468 C19.4975365,31.8961013 17.7607554,31.7421772 16.0544335,31.4221772 C12.6413863,30.7842025 9.3554206,29.4596456 6.44041202,27.5558481 C4.054103,25.9983797 1.9342618,24.0398987 0.171055794,21.7978734 C0.483918455,21.7553418 0.754017167,21.7148354 1.01019742,21.6743291 C1.19577682,21.6540759 1.38357511,21.6338228 1.56713734,21.6135696 C1.68211588,21.6014177 1.7968927,21.5872405 1.90985408,21.5750886 L1.92014163,21.5750886 C2.04903863,21.5588861 2.18035622,21.5426835 2.30925322,21.5285063 C3.79409013,23.2642025 5.51876824,24.7973671 7.41470386,26.0712911 C10.1158927,27.8859747 13.1739185,29.168 16.3668927,29.808 C19.5582532,30.448 22.878309,30.4581266 26.0896395,29.8383797 C29.3011717,29.2186329 32.3874378,27.9507848 35.1348197,26.1462278 C37.882,24.3436962 40.2743605,21.9801519 42.1402403,19.2419241 C44.0184249,16.5097722 45.3495536,13.3928101 46.0575794,10.1259747 C46.4105837,8.49356962 46.6042318,6.82065823 46.634691,5.14167089 C46.6689828,3.46268354 46.5398841,1.77356962 46.2512275,0.11078481 C46.6326738,1.75534177 46.8563777,3.44243038 46.9148755,5.13964557 C46.9673219,6.83686076 46.848309,8.54217722 46.5638884,10.2252152" id="Fill-8" fill="url(#linearGradient-9)" mask="url(#mask-8)"></path>
                </g>
                <path d="M90,9.77516779 C89.3140863,10.6805347 88.5759858,11.5441797 87.7606163,12.3160364 C87.556521,12.5100436 87.3542463,12.7061369 87.145701,12.9001441 C86.9414035,13.0962374 86.7191036,13.2652114 86.5044901,13.4487881 C86.2860334,13.6302787 86.0655539,13.8034249 85.8452767,13.9807434 C85.6266177,14.162234 85.40007,14.3353802 85.167454,14.4960098 C84.4979246,14.9820709 83.8000767,15.4347544 83.0759331,15.8519742 C82.9667047,15.912471 82.8617241,15.9729679 82.7543162,16.0313787 C81.5873932,16.6759833 80.361406,17.2267134 79.0890978,17.6710525 C78.4903646,17.8817485 77.8815176,18.0674113 77.2666023,18.2280409 C77.2605341,18.230127 77.2524431,18.2322131 77.2465771,18.2363853 C75.6304019,18.6619495 73.9715467,18.9185397 72.3414145,19.0478778 C71.3239725,19.1292357 70.316442,19.1626133 69.3273185,19.1626133 C68.1199405,19.1626133 66.9364309,19.1125469 65.7875104,19.0457917 C63.70226,18.924798 61.724013,18.7537379 59.8042233,18.6640356 C58.869714,18.6202275 57.9475434,18.5931082 57.026991,18.5931082 C56.052229,18.5931082 55.0790852,18.6223136 54.1002777,18.6890688 C53.624932,18.7370491 53.1453386,18.7662545 52.664127,18.8100625 C52.1827131,18.8684733 51.7010969,18.9268841 51.2097716,18.9748644 C50.7281554,19.0562222 50.23683,19.1250635 49.7410546,19.1959908 L48.2502897,19.4588393 C48.1250816,19.4838725 47.9974463,19.4984752 47.8722382,19.5276806 L47.4960072,19.6069523 C47.2449842,19.6591048 46.9941635,19.7133434 46.7374769,19.7634098 L46.3551776,19.8385093 C46.2255195,19.8614564 46.0942432,19.8864896 45.9686306,19.9177811 C45.7157871,19.9803641 45.4570777,20.0366887 45.1979638,20.0950995 C44.1481578,20.3016233 43.1187816,20.589505 42,20.7751678 C42.6838909,19.8698008 43.4181483,19.0040697 44.2371587,18.230127 C44.4394335,18.0361198 44.6439332,17.8379404 44.8502535,17.6460193 C45.0543487,17.4478399 45.2748282,17.280952 45.4914644,17.0952892 C45.7076961,16.9137985 45.9283779,16.7406523 46.1506778,16.5612478 C46.3711573,16.3839294 46.5936595,16.2086971 46.8262755,16.0480675 C48.6609075,14.7129641 50.7200644,13.6302787 52.9068567,12.8688526 C55.0932444,12.0949099 57.4011993,11.6714318 59.6587878,11.4941134 C60.6539795,11.4169277 61.6390576,11.3835501 62.6079536,11.3835501 C63.8377841,11.3835501 65.0411166,11.4357026 66.2102646,11.50663 C68.2959195,11.6317959 70.2719415,11.8049421 72.1955744,11.8967305 C72.5637144,11.9134193 72.9320568,11.9280219 73.2979718,11.9384524 C73.2999945,11.9384524 73.3022195,11.9405385 73.3042423,11.9405385 C73.3060628,11.9405385 73.3080855,11.9384524 73.3103105,11.9384524 C73.888614,11.9572273 74.4652993,11.9655717 75.0397596,11.9655717 C75.9924737,11.9655717 76.943165,11.9384524 77.901745,11.8737834 C78.3752702,11.823717 78.8566841,11.7965977 79.338098,11.7527896 C79.5421932,11.7277564 79.7464907,11.7027233 79.9548337,11.6776901 C80.1815837,11.6526569 80.4099519,11.6255376 80.6405451,11.6025905 C80.6890911,11.5963322 80.7396598,11.59216 80.7902284,11.5859017 C81.0331604,11.5441797 81.2758901,11.508716 81.522463,11.4732524 C81.7672155,11.4357026 82.0139907,11.3981528 82.2609681,11.3647752 L83.749508,11.0998406 C83.8769411,11.0768936 84.0043742,11.0622909 84.1277618,11.0330855 C84.2531721,11.0038801 84.3787848,10.9788469 84.5041951,10.9517276 C84.7570385,10.8995751 85.0078592,10.8453366 85.2645459,10.7952702 L85.6468451,10.7180845 C85.7765033,10.6972235 85.9077796,10.6721904 86.0331899,10.6388128 C86.2860334,10.5783159 86.5451473,10.5199051 86.804059,10.4614944 C87.8516399,10.2549706 88.8832411,9.96500279 90,9.77516779" id="Fill-11" fill="#39A7CD"></path>
                <path d="M87,17.7751678 C86.5046458,18.4281168 85.9805696,19.0622909 85.4204897,19.6526569 C85.3818566,19.6922928 85.3454483,19.7298425 85.3092424,19.7694784 C85.2200422,19.8612668 85.1312466,19.950969 85.040226,20.0406713 C85.019797,20.0615323 85.0015929,20.0803072 84.9815683,20.0990821 C84.9085496,20.1720955 84.8359354,20.2430229 84.7588713,20.3118642 C84.5588284,20.5079575 84.3523128,20.7061369 84.1462018,20.8959719 C83.9417089,21.0962374 83.7192142,21.2652114 83.5050125,21.446702 C83.2865631,21.6261065 83.066091,21.8034249 82.8433941,21.9807434 C82.6249447,22.1601479 82.4006296,22.3332941 82.1678192,22.4918376 C80.3332491,23.826941 78.2782069,24.9096263 76.0898702,25.6689664 C73.9031516,26.4429091 71.5974995,26.8705594 69.3420098,27.0457917 C68.3288497,27.1271496 67.3294439,27.1605272 66.3443991,27.1605272 C65.1307915,27.1605272 63.943681,27.1104608 62.7887311,27.0437056 C60.7031465,26.9227119 58.7251685,26.7516518 56.8054435,26.6619495 C55.871168,26.6181414 54.9466013,26.5931082 54.0264845,26.5931082 C53.0513508,26.5931082 52.0804647,26.6202275 51.0994653,26.6848966 C50.628181,26.7370491 50.1467833,26.7662545 49.663363,26.8100625 C49.1841902,26.8643011 48.7025903,26.924798 48.2112815,26.9748644 C47.7298838,27.0541361 47.2383728,27.1250635 46.7426141,27.1939047 L45.2521017,27.4588393 C45.128516,27.4797003 44.9992668,27.494303 44.8738607,27.5235084 L44.49744,27.6069523 C44.2466278,27.6570187 43.9960179,27.7133434 43.7389353,27.7613237 L43.3568512,27.8364232 C43.2271975,27.8614564 43.097746,27.8844035 42.9703172,27.9177811 C42.7156619,27.9803641 42.4587816,28.0366887 42.1996764,28.0930134 C41.1519285,28.2974511 40.1183394,28.5874189 39,28.7751678 C39.6834633,27.8677147 40.4199209,26.9998975 41.2389037,26.230127 C41.4393512,26.0340337 41.6456645,25.8379404 41.8519778,25.6460193 C42.0560661,25.4457538 42.2767405,25.2767798 42.4931671,25.0952892 C42.7093916,24.9137985 42.9298636,24.7385662 43.1505379,24.5591617 C43.3730326,24.3797572 43.5953251,24.206611 43.8281355,24.0480675 C45.6604806,22.710878 47.7195682,21.6281926 49.9081072,20.8667665 C52.0946235,20.0949099 54.4025005,19.6693457 56.6577879,19.4941134 C57.6551711,19.4148416 58.6420363,19.381464 59.6108997,19.381464 C60.840891,19.381464 62.0441829,19.4336165 63.2114711,19.5045439 C65.2966512,19.6317959 67.2730111,19.802856 69.1965791,19.8925583 C70.1409681,19.9384524 71.0756482,19.9655717 72.0079011,19.9655717 C72.9727191,19.9655717 73.9334918,19.9363663 74.9025574,19.8716973 C75.3756621,19.823717 75.8570598,19.7945116 76.3384575,19.7507035 C76.8178324,19.6922928 77.3014551,19.633882 77.7909435,19.5838156 C78.0334627,19.5441797 78.2741615,19.5045439 78.5209284,19.4711663 C78.7656726,19.4357026 79.0126417,19.3960667 79.2632517,19.3647752 L80.7501233,19.0977545 C80.8775521,19.0768936 81.0047786,19.0602048 81.1283643,19.0309994 C81.2537704,19.0038801 81.3769516,18.9767608 81.5043804,18.9496415 C81.7551926,18.897489 82.0080275,18.8432505 82.2628851,18.7931841 L82.6492168,18.7180845 C82.7766456,18.6930513 82.9083221,18.6701043 83.0315032,18.6367267 C83.2865631,18.5741437 83.5452638,18.517819 83.8023463,18.4573222 C83.9963213,18.4218585 84.1886781,18.3801365 84.3808326,18.3363284 C84.3927664,18.3342423 84.4071274,18.3321562 84.4190612,18.327984 C84.5363766,18.3029508 84.6518716,18.2758315 84.769187,18.2487123 C84.8418012,18.2320235 84.9148199,18.2153347 84.9876364,18.200732 C85.6407595,18.0505329 86.3044006,17.8940754 87,17.7751678" id="Fill-12" fill="#243F4A"></path>
                <path d="M83,25.7751678 C82.3125203,26.6826208 81.5760938,27.5483519 80.7569432,28.3181225 C80.5546838,28.5100436 80.3524244,28.708223 80.1440972,28.9001441 C79.9398152,29.0962374 79.7195547,29.2652114 79.5029349,29.4487881 C79.2865173,29.6302787 79.0660546,29.8034249 78.8437715,29.9870017 C78.6233087,30.162234 78.4006211,30.3353802 78.168225,30.4960098 C76.33353,31.8331993 74.2747315,32.9117124 72.0903299,33.6731386 C69.9037035,34.4470813 67.5981485,34.8726455 65.3429561,35.0499639 C64.3274116,35.1313218 63.3221824,35.1626133 62.3351565,35.1626133 C61.1236226,35.1626133 59.9383825,35.114633 58.7897513,35.0478778 C56.702232,34.924798 54.7261576,34.7537379 52.8028729,34.6661217 C51.8623667,34.6202275 50.9337938,34.5951943 50.0074457,34.5951943 C49.0406457,34.5951943 48.074048,34.6223136 47.0989554,34.6890688 C46.627691,34.7370491 46.1485385,34.7662545 45.6631159,34.8100625 C45.1855814,34.8684733 44.7023837,34.9268841 44.2127137,34.9769505 C43.7293137,35.0562222 43.2398459,35.1271496 42.7422878,35.1980769 L41.2536586,35.4630115 C41.1264374,35.4859586 41.0008343,35.5005613 40.8754335,35.5297667 L40.6673086,35.5756609 L40.499231,35.6090384 C40.2484293,35.6611909 39.9976277,35.7175156 39.7407582,35.7654959 L39.3544428,35.8405954 C39.225199,35.8635425 39.095753,35.8864896 38.9701499,35.9198672 C38.7155053,35.9803641 38.4604562,36.0387748 38.2017664,36.0971856 C37.9305365,36.1514242 37.6595089,36.2077489 37.3905039,36.2682457 C37.09743,36.3350009 36.801929,36.4017561 36.5066303,36.4705973 C36.1913079,36.5436108 35.8735584,36.610366 35.5501456,36.6771211 C35.3701347,36.7104987 35.1858764,36.7438763 35,36.7751678 C35.1312664,36.6020216 35.2649598,36.4288754 35.402294,36.2578152 C35.6551182,35.9386421 35.9182577,35.6278133 36.189083,35.3211568 C36.4016577,35.0812554 36.6198956,34.8496984 36.8423809,34.6202275 C36.9720292,34.4908894 37.1053182,34.3594651 37.2388094,34.2322131 C37.4410688,34.0361198 37.6433282,33.8400265 37.8518576,33.6460193 C38.0559374,33.449926 38.2784227,33.280952 38.4930199,33.0994614 C38.7114601,32.9158846 38.9317206,32.7427384 39.1521833,32.5633339 C39.3485772,32.4027043 39.5486118,32.248333 39.753096,32.1064782 C39.7773672,32.0856172 39.8036609,32.0668424 39.8297524,32.0480675 C41.6622226,30.7129641 43.7192007,29.6323648 45.9096701,28.8709387 C48.0940717,28.096996 50.4018515,27.6735179 52.6570439,27.4961995 C53.6602505,27.4190138 54.6533442,27.3856362 55.6282346,27.3856362 C56.8521062,27.3856362 58.0492797,27.4357026 59.2102487,27.50663 C61.297768,27.6380542 63.2736401,27.8049421 65.1973293,27.8967305 C66.1418808,27.9426246 67.0763192,27.9676578 68.0085328,27.9676578 C68.9712876,27.9676578 69.9320198,27.9405385 70.9030672,27.8737834 C71.3743316,27.8258031 71.8575293,27.7965977 72.3389067,27.7527896 C72.8182615,27.6985511 73.2996389,27.6380542 73.7911292,27.5859017 C74.0318179,27.5483519 74.2747315,27.508716 74.5194654,27.4732524 C74.7660196,27.4357026 75.0107535,27.4002389 75.2597348,27.3689474 L76.7503866,27.1019267 C76.8755852,27.0768936 77.0052335,27.0622909 77.1284094,27.0330855 C77.2538103,27.0038801 77.3773908,26.9788469 77.5027916,26.9558998 C77.7556159,26.8995751 78.0084401,26.8453366 78.2630847,26.7952702 L78.6475798,26.7201706 C78.7768236,26.6993096 78.9062696,26.6721904 79.0316705,26.6408989 C79.2865173,26.5783159 79.5454093,26.5219912 79.802481,26.4614944 C80.8520051,26.2570567 81.8815055,25.9670889 83,25.7751678" id="Fill-13" fill="#B2C938"></path>
                <path d="M79,33.7751678 C78.3141152,34.6784487 77.5780684,35.5441797 76.7588902,36.3160364 C76.556624,36.5079575 76.3521329,36.7061369 76.1458213,36.9001441 C75.9417347,37.0962374 75.7212645,37.2652114 75.5048396,37.446702 C75.2882125,37.6281926 75.0677423,37.8034249 74.8454517,37.9828295 C74.6249816,38.162234 74.4022865,38.3332941 74.165635,38.4939237 C72.3333052,39.8290271 70.2762577,40.9096263 68.0895576,41.6689664 C65.9052846,42.4429091 63.5972247,42.8726455 61.3399337,43.0499639 C60.3308275,43.1292357 59.3356777,43.1626133 58.3565069,43.1626133 C57.2321089,43.1626133 56.1315784,43.1188052 55.057747,43.0583083 C54.9685476,43.0541361 54.8777301,43.0499639 54.7887329,43.0437056 C53.4758229,42.9686061 52.2076136,42.8726455 50.9677217,42.7892015 C50.9576084,42.7892015 50.9434497,42.7871154 50.9313138,42.7871154 C50.5330516,42.7599962 50.1406551,42.7370491 49.7521017,42.714102 C49.4345437,42.6953271 49.1190084,42.6786383 48.8034731,42.6640356 C47.8611147,42.6181414 46.9264425,42.5931082 45.9960179,42.5931082 C45.8604995,42.5931082 45.7270038,42.5931082 45.5914854,42.5951943 L45.5188719,42.5951943 C44.7116274,42.6056248 43.9106531,42.6348302 43.0997678,42.6869827 C42.6264648,42.7370491 42.144869,42.7662545 41.6634754,42.8100625 C41.4856833,42.8309235 41.3054641,42.8517845 41.1276721,42.8747316 C40.8242728,42.9081092 40.5186485,42.945659 40.2112039,42.9769505 C39.8210323,43.0416195 39.4245905,43.1000303 39.0218785,43.156355 C38.9308587,43.1688716 38.8357935,43.1813882 38.7429533,43.1939047 L37.252049,43.4588393 C37.1266439,43.4838725 36.9973958,43.4984752 36.8738112,43.5255945 L36.4998209,43.6069523 C36.2469881,43.6570187 35.9941553,43.7133434 35.7390976,43.7613237 L35.3549941,43.8364232 C35.2253414,43.8614564 35.095891,43.8844035 34.9706883,43.9198672 C34.7156305,43.9803641 34.456932,44.0366887 34.2000539,44.0930134 C33.1502922,44.2995372 32.1187345,44.5874189 31,44.7751678 C31.6838621,43.8677147 32.4221338,43.0019836 33.2370644,42.230127 C33.4393307,42.0361198 33.6438218,41.8379404 33.8519538,41.6460193 C34.0564449,41.4457538 34.2767128,41.2788659 34.4931377,41.0952892 C34.7097648,40.9137985 34.9300327,40.7385662 35.1505029,40.5612478 C35.3711754,40.3818433 35.5954886,40.2086971 35.8303197,40.0480675 C36.1296737,39.8290271 36.4308481,39.6204172 36.7405177,39.4201517 C37.2560943,39.0759453 37.7902794,38.7567722 38.3384209,38.4563739 C39.4751571,37.8326303 40.6703482,37.298589 41.9082175,36.8709387 C42.1994809,36.7666337 42.4947895,36.6685871 42.7923232,36.5788848 C43.9007421,36.2346785 45.0334329,35.9780883 46.1699668,35.7945116 C46.4452512,35.7486174 46.7223559,35.7068955 46.997438,35.6693457 C47.5514452,35.5942461 48.1058569,35.5400075 48.6580437,35.4961995 C49.151371,35.4565636 49.6428779,35.4273582 50.1325644,35.4106694 C50.6319597,35.3918945 51.1277143,35.3856362 51.6192212,35.3856362 C52.8447522,35.3856362 54.044191,35.4336165 55.2112671,35.5045439 C57.2968341,35.6317959 59.2747955,35.802856 61.1945043,35.8946444 C62.1429306,35.9405385 63.0816481,35.9676578 64.0161181,35.9676578 C64.9768827,35.9676578 65.9354223,35.9384524 66.9022548,35.8737834 C67.3755578,35.823717 67.8569514,35.7965977 68.3385473,35.7527896 C68.817716,35.6943789 69.3013345,35.6359681 69.7908188,35.5859017 C70.0335383,35.5441797 70.2762577,35.508716 70.5209999,35.4711663 C70.765742,35.4357026 71.0125068,35.3981528 71.261092,35.3647752 L72.7517941,35.0977545 C72.8771991,35.0768936 73.0046268,35.0622909 73.1282115,35.0330855 C73.2515939,35.0038801 73.3767967,34.9767608 73.5044267,34.9496415 C73.7550345,34.8995751 74.0058447,34.8432505 74.262925,34.7952702 L74.6490512,34.7180845 C74.7787039,34.6951374 74.907952,34.6721904 75.0315367,34.6367267 C75.2861899,34.5762298 75.543068,34.517819 75.8019687,34.4614944 C76.8537531,34.2549706 77.8832882,33.9629167 79,33.7751678" id="Fill-14" fill="#D98236"></path>
                <polyline id="Fill-15" fill="#696A69" points="13 65.1793589 3.55519112 65.1793589 3.55519112 70.9460618 12.7253735 70.9460618 12.7253735 74.3502529 3.55519112 74.3502529 3.55519112 82.3711826 13 82.3711826 13 85.7751678 0 85.7751678 0 61.7751678 13 61.7751678 13 65.1793589"></polyline>
                <polyline id="Fill-16" fill="#696A69" points="27 85.3193679 27 59.7751678 44.3995498 78.0231352 44.3995498 61.4018641 48 61.4018641 48 86.7751678 30.6006549 68.5739764 30.6006549 85.3193679 27 85.3193679"></polyline>
                <polyline id="Fill-17" fill="#696A69" points="61.9087991 61.7751678 68.4537132 77.8897938 75.0912009 61.7751678 79 61.7751678 68.3771775 86.7751678 58 61.7751678 61.9087991 61.7751678"></polyline>
                <path d="M93.4915521,72.7957629 L94.6003625,72.7957629 C97.9069475,72.7957629 99.5603392,71.4850176 99.5603392,68.8631152 C99.5603392,66.4071404 97.9518001,65.1793589 94.7351186,65.1793589 L93.4915521,65.1793589 L93.4915521,72.7957629 Z M97.8370887,75.5471546 L105,85.7751678 L100.729284,85.7751678 L94.1208769,75.9510627 L93.4915521,75.9510627 L93.4915521,85.7751678 L90,85.7751678 L90,61.7751678 L94.0909091,61.7751678 C97.1480266,61.7751678 99.3555259,62.3709424 100.714201,63.5624916 C102.212792,64.8892944 102.962186,66.640386 102.962186,68.8163838 C102.962186,70.5162148 102.492227,71.9772419 101.5533,73.2000827 C100.614176,74.4229234 99.3753721,75.2052121 97.8370887,75.5471546 L97.8370887,75.5471546 Z" id="Fill-18" fill="#696A69"></path>
                <polygon id="Fill-19" fill="#696A69" points="117 86.7751678 121 86.7751678 121 62.7751678 117 62.7751678"></polygon>
                <path d="M90.0632719,92.846089 C90.2631579,92.846089 90.5895877,92.8580516 90.9787194,92.8815496 C91.3579707,92.8935122 91.799924,92.9172239 92.1894357,92.9172239 L93.0421813,92.9172239 C93.4947748,92.9172239 94.1578947,92.8815496 94.7368421,92.846089 C95.3053392,92.810842 95.7896637,92.7751678 95.8630059,92.7751678 C95.9367281,92.7751678 96,92.8815496 96,93.0236057 C96,93.7338861 95.9578187,94.4084922 95.9578187,95.0119635 L95.6633099,95.0119635 C95.5263158,93.5563694 95.0737222,93.2485456 93.6422193,93.2485456 L92.1157135,93.2485456 L92.1157135,96.5028046 L92.7157515,96.5028046 C93.7051112,96.5028046 93.8945468,96.4083854 94.0209006,95.0593867 L94.3895117,95.0593867 C94.368231,95.5682252 94.3264298,96.3255016 94.3264298,97.1182385 C94.3264298,97.3666765 94.3368801,97.8285189 94.3368801,98.2192265 L93.9684591,98.2192265 C93.9684591,97.0238193 93.7051112,96.8465162 92.8314649,96.8465162 L92.1157135,96.8465162 L92.1157135,100.017891 C92.1157135,100.337464 92.5787574,100.420134 93.2946988,100.44406 L93.2946988,100.728172 C92.8421053,100.728172 92.2842485,100.704247 91.6211286,100.704247 C91.3053392,100.704247 91.0104503,100.716209 90.7368421,100.739707 C90.4736842,100.75167 90.2316169,100.775168 90,100.775168 L90,100.491269 C90.600038,100.467558 91.0632719,100.384887 91.0632719,100.065101 L91.0632719,93.5563694 C91.0632719,93.236583 90.600038,93.1539128 90.0632719,93.1302012 L90.0632719,92.846089" id="Fill-20" fill="#696A69"></path>
                <path d="M101.114687,94.5632807 L101.092635,94.5632807 L100.267178,97.0339345 C100.234199,97.1280121 100.212346,97.2223022 100.212346,97.3046998 C100.212346,97.3635249 100.245126,97.4104575 100.311281,97.4104575 L102.072456,97.4459225 L101.114687,94.5632807 Z M100.377239,97.7634081 C100.069306,97.7634081 99.9810983,97.8458057 99.9371931,97.9753483 L99.3207322,99.7987137 C99.276827,99.928044 99.2547751,100.034014 99.2547751,100.116624 C99.2547751,100.257847 99.2659004,100.375497 100.124138,100.469362 L100.124138,100.775168 C99.9592451,100.775168 99.4196679,100.704663 98.9905492,100.704663 C98.583085,100.704663 98.220122,100.775168 98,100.775168 L98,100.492935 C98.6492408,100.43411 98.8036044,100.210489 98.924592,99.8458588 L101.433944,92.7751678 L101.576983,92.7751678 L104.042429,99.8696436 C104.218249,100.387177 104.427643,100.469362 105,100.469362 L105,100.775168 C104.790805,100.775168 104.416716,100.704663 103.53603,100.704663 C102.622563,100.704663 102.248276,100.775168 102.072456,100.775168 L102.072456,100.469362 C102.512502,100.446002 102.919767,100.387177 102.919767,100.198809 C102.919767,100.151664 102.919767,100.093052 102.853611,99.8927914 L102.171392,97.7634081 L100.377239,97.7634081 L100.377239,97.7634081 Z" id="Fill-21" fill="#696A69"></path>
                <path d="M108.049021,92.7751678 C108.401899,92.7751678 108.882374,92.8469389 109.50991,92.8469389 C110.127537,92.8469389 110.617744,92.7751678 110.9708,92.7751678 L110.9708,93.0618212 C110.431395,93.0857449 110.000118,93.1691545 110.000118,93.4918012 L110.000118,100.05875 C110.000118,100.381397 110.431395,100.464806 111,100.48873 L111,100.775168 C110.637211,100.775168 110.137447,100.703612 109.5,100.703612 C108.86273,100.703612 108.362966,100.775168 108,100.775168 L108,100.48873 C108.588072,100.464806 109.019526,100.381397 109.019526,100.05875 L109.019526,93.4918012 C109.019526,93.1691545 108.588072,93.0857449 108.049021,93.0618212 L108.049021,92.7751678" id="Fill-22" fill="#696A69"></path>
                <path d="M116.261123,96.4126433 L116.774771,96.4126433 C117.996643,96.4126433 118.990136,95.9727645 118.990136,94.6887477 C118.990136,93.6070751 118.236359,93.0959574 117.243279,93.0959574 L116.261123,93.0959574 L116.261123,96.4126433 Z M114.022879,92.7751678 C114.262801,92.798771 114.54807,92.8346051 114.845087,92.8461921 C115.153441,92.8702245 115.484467,92.8820261 115.804158,92.8820261 C116.135597,92.8820261 116.466623,92.8582083 116.808987,92.8461921 C117.14022,92.8225889 117.471453,92.8105727 117.802479,92.8105727 C119.150084,92.8105727 119.915197,93.5002167 119.915197,94.593691 C119.915197,95.7111976 119.104326,96.2699509 118.167928,96.4600644 L118.167928,96.5195017 C119.458232,96.8169026 119.949206,97.3280203 120.063396,99.3963088 C120.109155,100.240447 120.337534,100.489998 121,100.489998 L121,100.775168 L120.406172,100.775168 C119.241395,100.775168 118.87574,100.216629 118.87574,98.801936 C118.87574,96.9119594 118.236359,96.6978135 116.968935,96.6978135 L116.261123,96.6978135 L116.261123,100.014499 C116.261123,100.335504 116.763435,100.418544 117.379936,100.442577 L117.379936,100.727961 C116.820529,100.727961 116.24958,100.703929 115.689762,100.703929 C115.130562,100.703929 114.559612,100.727961 114,100.727961 L114,100.442577 C114.616501,100.418544 115.119019,100.335504 115.119019,100.014499 L115.119019,93.5240346 C115.119019,93.2028158 114.616501,93.1197752 114.022879,93.0959574 L114.022879,92.7751678 L114.022879,92.7751678 Z" id="Fill-23" fill="#696A69"></path>
            </g>
        </g>
    </g>
</svg>