<?xml version="1.0" encoding="UTF-8" standalone="no"?>
<svg
   xmlns:dc="http://purl.org/dc/elements/1.1/"
   xmlns:cc="http://creativecommons.org/ns#"
   xmlns:rdf="http://www.w3.org/1999/02/22-rdf-syntax-ns#"
   xmlns:svg="http://www.w3.org/2000/svg"
   xmlns="http://www.w3.org/2000/svg"
   xmlns:sodipodi="http://sodipodi.sourceforge.net/DTD/sodipodi-0.dtd"
   xmlns:inkscape="http://www.inkscape.org/namespaces/inkscape"
   inkscape:export-ydpi="199.81903"
   inkscape:export-xdpi="199.81903"
   inkscape:export-filename="C:\Dropbox\ESRF\GR_ESRF\logo\logo_horizontal_no_lines.png"
   inkscape:version="1.0 (4035a4fb49, 2020-05-01)"
   sodipodi:docname="logo_horizontal_no_lines.svg"
   viewBox="0 0 601.62817 209.77819"
   height="209.77818"
   width="601.62817"
   xml:space="preserve"
   id="svg2"
   version="1.1"><metadata
     id="metadata8"><rdf:RDF><cc:Work
         rdf:about=""><dc:format>image/svg+xml</dc:format><dc:type
           rdf:resource="http://purl.org/dc/dcmitype/StillImage" /><dc:title></dc:title></cc:Work></rdf:RDF></metadata><defs
     id="defs6" /><sodipodi:namedview
     inkscape:current-layer="g12"
     inkscape:window-maximized="1"
     inkscape:window-y="-8"
     inkscape:window-x="-8"
     inkscape:cy="0.89268553"
     inkscape:cx="343.89582"
     inkscape:zoom="1"
     inkscape:bbox-nodes="true"
     inkscape:snap-bbox="true"
     fit-margin-bottom="0"
     fit-margin-right="0"
     fit-margin-left="0"
     fit-margin-top="0"
     showgrid="false"
     id="namedview4"
     inkscape:window-height="1377"
     inkscape:window-width="2560"
     inkscape:pageshadow="2"
     inkscape:pageopacity="0"
     guidetolerance="10"
     gridtolerance="10"
     objecttolerance="10"
     borderopacity="1"
     bordercolor="#666666"
     pagecolor="#ffffff" /><g
     transform="matrix(1.3333333,0,0,-1.3333333,-133.61386,405.81706)"
     inkscape:label="ink_ext_XXXXXX"
     inkscape:groupmode="layer"
     id="g10"><g
       transform="scale(0.1)"
       id="g12"><g
         transform="matrix(0.73996875,0,0,0.73996875,743.062,453.71523)"
         id="g1156"><path
           d="m 1740.67,2109.12 c -30.58,47.58 -94.01,61.39 -141.6,30.81 -47.59,-30.59 -61.39,-94.02 -30.81,-141.6 30.58,-47.59 94.02,-61.38 141.6,-30.81 47.58,30.58 61.4,94 30.81,141.6 v 0"
           style="fill:#2e2f7e;fill-opacity:1;fill-rule:nonzero;stroke:none"
           id="path22" /><path
           d="m 1867.34,2339.95 c -51.45,23.49 -112.3,0.8 -135.77,-50.64 -23.51,-51.46 -0.83,-112.28 50.64,-135.78 51.46,-23.49 112.26,-0.81 135.78,50.64 23.47,51.46 0.78,112.28 -50.65,135.78 v 0"
           style="fill:#2e2f7e;fill-opacity:1;fill-rule:nonzero;stroke:none"
           id="path24" /><path
           d="m 1844.26,2609.31 c -56,-8.06 -94.9,-60.03 -86.86,-116.01 8.04,-55.98 60.01,-94.89 116.01,-86.85 55.99,8.06 94.88,60.04 86.84,116 -8.02,55.99 -60,94.9 -115.99,86.86 v 0"
           style="fill:#2e2f7e;fill-opacity:1;fill-rule:nonzero;stroke:none"
           id="path26" /><path
           d="m 1678.16,2812.4 c -42.73,-37.05 -47.35,-101.8 -10.3,-144.55 37.01,-42.74 101.78,-47.39 144.51,-10.33 42.79,37.03 47.41,101.8 10.35,144.53 -37.05,42.76 -101.77,47.38 -144.56,10.35 v 0"
           style="fill:#2e2f7e;fill-opacity:1;fill-rule:nonzero;stroke:none"
           id="path28" /><path
           d="m 1431.27,2911.43 c -15.96,-54.28 15.16,-111.24 69.45,-127.19 54.23,-15.94 111.24,15.18 127.18,69.44 15.94,54.29 -15.19,111.28 -69.48,127.18 -54.24,15.94 -111.25,-15.17 -127.15,-69.43 v 0"
           style="fill:#2e2f7e;fill-opacity:1;fill-rule:nonzero;stroke:none"
           id="path30" /><path
           d="m 1170.12,2853.68 c 15.93,-54.26 72.9,-85.38 127.17,-69.44 54.27,15.95 85.39,72.91 69.45,127.19 -15.95,54.26 -72.91,85.37 -127.19,69.43 -54.27,-15.9 -85.38,-72.89 -69.43,-127.18 v 0"
           style="fill:#2e2f7e;fill-opacity:1;fill-rule:nonzero;stroke:none"
           id="path32" /><path
           d="m 985.586,2657.52 c 42.764,-37.06 107.514,-32.41 144.564,10.33 37.03,42.75 32.41,107.5 -10.35,144.55 -42.74,37.03 -107.51,32.41 -144.534,-10.35 -37.051,-42.73 -32.414,-107.5 10.32,-144.53 v 0"
           style="fill:#2e2f7e;fill-opacity:1;fill-rule:nonzero;stroke:none"
           id="path34" /><path
           d="m 924.578,2406.45 c 55.981,-8.04 107.952,30.87 116.012,86.85 8.04,55.98 -30.86,107.95 -86.86,116.01 -55.988,8.04 -107.937,-30.87 -115.996,-86.86 -8.039,-55.96 30.852,-107.94 86.844,-116 v 0"
           style="fill:#2e2f7e;fill-opacity:1;fill-rule:nonzero;stroke:none"
           id="path36" /><path
           d="m 1027.15,2153.53 c 51.44,23.5 74.13,84.32 50.63,135.78 -23.48,51.44 -84.311,74.13 -135.776,50.64 -51.445,-23.5 -74.121,-84.32 -50.637,-135.78 23.488,-51.45 84.317,-74.13 135.783,-50.64 v 0"
           style="fill:#2e2f7e;fill-opacity:1;fill-rule:nonzero;stroke:none"
           id="path38" /><path
           d="m 1241.09,1998.33 c 30.57,47.58 16.77,111.01 -30.81,141.6 -47.58,30.58 -111.02,16.77 -141.6,-30.81 -30.58,-47.6 -16.78,-111.02 30.79,-141.6 47.59,-30.57 111.05,-16.78 141.62,30.81 v 0"
           style="fill:#2e2f7e;fill-opacity:1;fill-rule:nonzero;stroke:none"
           id="path40" /><path
           d="m 1507.14,1974.25 c 0,56.56 -45.92,102.48 -102.47,102.48 -56.55,0 -102.47,-45.92 -102.47,-102.48 0,-56.56 45.92,-102.47 102.47,-102.47 56.55,0 102.47,45.91 102.47,102.47 v 0"
           style="fill:#2e2f7e;fill-opacity:1;fill-rule:nonzero;stroke:none"
           id="path42" /><path
           d="m 1653.46,1793.62 c -9.94,33.91 -45.56,53.36 -79.48,43.38 -33.95,-9.98 -53.39,-45.56 -43.42,-79.51 9.98,-33.91 45.55,-53.36 79.51,-43.38 33.91,9.93 53.36,45.55 43.39,79.51 v 0"
           style="fill:#2e2f7e;fill-opacity:1;fill-rule:nonzero;stroke:none"
           id="path44" /><path
           d="m 1827.53,1889.67 c -19.08,29.72 -58.72,38.34 -88.48,19.21 -29.74,-19.08 -38.39,-58.71 -19.26,-88.46 19.13,-29.76 58.76,-38.4 88.52,-19.27 29.76,19.12 38.35,58.77 19.22,88.52 v 0"
           style="fill:#2e2f7e;fill-opacity:1;fill-rule:nonzero;stroke:none"
           id="path46" /><path
           d="m 1963.21,2033.99 c -26.7,23.17 -67.17,20.26 -90.32,-6.45 -23.19,-26.72 -20.27,-67.19 6.43,-90.33 26.74,-23.15 67.21,-20.26 90.37,6.44 23.14,26.73 20.23,67.2 -6.48,90.34 v 0"
           style="fill:#2e2f7e;fill-opacity:1;fill-rule:nonzero;stroke:none"
           id="path48" /><path
           d="m 2055.75,2208.49 c -32.16,14.68 -70.17,0.5 -84.87,-31.65 -14.69,-32.15 -0.5,-70.17 31.65,-84.87 32.16,-14.68 70.18,-0.51 84.86,31.65 14.7,32.15 0.52,70.17 -31.64,84.87 v 0"
           style="fill:#2e2f7e;fill-opacity:1;fill-rule:nonzero;stroke:none"
           id="path50" /><path
           d="m 2095.02,2400.95 c -34.97,5.04 -67.5,-19.26 -72.48,-54.25 -5.04,-35 19.26,-67.48 54.24,-72.52 35.02,-5.03 67.5,19.29 72.53,54.28 5.04,34.98 -19.31,67.47 -54.29,72.49 v 0"
           style="fill:#2e2f7e;fill-opacity:1;fill-rule:nonzero;stroke:none"
           id="path52" /><path
           d="m 2076.78,2599.66 c -34.98,-5.04 -59.28,-37.52 -54.24,-72.52 4.98,-35 37.51,-59.29 72.48,-54.26 34.98,5.02 59.33,37.52 54.29,72.5 -5.03,34.99 -37.51,59.31 -72.53,54.28 v 0"
           style="fill:#2e2f7e;fill-opacity:1;fill-rule:nonzero;stroke:none"
           id="path54" /><path
           d="m 2002.53,2781.87 c -32.15,-14.69 -46.34,-52.72 -31.65,-84.87 14.7,-32.16 52.71,-46.34 84.87,-31.65 32.16,14.69 46.34,52.72 31.64,84.87 -14.68,32.15 -52.7,46.33 -84.86,31.65 v 0"
           style="fill:#2e2f7e;fill-opacity:1;fill-rule:nonzero;stroke:none"
           id="path56" /><path
           d="m 1879.32,2936.63 c -26.7,-23.14 -29.62,-63.61 -6.43,-90.34 23.15,-26.7 63.62,-29.61 90.32,-6.44 26.71,23.14 29.62,63.61 6.48,90.32 -23.16,26.72 -63.63,29.61 -90.37,6.46 v 0"
           style="fill:#2e2f7e;fill-opacity:1;fill-rule:nonzero;stroke:none"
           id="path58" /><path
           d="m 1719.79,3053.43 c -19.13,-29.73 -10.48,-69.39 19.26,-88.5 29.76,-19.11 69.4,-10.49 88.48,19.24 19.13,29.75 10.54,69.4 -19.22,88.52 -29.76,19.1 -69.39,10.49 -88.52,-19.26 v 0"
           style="fill:#2e2f7e;fill-opacity:1;fill-rule:nonzero;stroke:none"
           id="path60" /><path
           d="m 1530.56,3122.01 c -9.97,-33.93 9.47,-69.53 43.42,-79.49 33.92,-9.98 69.54,9.47 79.48,43.41 9.97,33.9 -9.48,69.52 -43.39,79.48 -33.96,9.95 -69.53,-9.49 -79.51,-43.4 v 0"
           style="fill:#2e2f7e;fill-opacity:1;fill-rule:nonzero;stroke:none"
           id="path62" /><path
           d="m 1334.95,3126.68 c 0,-35.38 28.69,-64.06 64.03,-64.06 35.35,0 64.03,28.68 64.03,64.06 0,35.33 -28.68,64.02 -64.03,64.02 -35.34,0 -64.03,-28.69 -64.03,-64.02 v 0"
           style="fill:#2e2f7e;fill-opacity:1;fill-rule:nonzero;stroke:none"
           id="path64" /><path
           d="m 1144.52,3085.93 c 9.98,-33.94 45.58,-53.39 79.5,-43.41 33.92,9.96 53.36,45.56 43.41,79.49 -9.95,33.91 -45.57,53.35 -79.48,43.4 -33.94,-9.96 -53.39,-45.58 -43.43,-79.48 v 0"
           style="fill:#2e2f7e;fill-opacity:1;fill-rule:nonzero;stroke:none"
           id="path66" /><path
           d="m 970.438,2984.17 c 19.105,-29.73 58.762,-38.35 88.502,-19.24 29.74,19.11 38.35,58.77 19.26,88.5 -19.13,29.75 -58.77,38.36 -88.52,19.26 -29.731,-19.12 -38.364,-58.77 -19.242,-88.52 v 0"
           style="fill:#2e2f7e;fill-opacity:1;fill-rule:nonzero;stroke:none"
           id="path68" /><path
           d="m 834.773,2839.85 c 26.731,-23.17 67.2,-20.26 90.344,6.44 23.145,26.73 20.254,67.2 -6.465,90.34 -26.699,23.15 -67.199,20.26 -90.351,-6.46 -23.133,-26.71 -20.242,-67.18 6.472,-90.32 v 0"
           style="fill:#2e2f7e;fill-opacity:1;fill-rule:nonzero;stroke:none"
           id="path70" /><path
           d="m 747.922,2665.35 c 32.144,-14.69 70.176,-0.51 84.859,31.65 14.699,32.15 0.512,70.18 -31.636,84.87 -32.18,14.68 -70.176,0.5 -84.868,-31.65 -14.695,-32.15 -0.507,-70.18 31.645,-84.87 v 0"
           style="fill:#2e2f7e;fill-opacity:1;fill-rule:nonzero;stroke:none"
           id="path72" /><path
           d="m 708.645,2472.88 c 35.007,-5.03 67.476,19.26 72.515,54.26 5.012,35 -19.297,67.48 -54.285,72.52 -35,5.03 -67.473,-19.29 -72.512,-54.28 -5.027,-34.98 19.289,-67.48 54.282,-72.5 v 0"
           style="fill:#2e2f7e;fill-opacity:1;fill-rule:nonzero;stroke:none"
           id="path74" /><path
           d="m 726.875,2274.18 c 34.988,5.04 59.297,37.52 54.285,72.52 -5.039,34.99 -37.508,59.29 -72.515,54.25 -34.993,-5.02 -59.309,-37.51 -54.282,-72.49 5.039,-34.99 37.512,-59.31 72.512,-54.28 v 0"
           style="fill:#2e2f7e;fill-opacity:1;fill-rule:nonzero;stroke:none"
           id="path76" /><path
           d="m 801.145,2091.97 c 32.148,14.7 46.335,52.72 31.636,84.87 -14.683,32.15 -52.715,46.33 -84.859,31.65 -32.152,-14.7 -46.34,-52.72 -31.645,-84.87 14.692,-32.16 52.688,-46.33 84.868,-31.65 v 0"
           style="fill:#2e2f7e;fill-opacity:1;fill-rule:nonzero;stroke:none"
           id="path78" /><path
           d="m 918.652,1937.21 c 26.719,23.14 29.61,63.61 6.465,90.33 -23.144,26.71 -63.613,29.62 -90.344,6.45 -26.714,-23.14 -29.605,-63.61 -6.472,-90.34 23.152,-26.7 63.652,-29.59 90.351,-6.44 v 0"
           style="fill:#2e2f7e;fill-opacity:1;fill-rule:nonzero;stroke:none"
           id="path80" /><path
           d="m 1078.2,1820.42 c 19.09,29.75 10.48,69.38 -19.26,88.46 -29.74,19.13 -69.397,10.51 -88.502,-19.21 -19.122,-29.75 -10.489,-69.4 19.242,-88.52 29.75,-19.13 69.39,-10.49 88.52,19.27 v 0"
           style="fill:#2e2f7e;fill-opacity:1;fill-rule:nonzero;stroke:none"
           id="path82" /><path
           d="m 1267.43,1757.49 c 9.95,33.95 -9.49,69.53 -43.41,79.51 -33.92,9.98 -69.52,-9.47 -79.5,-43.38 -9.96,-33.96 9.49,-69.58 43.43,-79.51 33.91,-9.98 69.53,9.47 79.48,43.38 v 0"
           style="fill:#2e2f7e;fill-opacity:1;fill-rule:nonzero;stroke:none"
           id="path84" /><path
           d="m 1463.01,1747.19 c 0,35.34 -28.68,64.03 -64.03,64.03 -35.34,0 -64.03,-28.69 -64.03,-64.03 0,-35.39 28.69,-64.08 64.03,-64.08 35.35,0 64.03,28.69 64.03,64.08 v 0"
           style="fill:#2e2f7e;fill-opacity:1;fill-rule:nonzero;stroke:none"
           id="path86" /><path
           d="m 1697.94,1619.67 c -7.94,27.13 -36.46,42.7 -63.61,34.75 -27.13,-7.99 -42.69,-36.46 -34.7,-63.61 7.94,-27.13 36.44,-42.69 63.56,-34.75 27.18,7.99 42.74,36.49 34.75,63.61 v 0"
           style="fill:#2e2f7e;fill-opacity:1;fill-rule:nonzero;stroke:none"
           id="path88" /><path
           d="m 1918.96,1735.13 c -15.3,23.79 -46.99,30.68 -70.79,15.39 -23.79,-15.3 -30.72,-46.99 -15.42,-70.79 15.29,-23.79 47.03,-30.72 70.82,-15.43 23.79,15.3 30.68,47.03 15.39,70.83 v 0"
           style="fill:#2e2f7e;fill-opacity:1;fill-rule:nonzero;stroke:none"
           id="path90" /><path
           d="m 2091.09,1905.1 c -21.38,18.52 -53.78,16.21 -72.3,-5.18 -18.52,-21.35 -16.21,-53.73 5.17,-72.26 21.4,-18.52 53.78,-16.21 72.26,5.18 18.53,21.35 16.22,53.73 -5.13,72.26 v 0"
           style="fill:#2e2f7e;fill-opacity:1;fill-rule:nonzero;stroke:none"
           id="path92" /><path
           d="m 2215.05,2117.36 c -25.74,11.76 -56.13,0.41 -67.87,-25.32 -11.78,-25.73 -0.41,-56.15 25.32,-67.89 25.72,-11.76 56.12,-0.41 67.86,25.32 11.79,25.73 0.42,56.13 -25.31,67.89 v 0"
           style="fill:#2e2f7e;fill-opacity:1;fill-rule:nonzero;stroke:none"
           id="path94" /><path
           d="m 2269.19,2359.91 c -28,4.02 -54,-15.43 -58.03,-43.43 -4.01,-28 15.43,-53.99 43.43,-58.01 28,-4.02 54,15.43 58.03,43.43 4.02,28 -15.43,53.98 -43.43,58.01 v 0"
           style="fill:#2e2f7e;fill-opacity:1;fill-rule:nonzero;stroke:none"
           id="path96" /><path
           d="m 2254.59,2609.68 c -28,-4.02 -47.44,-30 -43.43,-58 4.03,-28 30.03,-47.45 58.03,-43.43 28,4.04 47.45,30.03 43.43,58 -4.03,28 -30.03,47.45 -58.03,43.43 v 0"
           style="fill:#2e2f7e;fill-opacity:1;fill-rule:nonzero;stroke:none"
           id="path98" /><path
           d="m 2172.5,2844 c -25.73,-11.73 -37.1,-42.15 -25.32,-67.89 11.74,-25.7 42.13,-37.05 67.87,-25.32 25.73,11.76 37.1,42.16 25.31,67.9 -11.74,25.72 -42.14,37.07 -67.86,25.31 v 0"
           style="fill:#2e2f7e;fill-opacity:1;fill-rule:nonzero;stroke:none"
           id="path100" /><path
           d="m 2023.96,3051.85 c -21.38,-18.52 -23.69,-50.91 -5.17,-72.28 18.52,-21.36 50.92,-23.68 72.3,-5.16 21.35,18.52 23.66,50.91 5.13,72.27 -18.48,21.36 -50.86,23.7 -72.26,5.17 v 0"
           style="fill:#2e2f7e;fill-opacity:1;fill-rule:nonzero;stroke:none"
           id="path102" /><path
           d="m 1832.75,3199.78 c -15.3,-23.79 -8.37,-55.51 15.42,-70.8 23.8,-15.29 55.49,-8.38 70.79,15.41 15.29,23.79 8.4,55.51 -15.39,70.8 -23.79,15.29 -55.53,8.39 -70.82,-15.41 v 0"
           style="fill:#2e2f7e;fill-opacity:1;fill-rule:nonzero;stroke:none"
           id="path104" /><path
           d="m 1599.63,3288.72 c -7.99,-27.15 7.57,-55.65 34.7,-63.62 27.15,-7.95 55.67,7.6 63.61,34.74 7.99,27.12 -7.57,55.62 -34.75,63.6 -27.12,7.96 -55.62,-7.6 -63.56,-34.72 v 0"
           style="fill:#2e2f7e;fill-opacity:1;fill-rule:nonzero;stroke:none"
           id="path106" /><path
           d="m 1347.74,3308.32 c 0,-28.27 22.97,-51.23 51.24,-51.23 28.32,0 51.23,22.96 51.23,51.23 0,28.28 -22.91,51.24 -51.23,51.24 -28.27,0 -51.24,-22.96 -51.24,-51.24 v 0"
           style="fill:#2e2f7e;fill-opacity:1;fill-rule:nonzero;stroke:none"
           id="path108" /><path
           d="m 1100.05,3259.84 c 7.97,-27.14 36.45,-42.69 63.59,-34.74 27.15,7.97 42.69,36.47 34.72,63.62 -7.97,27.12 -36.45,42.68 -63.59,34.72 -27.14,-7.98 -42.69,-36.48 -34.72,-63.6 v 0"
           style="fill:#2e2f7e;fill-opacity:1;fill-rule:nonzero;stroke:none"
           id="path110" /><path
           d="m 890.371,3144.39 c 15.305,-23.79 47.012,-30.7 70.801,-15.41 23.801,15.29 30.703,47.01 15.41,70.8 -15.293,23.8 -47.012,30.7 -70.801,15.41 -23.789,-15.29 -30.691,-47.01 -15.41,-70.8 v 0"
           style="fill:#2e2f7e;fill-opacity:1;fill-rule:nonzero;stroke:none"
           id="path112" /><path
           d="m 706.926,2974.41 c 21.355,-18.52 53.75,-16.2 72.246,5.16 18.531,21.37 16.211,53.76 -5.149,72.28 -21.394,18.53 -53.75,16.19 -72.277,-5.17 -18.523,-21.36 -16.199,-53.75 5.18,-72.27 v 0"
           style="fill:#2e2f7e;fill-opacity:1;fill-rule:nonzero;stroke:none"
           id="path114" /><path
           d="m 582.938,2750.79 c 25.714,-11.73 56.132,-0.38 67.89,25.32 11.738,25.74 0.395,56.16 -25.34,67.89 -25.715,11.76 -56.125,0.41 -67.883,-25.31 -11.738,-25.74 -0.398,-56.14 25.333,-67.9 v 0"
           style="fill:#2e2f7e;fill-opacity:1;fill-rule:nonzero;stroke:none"
           id="path116" /><path
           d="m 528.801,2508.25 c 27.996,-4.02 53.98,15.43 57.996,43.43 4.055,28 -15.43,53.98 -43.399,58 -28,4.02 -53.984,-15.43 -58.007,-43.43 -4.036,-27.97 15.41,-53.96 43.41,-58 v 0"
           style="fill:#2e2f7e;fill-opacity:1;fill-rule:nonzero;stroke:none"
           id="path118" /><path
           d="m 543.398,2258.47 c 27.969,4.02 47.454,30.01 43.399,58.01 -4.016,28 -30,47.45 -57.996,43.43 -28,-4.03 -47.446,-30.01 -43.41,-58.01 4.023,-28 30.007,-47.45 58.007,-43.43 v 0"
           style="fill:#2e2f7e;fill-opacity:1;fill-rule:nonzero;stroke:none"
           id="path120" /><path
           d="m 625.488,2024.15 c 25.735,11.74 37.078,42.16 25.34,67.89 -11.758,25.73 -42.176,37.08 -67.89,25.32 -25.731,-11.76 -37.071,-42.16 -25.333,-67.89 11.758,-25.73 42.168,-37.08 67.883,-25.32 v 0"
           style="fill:#2e2f7e;fill-opacity:1;fill-rule:nonzero;stroke:none"
           id="path122" /><path
           d="m 774.023,1827.66 c 21.36,18.53 23.68,50.91 5.149,72.26 -18.496,21.39 -50.891,23.7 -72.246,5.18 -21.379,-18.53 -23.703,-50.91 -5.18,-72.26 18.527,-21.39 50.883,-23.7 72.277,-5.18 v 0"
           style="fill:#2e2f7e;fill-opacity:1;fill-rule:nonzero;stroke:none"
           id="path124" /><path
           d="m 976.582,1679.73 c 15.293,23.8 8.391,55.49 -15.41,70.79 -23.789,15.29 -55.496,8.4 -70.801,-15.39 -15.281,-23.8 -8.379,-55.53 15.41,-70.83 23.789,-15.29 55.508,-8.36 70.801,15.43 v 0"
           style="fill:#2e2f7e;fill-opacity:1;fill-rule:nonzero;stroke:none"
           id="path126" /><path
           d="m 1198.36,1590.81 c 7.97,27.15 -7.57,55.62 -34.72,63.61 -27.14,7.95 -55.62,-7.62 -63.59,-34.75 -7.97,-27.12 7.58,-55.62 34.72,-63.61 27.14,-7.94 55.62,7.62 63.59,34.75 v 0"
           style="fill:#2e2f7e;fill-opacity:1;fill-rule:nonzero;stroke:none"
           id="path128" /><path
           d="m 1450.21,1571.17 c 0,28.27 -22.91,51.23 -51.23,51.23 -28.27,0 -51.24,-22.96 -51.24,-51.23 0,-28.27 22.97,-51.23 51.24,-51.23 28.32,0 51.23,22.96 51.23,51.23 v 0"
           style="fill:#2e2f7e;fill-opacity:1;fill-rule:nonzero;stroke:none"
           id="path130" /><path
           d="m 1725.38,1468.46 c -5.96,20.37 -27.34,32.02 -47.67,26.07 -20.38,-6.01 -32.02,-27.36 -26.06,-47.73 5.96,-20.33 27.34,-32.02 47.68,-26.01 20.38,5.96 32.01,27.35 26.05,47.67 v 0"
           style="fill:#2e2f7e;fill-opacity:1;fill-rule:nonzero;stroke:none"
           id="path132" /><path
           d="m 1987.66,1591.96 c -11.46,17.83 -35.25,23.01 -53.08,11.54 -17.84,-11.44 -23.01,-35.24 -11.56,-53.07 11.46,-17.89 35.25,-23.06 53.08,-11.56 17.84,11.47 23.01,35.26 11.56,53.09 v 0"
           style="fill:#2e2f7e;fill-opacity:1;fill-rule:nonzero;stroke:none"
           id="path134" /><path
           d="m 2196.25,1793.25 c -16.04,13.86 -40.34,12.15 -54.25,-3.88 -13.86,-16.03 -12.15,-40.34 3.88,-54.19 16.04,-13.9 40.34,-12.15 54.25,3.88 13.85,16.02 12.15,40.28 -3.88,54.19 v 0"
           style="fill:#2e2f7e;fill-opacity:1;fill-rule:nonzero;stroke:none"
           id="path136" /><path
           d="m 2345.98,2048.93 c -19.31,8.81 -42.09,0.3 -50.92,-18.98 -8.82,-19.29 -0.31,-42.11 18.99,-50.92 19.32,-8.82 42.08,-0.29 50.91,18.99 8.83,19.29 0.33,42.11 -18.98,50.91 v 0"
           style="fill:#2e2f7e;fill-opacity:1;fill-rule:nonzero;stroke:none"
           id="path138" /><path
           d="m 2420.63,2330.2 c -20.97,3 -40.46,-11.57 -43.52,-32.57 -3,-21 11.6,-40.5 32.58,-43.5 21.01,-3.03 40.51,11.55 43.51,32.55 3.01,20.99 -11.55,40.49 -32.57,43.52 v 0"
           style="fill:#2e2f7e;fill-opacity:1;fill-rule:nonzero;stroke:none"
           id="path140" /><path
           d="m 2409.69,2619.71 c -20.98,-3.01 -35.58,-22.51 -32.58,-43.5 3.06,-21 22.55,-35.57 43.52,-32.57 21.02,3.02 35.58,22.52 32.57,43.52 -3,20.99 -22.5,35.57 -43.51,32.55 v 0"
           style="fill:#2e2f7e;fill-opacity:1;fill-rule:nonzero;stroke:none"
           id="path142" /><path
           d="m 2314.05,2900.48 c -19.3,-8.8 -27.81,-31.63 -18.99,-50.91 8.83,-19.29 31.61,-27.81 50.92,-18.98 19.31,8.8 27.81,31.61 18.98,50.91 -8.83,19.28 -31.59,27.78 -50.91,18.98 v 0"
           style="fill:#2e2f7e;fill-opacity:1;fill-rule:nonzero;stroke:none"
           id="path144" /><path
           d="m 2145.88,3133 c -16.03,-13.88 -17.74,-38.18 -3.88,-54.21 13.91,-16.03 38.21,-17.77 54.25,-3.86 16.03,13.88 17.73,38.16 3.83,54.19 -13.86,16.03 -38.16,17.77 -54.2,3.88 v 0"
           style="fill:#2e2f7e;fill-opacity:1;fill-rule:nonzero;stroke:none"
           id="path146" /><path
           d="m 1923.02,3317.75 c -11.45,-17.85 -6.28,-41.62 11.56,-53.11 17.83,-11.45 41.62,-6.28 53.08,11.56 11.45,17.85 6.28,41.65 -11.56,53.1 -17.83,11.48 -41.62,6.29 -53.08,-11.55 v 0"
           style="fill:#2e2f7e;fill-opacity:1;fill-rule:nonzero;stroke:none"
           id="path148" /><path
           d="m 1651.65,3432.7 c -5.96,-20.36 5.68,-41.72 26.06,-47.7 20.33,-5.96 41.71,5.7 47.67,26.05 5.96,20.35 -5.67,41.72 -26.05,47.68 -20.34,5.98 -41.72,-5.68 -47.68,-26.03 v 0"
           style="fill:#2e2f7e;fill-opacity:1;fill-rule:nonzero;stroke:none"
           id="path150" /><path
           d="m 1360.57,3461.62 c 0,-21.23 17.2,-38.44 38.41,-38.44 21.23,0 38.44,17.21 38.44,38.44 0,21.2 -17.21,38.41 -38.44,38.41 -21.21,0 -38.41,-17.21 -38.41,-38.41 v 0"
           style="fill:#2e2f7e;fill-opacity:1;fill-rule:nonzero;stroke:none"
           id="path152" /><path
           d="m 1078.27,3411.05 c 5.98,-20.35 27.35,-32.01 47.7,-26.05 20.35,5.98 32.02,27.34 26.06,47.7 -5.99,20.35 -27.36,32.01 -47.7,26.03 -20.36,-5.96 -32.02,-27.33 -26.06,-47.68 v 0"
           style="fill:#2e2f7e;fill-opacity:1;fill-rule:nonzero;stroke:none"
           id="path154" /><path
           d="m 810.332,3276.2 c 11.453,-17.84 35.242,-23.01 53.086,-11.56 17.852,11.49 23.027,35.26 11.555,53.11 -11.465,17.84 -35.254,23.03 -53.086,11.55 -17.856,-11.45 -23.032,-35.25 -11.555,-53.1 v 0"
           style="fill:#2e2f7e;fill-opacity:1;fill-rule:nonzero;stroke:none"
           id="path156" /><path
           d="m 601.77,3074.93 c 16.023,-13.91 40.308,-12.17 54.187,3.86 13.906,16.03 12.148,40.33 -3.879,54.21 -16.023,13.89 -40.308,12.15 -54.187,-3.88 -13.887,-16.03 -12.149,-40.31 3.879,-54.19 v 0"
           style="fill:#2e2f7e;fill-opacity:1;fill-rule:nonzero;stroke:none"
           id="path158" /><path
           d="m 452.012,2830.59 c 19.289,-8.83 42.109,-0.31 50.918,18.98 8.8,19.28 0.293,42.11 -18.992,50.91 -19.29,8.8 -42.114,0.3 -50.911,-18.98 -8.816,-19.3 -0.3,-42.11 18.985,-50.91 v 0"
           style="fill:#2e2f7e;fill-opacity:1;fill-rule:nonzero;stroke:none"
           id="path160" /><path
           d="m 383.02,2543.64 c 20.996,-3 40.488,11.57 43.523,32.57 3,20.99 -11.582,40.49 -32.578,43.5 -20.996,3.02 -40.496,-11.56 -43.496,-32.55 -3.028,-21 11.574,-40.5 32.551,-43.52 v 0"
           style="fill:#2e2f7e;fill-opacity:1;fill-rule:nonzero;stroke:none"
           id="path162" /><path
           d="m 393.965,2254.13 c 20.996,3 35.578,22.5 32.578,43.5 -3.035,21 -22.527,35.57 -43.523,32.57 -20.977,-3.03 -35.579,-22.53 -32.551,-43.52 3,-21 22.5,-35.58 43.496,-32.55 v 0"
           style="fill:#2e2f7e;fill-opacity:1;fill-rule:nonzero;stroke:none"
           id="path164" /><path
           d="m 483.938,1979.03 c 19.285,8.81 27.792,31.63 18.992,50.92 -8.809,19.28 -31.629,27.79 -50.918,18.98 -19.285,-8.8 -27.801,-31.62 -18.985,-50.91 8.797,-19.28 31.621,-27.81 50.911,-18.99 v 0"
           style="fill:#2e2f7e;fill-opacity:1;fill-rule:nonzero;stroke:none"
           id="path166" /><path
           d="m 652.078,1735.18 c 16.027,13.85 17.785,38.16 3.879,54.19 -13.879,16.03 -38.164,17.74 -54.187,3.88 -16.028,-13.91 -17.766,-38.17 -3.879,-54.19 13.879,-16.03 38.164,-17.78 54.187,-3.88 v 0"
           style="fill:#2e2f7e;fill-opacity:1;fill-rule:nonzero;stroke:none"
           id="path168" /><path
           d="m 874.973,1550.43 c 11.472,17.83 6.297,41.63 -11.555,53.07 -17.844,11.47 -41.633,6.29 -53.086,-11.54 -11.477,-17.83 -6.301,-41.62 11.555,-53.09 17.832,-11.5 41.621,-6.33 53.086,11.56 v 0"
           style="fill:#2e2f7e;fill-opacity:1;fill-rule:nonzero;stroke:none"
           id="path170" /><path
           d="m 1152.03,1446.8 c 5.96,20.37 -5.71,41.72 -26.06,47.73 -20.35,5.95 -41.72,-5.7 -47.7,-26.07 -5.96,-20.32 5.7,-41.71 26.06,-47.67 20.34,-6.01 41.71,5.68 47.7,26.01 v 0"
           style="fill:#2e2f7e;fill-opacity:1;fill-rule:nonzero;stroke:none"
           id="path172" /><path
           d="m 1437.42,1412.25 c 0,21.2 -17.21,38.38 -38.44,38.38 -21.21,0 -38.41,-17.18 -38.41,-38.38 0,-21.21 17.2,-38.44 38.41,-38.44 21.23,0 38.44,17.23 38.44,38.44 v 0"
           style="fill:#2e2f7e;fill-opacity:1;fill-rule:nonzero;stroke:none"
           id="path174" /></g><g
         id="g1357"><g
           id="g1053"
           transform="matrix(1.0000145,0,0,1.0000145,2714.7659,1555.3897)"><path
             id="path14"
             style="fill:#2e2f7e;fill-opacity:1;fill-rule:nonzero;stroke:none"
             d="M 38.8281,1248.54 H 662.629 v -217.29 h -27.031 c -24.868,153.5 -101.621,180.53 -247.571,180.53 -59.464,0 -78.918,-4.31 -78.918,-50.81 V 910.16 h 5.411 c 100.539,0 153.515,29.192 169.726,161.09 h 28.109 V 705.828 H 484.246 C 471.27,840.961 416.145,873.398 309.109,873.398 V 611.781 c 0,-47.582 20.539,-60.543 90.813,-60.543 105.945,0 216.223,28.102 284.336,191.352 H 714.52 L 671.277,517.719 H 38.8281 v 27.031 c 61.6329,6.488 95.1489,9.73 95.1489,76.75 v 523.26 c 0,71.35 -45.4106,73.52 -95.1489,76.76 v 27.02" /><path
             id="path16"
             style="fill:#2e2f7e;fill-opacity:1;fill-rule:nonzero;stroke:none"
             d="m 1235.61,1031.25 c -19.46,75.67 -84.32,200.01 -211.9,200.01 -56.21,0 -115.675,-32.45 -115.675,-102.72 0,-58.38 20.539,-82.17 111.345,-127.56 l 158.93,-78.921 c 36.76,-18.387 118.93,-81.098 118.93,-198.93 0,-95.141 -69.2,-225.961 -268.12,-225.961 -102.702,0 -151.354,36.762 -184.862,36.762 -22.703,0 -28.113,-19.45 -32.442,-36.762 h -31.347 v 267.031 h 31.347 c 21.622,-109.168 84.329,-231.34 221.624,-231.34 129.73,0 135.14,107.032 135.14,121.082 0,72.43 -50.81,98.387 -121.08,131.899 l -72.434,34.601 c -184.871,88.637 -184.871,181.619 -184.871,231.339 0,65.95 33.516,212.98 238.925,212.98 86.49,0 137.3,-35.67 168.65,-35.67 24.87,0 30.27,16.21 35.68,36.76 h 32.43 v -234.6 h -30.27" /><path
             id="path18"
             style="fill:#2e2f7e;fill-opacity:1;fill-rule:nonzero;stroke:none"
             d="m 1642.11,890.699 c 141.63,1.082 197.84,24.86 197.84,165.411 0,109.2 -44.32,155.67 -130.82,155.67 -59.45,0 -61.62,-11.89 -67.02,-45.39 z m 474.61,-372.98 H 1895.09 L 1671.3,856.102 h -29.19 V 644.199 c 0,-86.48 23.79,-89.719 95.14,-99.449 v -27.031 h -365.41 v 27.031 c 73.51,8.629 95.13,11.891 95.13,99.449 v 477.861 c 0,92.97 -33.51,95.13 -95.13,99.46 v 27.02 h 348.11 c 75.68,0 304.87,-8.64 304.87,-190.27 0,-132.969 -111.35,-166.489 -169.73,-184.872 l 217.3,-308.109 c 15.14,-19.461 31.35,-20.539 44.33,-20.539 v -27.031" /><path
             id="path20"
             style="fill:#2e2f7e;fill-opacity:1;fill-rule:nonzero;stroke:none"
             d="m 2141.57,1248.54 h 612.99 v -217.29 h -25.96 c -23.78,112.43 -52.97,180.53 -238.91,180.53 -58.38,0 -77.84,-4.31 -77.84,-50.81 V 910.16 h 5.41 c 128.64,0 144.86,75.668 160,161.09 h 27.02 V 705.828 h -27.02 c -11.9,88.652 -29.2,167.57 -165.41,167.57 V 621.5 c 0,-71.352 43.24,-73.512 118.92,-76.75 v -27.031 h -389.2 v 27.031 c 61.62,6.488 95.13,9.73 95.13,76.75 v 523.26 c 0,71.35 -44.32,73.52 -95.13,76.76 v 27.02" /></g><g
           id="g1077"
           transform="matrix(1.0000145,0,0,1.0000145,2708.6449,1692.6617)"><path
             id="path182"
             style="fill:#2e2f7e;fill-opacity:1;fill-rule:nonzero;stroke:none"
             d="M 54.7266,187.75 H 0 v 19.43 H 131.855 V 187.75 H 77.1094 V 47.5 H 54.7266 v 140.25" /><path
             id="path184"
             style="fill:#2e2f7e;fill-opacity:1;fill-rule:nonzero;stroke:none"
             d="m 150.215,207.18 h 21.914 v -58.571 c 0,-5.429 -0.43,-9.507 -0.43,-9.507 h 0.43 c 5,11.089 19.473,25.558 42.324,25.558 26.895,0 39.336,-14.68 39.336,-43.859 V 47.5 h -21.934 v 68.301 c 0,16.07 -3.398,28.73 -21.718,28.73 -17.188,0 -31.446,-11.742 -36.172,-28.261 -1.367,-4.54 -1.836,-9.731 -1.836,-15.161 V 47.5 h -21.914 v 159.68" /><path
             id="path186"
             style="fill:#2e2f7e;fill-opacity:1;fill-rule:nonzero;stroke:none"
             d="m 363.066,118.059 c -0.683,19.691 -12.89,29.203 -27.578,29.203 -16.758,0 -30.332,-10.434 -33.496,-29.203 z m -27.128,46.601 c 32.343,0 49.531,-23.961 49.531,-53.609 0,-2.93 -0.684,-9.473 -0.684,-9.473 h -83.457 c 1.133,-25.1171 18.985,-37.7772 39.336,-37.7772 19.707,0 33.926,13.3398 33.926,13.3398 l 9.062,-16.0898 c 0,0 -16.972,-16.2695 -44.316,-16.2695 -35.977,0 -60.645,26.0195 -60.645,59.9377 0,36.429 24.668,59.941 57.247,59.941" /><path
             id="path188"
             style="fill:#2e2f7e;fill-opacity:1;fill-rule:nonzero;stroke:none"
             d="m 474.844,207.18 h 92.715 v -19.43 h -70.332 v -50 h 57.226 V 118.32 H 497.227 V 66.9492 h 74.199 V 47.5 h -96.582 v 159.68" /><path
             id="path190"
             style="fill:#2e2f7e;fill-opacity:1;fill-rule:nonzero;stroke:none"
             d="m 598.34,161.969 h 21.953 V 93.6484 c 0,-15.8398 3.164,-28.5 21.484,-28.5 23.301,0 37.09,20.5704 37.09,43.1916 v 53.629 H 700.82 V 47.5 h -21.269 v 15.1484 c 0,4.75 0.449,8.3829 0.449,8.3829 h -0.449 c -4.746,-11.3125 -19.668,-26.25 -42.071,-26.25 -25.781,0 -39.14,13.5781 -39.14,43.8906 v 73.2971" /><path
             id="path192"
             style="fill:#2e2f7e;fill-opacity:1;fill-rule:nonzero;stroke:none"
             d="m 735.215,161.969 h 21.269 v -19.918 c 0,-4.75 -0.449,-8.621 -0.449,-8.621 h 0.449 c 5.196,16.761 18.536,29.89 36.172,29.89 2.949,0 5.664,-0.468 5.664,-0.468 v -21.704 c 0,0 -2.949,0.68 -6.347,0.68 -14.004,0 -26.895,-9.957 -32.09,-26.906 -2.051,-6.582 -2.735,-13.602 -2.735,-20.5939 V 47.5 h -21.933 v 114.469" /><path
             id="path194"
             style="fill:#2e2f7e;fill-opacity:1;fill-rule:nonzero;stroke:none"
             d="m 872.754,63.8008 c 21.719,0 39.375,17.168 39.375,41.1602 0,23.75 -17.656,40.699 -39.375,40.699 -21.465,0 -39.356,-16.949 -39.356,-40.699 0,-23.9922 17.891,-41.1602 39.356,-41.1602 z m 0,100.8592 c 34.16,0 61.758,-25.09 61.758,-59.699 0,-34.8516 -27.598,-60.1797 -61.758,-60.1797 -34.141,0 -61.738,25.3281 -61.738,60.1797 0,34.609 27.597,59.699 61.738,59.699" /><path
             id="path196"
             style="fill:#2e2f7e;fill-opacity:1;fill-rule:nonzero;stroke:none"
             d="m 1014.16,63.5508 c 18.11,0 33.01,14.9375 33.01,40.9372 0,24.903 -13.34,40.942 -32.33,40.942 -17.184,0 -33.024,-12 -33.024,-41.16 0,-20.3481 11.309,-40.7192 32.344,-40.7192 z m -53.633,98.4182 h 20.176 v -9.731 c 0,-4.527 -0.469,-8.379 -0.469,-8.379 h 0.469 c 0,0 9.707,20.801 38.417,20.801 30.78,0 50.24,-24.41 50.24,-59.941 0,-36.3987 -21.98,-59.9377 -51.8,-59.9377 -25.119,0 -35.06,18.7695 -35.06,18.7695 h -0.469 c 0,0 0.469,-4.0625 0.469,-9.9414 V 2.26172 H 960.527 V 161.969" /><path
             id="path198"
             style="fill:#2e2f7e;fill-opacity:1;fill-rule:nonzero;stroke:none"
             d="m 1172.73,118.059 c -0.68,19.691 -12.89,29.203 -27.61,29.203 -16.72,0 -30.3,-10.434 -33.46,-29.203 z m -27.14,46.601 c 32.34,0 49.53,-23.961 49.53,-53.609 0,-2.93 -0.67,-9.473 -0.67,-9.473 h -83.47 c 1.13,-25.1171 19.02,-37.7772 39.35,-37.7772 19.69,0 33.93,13.3398 33.93,13.3398 l 9.06,-16.0898 c 0,0 -16.97,-16.2695 -44.36,-16.2695 -35.95,0 -60.6,26.0195 -60.6,59.9377 0,36.429 24.65,59.941 57.23,59.941" /><path
             id="path200"
             style="fill:#2e2f7e;fill-opacity:1;fill-rule:nonzero;stroke:none"
             d="m 1256.21,62.4414 c 18.56,0 30.55,19.4297 30.55,36.3984 v 3.6402 h -5.65 c -16.52,0 -46.36,-1.16 -46.36,-21.7183 0,-9.2812 7.22,-18.3203 21.46,-18.3203 z m 25.35,56.5196 h 4.96 v 2.051 c 0,18.769 -10.62,25.097 -25.09,25.097 -17.64,0 -31.9,-11.078 -31.9,-11.078 l -9.04,16.059 c 0,0 16.5,13.57 42.73,13.57 28.97,0 45.24,-15.84 45.24,-44.781 V 47.5 h -20.35 v 10.8594 c 0,5.1914 0.44,9.039 0.44,9.039 h -0.44 c 0,0 -9.26,-22.6171 -36.65,-22.6171 -19.66,0 -38.9,11.9882 -38.9,34.8398 0,37.7769 49.76,39.3399 69,39.3399" /><path
             id="path202"
             style="fill:#2e2f7e;fill-opacity:1;fill-rule:nonzero;stroke:none"
             d="m 1341.27,161.969 h 21.27 v -15.18 c 0,-4.527 -0.47,-8.359 -0.47,-8.359 h 0.47 c 4.53,9.961 18.1,26.23 42.97,26.23 26.93,0 39.35,-14.68 39.35,-43.859 V 47.5 h -21.93 v 68.301 c 0,16.07 -3.38,28.73 -21.7,28.73 -17.42,0 -31.44,-11.531 -36.19,-28.051 -1.37,-4.511 -1.82,-9.73 -1.82,-15.371 V 47.5 h -21.95 v 114.469" /><path
             id="path204"
             style="fill:#2e2f7e;fill-opacity:1;fill-rule:nonzero;stroke:none"
             d="m 1540.8,82.7891 c 0,0 16.97,-17.1875 40.72,-17.1875 14.94,0 27.58,8.3593 27.58,23.5195 0,34.6089 -77.34,27.1489 -77.34,76.2309 0,24.878 21.48,44.546 51.56,44.546 29.65,0 45.27,-16.078 45.27,-16.078 l -10.19,-18.511 c 0,0 -14.71,13.793 -35.08,13.793 -16.95,0 -28.94,-10.633 -28.94,-23.301 0,-33.012 77.38,-24.223 77.38,-76.0002 0,-24.6524 -19.03,-45.0195 -50.69,-45.0195 -33.92,0 -52.93,21.039 -52.93,21.039 l 12.66,16.9688" /><path
             id="path206"
             style="fill:#2e2f7e;fill-opacity:1;fill-rule:nonzero;stroke:none"
             d="m 1650.08,23.75 c 0,0 6.35,-4.75 13.36,-4.75 8.83,0 16.27,6.3281 20.56,16.7383 l 5.67,13.1211 -47.97,113.1096 h 24.67 l 28.73,-74.8792 c 2.26,-5.8984 4.28,-13.8085 4.28,-13.8085 h 0.46 c 0,0 1.8,7.6875 3.85,13.5703 l 27.81,75.1174 h 23.77 L 1701.64,26.9102 C 1694.65,9.26953 1680.63,0 1664.55,0 c -12.89,0 -22.17,7.01172 -22.17,7.01172 l 7.7,16.73828" /><path
             id="path208"
             style="fill:#2e2f7e;fill-opacity:1;fill-rule:nonzero;stroke:none"
             d="m 1773.81,161.969 h 21.29 v -15.18 c 0,-4.527 -0.47,-8.359 -0.47,-8.359 h 0.47 c 4.53,9.961 18.08,26.23 42.95,26.23 26.93,0 39.37,-14.68 39.37,-43.859 V 47.5 h -21.93 v 68.301 c 0,16.07 -3.4,28.73 -21.72,28.73 -17.42,0 -31.45,-11.531 -36.19,-28.051 -1.35,-4.511 -1.8,-9.73 -1.8,-15.371 V 47.5 h -21.97 v 114.469" /><path
             id="path210"
             style="fill:#2e2f7e;fill-opacity:1;fill-rule:nonzero;stroke:none"
             d="m 1963.4,164.66 c 28.73,0 42.97,-16.73 42.97,-16.73 l -10.41,-15.399 c 0,0 -12.21,13.129 -31.66,13.129 -23.09,0 -39.83,-17.191 -39.83,-40.699 0,-23.3008 16.74,-41.1602 40.51,-41.1602 21.25,0 35.27,15.3789 35.27,15.3789 l 8.83,-16.0586 c 0,0 -15.84,-18.3398 -45.68,-18.3398 -35.98,0 -61.31,25.5703 -61.31,59.9377 0,33.953 25.33,59.941 61.31,59.941" /><path
             id="path212"
             style="fill:#2e2f7e;fill-opacity:1;fill-rule:nonzero;stroke:none"
             d="m 2033.98,207.18 h 21.94 v -58.571 c 0,-5.429 -0.45,-9.507 -0.45,-9.507 h 0.45 c 5,11.089 19.47,25.558 42.3,25.558 26.92,0 39.36,-14.68 39.36,-43.859 V 47.5 h -21.94 v 68.301 c 0,16.07 -3.37,28.73 -21.69,28.73 -17.21,0 -31.45,-11.742 -36.2,-28.261 -1.38,-4.54 -1.83,-9.731 -1.83,-15.161 V 47.5 h -21.94 v 159.68" /><path
             id="path214"
             style="fill:#2e2f7e;fill-opacity:1;fill-rule:nonzero;stroke:none"
             d="m 2170.39,161.969 h 21.27 v -19.918 c 0,-4.75 -0.47,-8.621 -0.47,-8.621 h 0.47 c 5.2,16.761 18.55,29.89 36.19,29.89 2.95,0 5.67,-0.468 5.67,-0.468 v -21.704 c 0,0 -2.95,0.68 -6.35,0.68 -14.01,0 -26.92,-9.957 -32.11,-26.906 -2.03,-6.582 -2.72,-13.602 -2.72,-20.5939 V 47.5 h -21.95 v 114.469" /><path
             id="path216"
             style="fill:#2e2f7e;fill-opacity:1;fill-rule:nonzero;stroke:none"
             d="m 2307.95,63.8008 c 21.7,0 39.35,17.168 39.35,41.1602 0,23.75 -17.65,40.699 -39.35,40.699 -21.5,0 -39.38,-16.949 -39.38,-40.699 0,-23.9922 17.88,-41.1602 39.38,-41.1602 z m 0,100.8592 c 34.14,0 61.76,-25.09 61.76,-59.699 0,-34.8516 -27.62,-60.1797 -61.76,-60.1797 -34.14,0 -61.76,25.3281 -61.76,60.1797 0,34.609 27.62,59.699 61.76,59.699" /><path
             id="path218"
             style="fill:#2e2f7e;fill-opacity:1;fill-rule:nonzero;stroke:none"
             d="m 2400.49,142.73 h -14.94 v 17.661 h 15.58 v 33 h 21.29 v -33 H 2450 V 142.73 h -27.58 V 91.8516 c 0,-22.8711 16.06,-25.7813 24.42,-25.7813 3.16,0 5.21,0.4297 5.21,0.4297 V 47.0508 c 0,0 -3.16,-0.4727 -7.71,-0.4727 -14.69,0 -43.85,4.5508 -43.85,42.7735 V 142.73" /><path
             id="path220"
             style="fill:#2e2f7e;fill-opacity:1;fill-rule:nonzero;stroke:none"
             d="m 2476.72,161.969 h 21.25 v -19.918 c 0,-4.75 -0.43,-8.621 -0.43,-8.621 h 0.43 c 5.23,16.761 18.53,29.89 36.17,29.89 2.95,0 5.66,-0.468 5.66,-0.468 v -21.704 c 0,0 -2.92,0.68 -6.34,0.68 -14.01,0 -26.9,-9.957 -32.07,-26.906 -2.05,-6.582 -2.74,-13.602 -2.74,-20.5939 V 47.5 h -21.93 v 114.469" /><path
             id="path222"
             style="fill:#2e2f7e;fill-opacity:1;fill-rule:nonzero;stroke:none"
             d="m 2614.24,63.8008 c 21.74,0 39.37,17.168 39.37,41.1602 0,23.75 -17.63,40.699 -39.37,40.699 -21.49,0 -39.34,-16.949 -39.34,-40.699 0,-23.9922 17.85,-41.1602 39.34,-41.1602 z m 0,100.8592 c 34.16,0 61.76,-25.09 61.76,-59.699 0,-34.8516 -27.6,-60.1797 -61.76,-60.1797 -34.14,0 -61.74,25.3281 -61.74,60.1797 0,34.609 27.6,59.699 61.74,59.699" /><path
             id="path224"
             style="fill:#2e2f7e;fill-opacity:1;fill-rule:nonzero;stroke:none"
             d="m 2702.01,161.969 h 21.29 v -15.18 c 0,-4.527 -0.47,-8.359 -0.47,-8.359 h 0.47 c 4.49,9.961 18.09,26.23 42.97,26.23 26.89,0 39.36,-14.68 39.36,-43.859 V 47.5 h -21.94 v 68.301 c 0,16.07 -3.38,28.73 -21.72,28.73 -17.42,0 -31.42,-11.531 -36.19,-28.051 -1.37,-4.511 -1.83,-9.73 -1.83,-15.371 V 47.5 h -21.94 v 114.469" /></g></g></g></g></svg>
