<svg id="Vrstva_1" data-name="Vrstva 1" xmlns="http://www.w3.org/2000/svg" viewBox="0 0 266.46 170.08"><defs><style>.cls-1{fill:#1d1d1b;}.cls-2{fill:#f42837;}</style></defs><title>Kreslicí plátno 1</title><path class="cls-1" d="M1.42,21H22.77L48.61,75.22V21H62.34V89.9H42L15.34,32.7V89.9H1.42Z"/><path class="cls-1" d="M97.7,32.41H77.21V21h55.86V32.41H112.58V89.9H97.7Z"/><path class="cls-1" d="M147.66,21.17h14.77V50.81L185.5,21h17.26L177.5,51.86,205,89.9h-18.4L162.43,54.82V89.9H147.66Z"/><path class="cls-2" d="M3.14,112a1.37,1.37,0,0,0,0,.29,1,1,0,0,0,.17.39,1.27,1.27,0,0,0,.38.34,1.24,1.24,0,0,0,.64.15,1.46,1.46,0,0,0,.58-.11,1.27,1.27,0,0,0,.49-.35,1.72,1.72,0,0,0,.35-.61,2.86,2.86,0,0,0,.12-.89,3.23,3.23,0,0,0-.07-.71,1.62,1.62,0,0,0-.25-.6,1.2,1.2,0,0,0-.43-.41,1.19,1.19,0,0,0-.64-.15,1.4,1.4,0,0,0-.62.12,1.29,1.29,0,0,0-.4.31,1.54,1.54,0,0,0-.22.35c0,.12-.08.2-.1.26L1,110.31l.24-6.19H7.59v1.71H3.23l-.14,2.59.29-.24a1.7,1.7,0,0,1,.4-.24,2.27,2.27,0,0,1,.54-.19,3.36,3.36,0,0,1,1.95.15,3,3,0,0,1,1,.65,3.32,3.32,0,0,1,.67,1,3.88,3.88,0,0,1,.24,1.4,4.46,4.46,0,0,1-.2,1.35,3.31,3.31,0,0,1-1.81,2.1,3.94,3.94,0,0,1-1.72.35,5.16,5.16,0,0,1-1.61-.25,2.75,2.75,0,0,1-1.32-.89,2.21,2.21,0,0,1-.48-.92,5.2,5.2,0,0,1-.1-.75Z"/><path class="cls-2" d="M10.26,109.37c0-.23,0-.53,0-.89a8.29,8.29,0,0,1,.17-1.14,6.84,6.84,0,0,1,.36-1.2,3.58,3.58,0,0,1,.63-1.09,3.32,3.32,0,0,1,1-.79,3.19,3.19,0,0,1,1.44-.31,3.33,3.33,0,0,1,1,.14,3.2,3.2,0,0,1,.77.34,2.68,2.68,0,0,1,.58.44,3.08,3.08,0,0,1,.39.46A6.75,6.75,0,0,1,17,106a3.93,3.93,0,0,1,.3.8,8,8,0,0,1,.2,1,10.09,10.09,0,0,1,.07,1.3,14,14,0,0,1-.13,1.91,6.14,6.14,0,0,1-.53,1.81,3.67,3.67,0,0,1-1.13,1.37,3.11,3.11,0,0,1-1.91.54,3.05,3.05,0,0,1-1.7-.45,3.43,3.43,0,0,1-1.11-1.19,5.6,5.6,0,0,1-.62-1.71A11.07,11.07,0,0,1,10.26,109.37Zm5.07.12c0-.16,0-.35,0-.58s0-.46-.05-.7,0-.47-.08-.7a3.88,3.88,0,0,0-.13-.6L15,106.6a1.45,1.45,0,0,0-.19-.4,1.29,1.29,0,0,0-.34-.36.84.84,0,0,0-.52-.15.93.93,0,0,0-.42.1,1.19,1.19,0,0,0-.3.23,1.17,1.17,0,0,0-.19.3,2.86,2.86,0,0,0-.12.27,4.8,4.8,0,0,0-.2.87c0,.31-.08.61-.1.9s0,.53,0,.75,0,.35,0,.41c0,.45,0,.88.06,1.3a5.48,5.48,0,0,0,.22,1.1,2,2,0,0,0,.43.76.91.91,0,0,0,.69.29.9.9,0,0,0,.73-.34,2.42,2.42,0,0,0,.42-.85,6.5,6.5,0,0,0,.19-1.13C15.32,110.23,15.33,109.85,15.33,109.49Z"/><path class="cls-2" d="M21.9,104a2.54,2.54,0,0,1,1,.2,2.57,2.57,0,0,1,.8.54,2.7,2.7,0,0,1,.55.81,2.55,2.55,0,0,1,0,2,2.48,2.48,0,0,1-1.35,1.35,2.53,2.53,0,0,1-1,.19,2.48,2.48,0,0,1-1-.19,2.57,2.57,0,0,1-.8-.54,2.7,2.7,0,0,1-.55-.81,2.55,2.55,0,0,1,0-2,2.7,2.7,0,0,1,.55-.81,2.57,2.57,0,0,1,.8-.54A2.49,2.49,0,0,1,21.9,104Zm0,1.55a1,1,0,0,0-.7.28,1,1,0,0,0,0,1.41,1,1,0,0,0,.71.29,1,1,0,0,0,1-1,1,1,0,0,0-.3-.7A1,1,0,0,0,21.9,105.5Z"/><path class="cls-2" d="M31.4,106.7a1,1,0,0,0-.35-.8,1.24,1.24,0,0,0-.75-.24,1.18,1.18,0,0,0-.87.31,1.9,1.9,0,0,0-.46.76,4.19,4.19,0,0,0-.19,1c0,.34,0,.64-.05.91a3,3,0,0,1,.32-.27,2.34,2.34,0,0,1,.44-.27,2.12,2.12,0,0,1,.57-.21,2.63,2.63,0,0,1,.72-.09,3.17,3.17,0,0,1,1.08.2,2.61,2.61,0,0,1,1,.61,2.92,2.92,0,0,1,.69,1,3.73,3.73,0,0,1,.26,1.48,4.14,4.14,0,0,1-.25,1.52,3.26,3.26,0,0,1-.86,1.21,3.8,3.8,0,0,1-1.15.73,4.29,4.29,0,0,1-1.52.24,3.83,3.83,0,0,1-1.52-.26,2.87,2.87,0,0,1-1-.69,3,3,0,0,1-.61-1,5.39,5.39,0,0,1-.33-1.06,6.06,6.06,0,0,1-.12-1c0-.32,0-.58,0-.79,0-.52,0-1,.07-1.57A8.75,8.75,0,0,1,26.7,107a5.26,5.26,0,0,1,.51-1.29,3,3,0,0,1,.87-1,3.37,3.37,0,0,1,.71-.4,3.43,3.43,0,0,1,.69-.22,2.88,2.88,0,0,1,.6-.1h.42a4,4,0,0,1,1.14.16,3,3,0,0,1,1,.48,2.54,2.54,0,0,1,.7.85,2.8,2.8,0,0,1,.29,1.24Zm-1.27,6.4a1.37,1.37,0,0,0,1-.39,1.71,1.71,0,0,0,.34-.58,2.6,2.6,0,0,0,.13-.9,2,2,0,0,0-.38-1.33,1.18,1.18,0,0,0-1-.47,1.85,1.85,0,0,0-.39.06,1.31,1.31,0,0,0-.5.25,1.64,1.64,0,0,0-.43.57,2,2,0,0,0-.19,1,2.55,2.55,0,0,0,.12.83,1.73,1.73,0,0,0,.32.57,1.12,1.12,0,0,0,.45.33A1.39,1.39,0,0,0,30.13,113.1Z"/><path class="cls-2" d="M35.84,104.12h2l-.4,3.72H36.24Z"/><path class="cls-2" d="M41,105.68a14.28,14.28,0,0,0,2.77-1.58h1.94v10.48H43.41v-8.15a8.61,8.61,0,0,1-1,.62,10.81,10.81,0,0,1-1.48.71Z"/><path class="cls-2" d="M49,112.29v-2l4.2-6.17h2.24l0,6.47h1.43v1.72H55.44v2.29H53.22v-2.29Zm1.68-1.68h2.64v-3c0-.1,0-.21,0-.33s0-.24,0-.35v-.28Z"/><path class="cls-2" d="M59.13,112.58H61v2H59.13Z"/><path class="cls-2" d="M63.66,109.37c0-.23,0-.53,0-.89a8.29,8.29,0,0,1,.17-1.14,6.84,6.84,0,0,1,.36-1.2,3.58,3.58,0,0,1,.63-1.09,3.32,3.32,0,0,1,1-.79,3.19,3.19,0,0,1,1.44-.31,3.33,3.33,0,0,1,1,.14,3.2,3.2,0,0,1,.77.34,2.68,2.68,0,0,1,.58.44,3.08,3.08,0,0,1,.39.46,6.75,6.75,0,0,1,.37.66,3.93,3.93,0,0,1,.3.8,8,8,0,0,1,.2,1,10.09,10.09,0,0,1,.07,1.3,14,14,0,0,1-.13,1.91,6.14,6.14,0,0,1-.53,1.81,3.67,3.67,0,0,1-1.13,1.37,3.11,3.11,0,0,1-1.91.54,3.05,3.05,0,0,1-1.7-.45,3.43,3.43,0,0,1-1.11-1.19,5.6,5.6,0,0,1-.62-1.71A11.07,11.07,0,0,1,63.66,109.37Zm5.07.12c0-.16,0-.35,0-.58s0-.46,0-.7,0-.47-.08-.7a3.88,3.88,0,0,0-.13-.6l-.09-.31a1.45,1.45,0,0,0-.19-.4,1.29,1.29,0,0,0-.34-.36.84.84,0,0,0-.52-.15.93.93,0,0,0-.42.1,1.19,1.19,0,0,0-.3.23,1.17,1.17,0,0,0-.19.3,2.86,2.86,0,0,0-.12.27,4.8,4.8,0,0,0-.2.87c0,.31-.08.61-.1.9s0,.53,0,.75,0,.35,0,.41c0,.45,0,.88.06,1.3a5.48,5.48,0,0,0,.22,1.1,2,2,0,0,0,.43.76.91.91,0,0,0,.69.29.9.9,0,0,0,.73-.34,2.42,2.42,0,0,0,.42-.85,6.5,6.5,0,0,0,.19-1.13C68.72,110.23,68.73,109.85,68.73,109.49Z"/><path class="cls-2" d="M74.93,109.08l-.53-.18a2.61,2.61,0,0,1-.65-.39,2.23,2.23,0,0,1-.56-.65,2,2,0,0,1-.23-1,2.68,2.68,0,0,1,.21-1,2.63,2.63,0,0,1,.64-.94,3.52,3.52,0,0,1,1.13-.71,4.42,4.42,0,0,1,1.64-.28,4.73,4.73,0,0,1,1.44.21,3.25,3.25,0,0,1,1.12.6,2.64,2.64,0,0,1,.73.9,2.38,2.38,0,0,1,.26,1.13,2,2,0,0,1-.17.87,2.31,2.31,0,0,1-.46.69,2.42,2.42,0,0,1-.65.49,2.56,2.56,0,0,1-.77.24l.36.12a2.2,2.2,0,0,1,.43.18,1.73,1.73,0,0,1,.45.31,2.51,2.51,0,0,1,.44.47,2.74,2.74,0,0,1,.37.78,3,3,0,0,1,.11.78,2.62,2.62,0,0,1-.31,1.29,3,3,0,0,1-.84,1,3.92,3.92,0,0,1-1.23.6,5.36,5.36,0,0,1-1.46.2,4.26,4.26,0,0,1-1.46-.24,3.51,3.51,0,0,1-1.14-.65,3,3,0,0,1-.74-1,2.83,2.83,0,0,1-.26-1.19,2.4,2.4,0,0,1,.21-1,2.75,2.75,0,0,1,1.28-1.3Zm1.61,4a1.59,1.59,0,0,0,.51-.08,1.29,1.29,0,0,0,.48-.27,1.56,1.56,0,0,0,.36-.49,1.73,1.73,0,0,0,.14-.75,1.39,1.39,0,0,0-.45-1.11,1.52,1.52,0,0,0-1-.4,1.44,1.44,0,0,0-1.09.43,1.54,1.54,0,0,0-.42,1.12,1.63,1.63,0,0,0,.13.69,1.27,1.27,0,0,0,.36.48A1.51,1.51,0,0,0,76,113,1.7,1.7,0,0,0,76.54,113.13Zm0-4.9a1.5,1.5,0,0,0,1-.36,1.37,1.37,0,0,0,.3-1.55,1.11,1.11,0,0,0-.32-.41,1.14,1.14,0,0,0-.44-.25,1.53,1.53,0,0,0-.52-.08,1.4,1.4,0,0,0-1,.35,1.21,1.21,0,0,0-.4.95,1.32,1.32,0,0,0,.37,1A1.25,1.25,0,0,0,76.54,108.23Z"/><path class="cls-2" d="M84.18,111.73c0,.07,0,.19,0,.35a1.43,1.43,0,0,0,.17.46,1.23,1.23,0,0,0,.41.41,1.38,1.38,0,0,0,.73.17,1.26,1.26,0,0,0,1-.41,1.48,1.48,0,0,0,.36-1,1.43,1.43,0,0,0-.24-.89,1.61,1.61,0,0,0-.63-.46,2.85,2.85,0,0,0-.84-.17l-.87,0v-1.77l.85,0a3.2,3.2,0,0,0,.85-.17,1.49,1.49,0,0,0,.64-.46,1.33,1.33,0,0,0,.26-.87,1.1,1.1,0,0,0-.39-.93,1.39,1.39,0,0,0-.9-.31,1.5,1.5,0,0,0-.47.08,1.27,1.27,0,0,0-.42.25,1.11,1.11,0,0,0-.28.41,1.35,1.35,0,0,0-.11.57H82a6,6,0,0,1,.13-.82,2.17,2.17,0,0,1,.48-1,2.92,2.92,0,0,1,1.3-.89,5.12,5.12,0,0,1,1.61-.26,4.34,4.34,0,0,1,1.68.28,3.27,3.27,0,0,1,1.09.71,2.76,2.76,0,0,1,.59.93,3.06,3.06,0,0,1,.17.92,2.16,2.16,0,0,1-.25,1.1,2.22,2.22,0,0,1-.58.69,2.82,2.82,0,0,1-.67.4,4.08,4.08,0,0,1-.51.18,5.17,5.17,0,0,1,.57.21,2.83,2.83,0,0,1,.67.44,2.52,2.52,0,0,1,.45.48,2.67,2.67,0,0,1,.26.5,2.4,2.4,0,0,1,.12.48,3.29,3.29,0,0,1,0,.41,2.76,2.76,0,0,1-.29,1.24,2.88,2.88,0,0,1-.79,1,3.79,3.79,0,0,1-1.21.65,4.88,4.88,0,0,1-1.51.23,4.45,4.45,0,0,1-.61,0,5.5,5.5,0,0,1-.67-.11,4.2,4.2,0,0,1-.66-.21,2.42,2.42,0,0,1-.58-.35,2.13,2.13,0,0,1-.54-.63,2.8,2.8,0,0,1-.28-.68,3,3,0,0,1-.11-.61c0-.19,0-.34,0-.44Z"/><path class="cls-2" d="M93.9,104.12l-.4,3.72H92.31l-.4-3.72Zm2.87,0-.39,3.72H95.19l-.4-3.72Z"/><path class="cls-2" d="M99.83,103.74h3.36l4.06,8.52v-8.52h2.16v10.84h-3.19l-4.2-9v9H99.83Z"/><path class="cls-2" d="M115.07,112.58l-1.79,3.69h-1.54l1.11-3.69Z"/><path class="cls-2" d="M122.51,105.68a14.28,14.28,0,0,0,2.77-1.58h1.94v10.48H125v-8.15a8.61,8.61,0,0,1-1,.62,10.81,10.81,0,0,1-1.48.71Z"/><path class="cls-2" d="M130.56,112.29v-2l4.2-6.17H137l0,6.47h1.43v1.72H137v2.29h-2.22v-2.29Zm1.68-1.68h2.64v-3c0-.1,0-.21,0-.33s0-.24,0-.35v-.28Z"/><path class="cls-2" d="M142.53,104a2.54,2.54,0,0,1,1,.2,2.57,2.57,0,0,1,.8.54,2.7,2.7,0,0,1,.55.81,2.55,2.55,0,0,1,0,2,2.48,2.48,0,0,1-1.35,1.35,2.53,2.53,0,0,1-1,.19,2.48,2.48,0,0,1-1-.19,2.57,2.57,0,0,1-.8-.54,2.7,2.7,0,0,1-.55-.81,2.55,2.55,0,0,1,0-2,2.7,2.7,0,0,1,.55-.81,2.57,2.57,0,0,1,.8-.54A2.49,2.49,0,0,1,142.53,104Zm0,1.55a1,1,0,0,0-.7.28,1,1,0,0,0,0,1.41,1,1,0,0,0,.71.29,1,1,0,0,0,1-1,1,1,0,0,0-.3-.7A1,1,0,0,0,142.53,105.5Z"/><path class="cls-2" d="M146.84,112.46l2.71-2.45c.42-.38.78-.71,1.07-1a6.89,6.89,0,0,0,.72-.8,2.63,2.63,0,0,0,.39-.67,1.84,1.84,0,0,0,.12-.66,1.37,1.37,0,0,0-.33-1,1.33,1.33,0,0,0-.92-.31,1.3,1.3,0,0,0-.67.15,1.07,1.07,0,0,0-.4.39,1.44,1.44,0,0,0-.19.5,2.27,2.27,0,0,0-.06.5H147c0-.1,0-.23,0-.38a2.1,2.1,0,0,1,.06-.48,3.51,3.51,0,0,1,.19-.54,2.92,2.92,0,0,1,.35-.57,2.75,2.75,0,0,1,1.24-.86,5.14,5.14,0,0,1,1.75-.28,4,4,0,0,1,2.63.76,2.58,2.58,0,0,1,.91,2.09,3.68,3.68,0,0,1-.13,1,3.25,3.25,0,0,1-.44.93,7.2,7.2,0,0,1-.87,1c-.37.37-.84.81-1.41,1.31l-2.1,1.83,5-.11v1.75h-7.35Z"/><path class="cls-2" d="M158.31,111.73c0,.07,0,.19,0,.35a1.43,1.43,0,0,0,.17.46,1.23,1.23,0,0,0,.41.41,1.38,1.38,0,0,0,.73.17,1.26,1.26,0,0,0,1-.41,1.48,1.48,0,0,0,.36-1,1.43,1.43,0,0,0-.24-.89,1.61,1.61,0,0,0-.63-.46,2.85,2.85,0,0,0-.84-.17l-.87,0v-1.77l.85,0a3.2,3.2,0,0,0,.85-.17,1.49,1.49,0,0,0,.64-.46,1.33,1.33,0,0,0,.26-.87,1.1,1.1,0,0,0-.39-.93,1.39,1.39,0,0,0-.9-.31,1.5,1.5,0,0,0-.47.08,1.27,1.27,0,0,0-.42.25,1.11,1.11,0,0,0-.28.41,1.35,1.35,0,0,0-.11.57h-2.29a6,6,0,0,1,.13-.82,2.17,2.17,0,0,1,.48-1,2.92,2.92,0,0,1,1.3-.89,5.12,5.12,0,0,1,1.61-.26,4.34,4.34,0,0,1,1.68.28,3.27,3.27,0,0,1,1.09.71,2.61,2.61,0,0,1,.59.93,3.06,3.06,0,0,1,.17.92,2.16,2.16,0,0,1-.25,1.1,2.22,2.22,0,0,1-.58.69,2.82,2.82,0,0,1-.67.4,4.08,4.08,0,0,1-.51.18,5.17,5.17,0,0,1,.57.21,2.83,2.83,0,0,1,.67.44,2.52,2.52,0,0,1,.45.48,2.67,2.67,0,0,1,.26.5,2.4,2.4,0,0,1,.12.48,3.29,3.29,0,0,1,0,.41,2.76,2.76,0,0,1-.29,1.24,2.88,2.88,0,0,1-.79,1,3.79,3.79,0,0,1-1.21.65,4.88,4.88,0,0,1-1.51.23,4.45,4.45,0,0,1-.61,0,5.5,5.5,0,0,1-.67-.11,4.2,4.2,0,0,1-.66-.21,2.42,2.42,0,0,1-.58-.35,2.13,2.13,0,0,1-.54-.63,2.8,2.8,0,0,1-.28-.68,3,3,0,0,1-.11-.61c0-.19,0-.34,0-.44Z"/><path class="cls-2" d="M165.71,104.12h2l-.4,3.72h-1.19Z"/><path class="cls-2" d="M169.79,112.46,172.5,110c.42-.38.78-.71,1.08-1a7.73,7.73,0,0,0,.71-.8,2.63,2.63,0,0,0,.39-.67,1.84,1.84,0,0,0,.12-.66,1.37,1.37,0,0,0-.33-1,1.33,1.33,0,0,0-.92-.31,1.3,1.3,0,0,0-.67.15,1.15,1.15,0,0,0-.4.39,1.44,1.44,0,0,0-.19.5,2.27,2.27,0,0,0-.06.5h-2.29c0-.1,0-.23,0-.38a2.1,2.1,0,0,1,.06-.48,3.51,3.51,0,0,1,.19-.54,2.92,2.92,0,0,1,.35-.57,2.75,2.75,0,0,1,1.24-.86,5.14,5.14,0,0,1,1.75-.28,4,4,0,0,1,2.63.76,2.58,2.58,0,0,1,.91,2.09,3.68,3.68,0,0,1-.13,1,3.25,3.25,0,0,1-.44.93,7.2,7.2,0,0,1-.87,1c-.37.37-.84.81-1.41,1.31l-2.1,1.83,5-.11v1.75h-7.35Z"/><path class="cls-2" d="M184.22,106.7a1,1,0,0,0-.35-.8,1.24,1.24,0,0,0-.75-.24,1.18,1.18,0,0,0-.87.31,1.9,1.9,0,0,0-.46.76,4.19,4.19,0,0,0-.19,1c0,.34,0,.64,0,.91a3,3,0,0,1,.32-.27,2.34,2.34,0,0,1,.44-.27,2.12,2.12,0,0,1,.57-.21,2.63,2.63,0,0,1,.72-.09,3.17,3.17,0,0,1,1.08.2,2.61,2.61,0,0,1,1,.61,2.92,2.92,0,0,1,.69,1,3.73,3.73,0,0,1,.26,1.48,4.14,4.14,0,0,1-.25,1.52,3.26,3.26,0,0,1-.86,1.21,3.8,3.8,0,0,1-1.15.73,4.29,4.29,0,0,1-1.52.24,3.83,3.83,0,0,1-1.52-.26,2.87,2.87,0,0,1-1-.69,3,3,0,0,1-.61-1,5.39,5.39,0,0,1-.33-1.06,6.06,6.06,0,0,1-.12-1c0-.32,0-.58,0-.79,0-.52,0-1,.07-1.57a8.75,8.75,0,0,1,.24-1.49,5.26,5.26,0,0,1,.51-1.29,3,3,0,0,1,.87-1,3.37,3.37,0,0,1,.71-.4,3.43,3.43,0,0,1,.69-.22,2.88,2.88,0,0,1,.6-.1h.42a4,4,0,0,1,1.14.16,3,3,0,0,1,1,.48,2.54,2.54,0,0,1,.7.85,2.8,2.8,0,0,1,.29,1.24ZM183,113.1a1.21,1.21,0,0,0,.49-.09,1.25,1.25,0,0,0,.47-.3,1.89,1.89,0,0,0,.34-.58,2.6,2.6,0,0,0,.13-.9,2,2,0,0,0-.38-1.33,1.18,1.18,0,0,0-1-.47,1.85,1.85,0,0,0-.39.06,1.31,1.31,0,0,0-.5.25,1.64,1.64,0,0,0-.43.57,2.15,2.15,0,0,0-.19,1,2.55,2.55,0,0,0,.12.83,1.73,1.73,0,0,0,.32.57,1.19,1.19,0,0,0,.45.33A1.42,1.42,0,0,0,183,113.1Z"/><path class="cls-2" d="M189,112.58h1.91v2H189Z"/><path class="cls-2" d="M195.57,111.73c0,.07,0,.19,0,.35a1.25,1.25,0,0,0,.58.87,1.38,1.38,0,0,0,.73.17,1.26,1.26,0,0,0,1-.41,1.48,1.48,0,0,0,.36-1,1.43,1.43,0,0,0-.24-.89,1.61,1.61,0,0,0-.63-.46,2.85,2.85,0,0,0-.84-.17l-.87,0v-1.77l.85,0a3.2,3.2,0,0,0,.85-.17,1.49,1.49,0,0,0,.64-.46,1.33,1.33,0,0,0,.26-.87,1.1,1.1,0,0,0-.39-.93,1.39,1.39,0,0,0-.9-.31,1.5,1.5,0,0,0-.47.08,1.27,1.27,0,0,0-.42.25,1.11,1.11,0,0,0-.28.41,1.35,1.35,0,0,0-.11.57h-2.29a6,6,0,0,1,.13-.82,2.17,2.17,0,0,1,.48-1,2.92,2.92,0,0,1,1.3-.89A5.12,5.12,0,0,1,197,104a4.34,4.34,0,0,1,1.68.28,3.27,3.27,0,0,1,1.09.71,2.61,2.61,0,0,1,.59.93,3.06,3.06,0,0,1,.17.92,2.16,2.16,0,0,1-.25,1.1,2.22,2.22,0,0,1-.58.69,2.82,2.82,0,0,1-.67.4,4.08,4.08,0,0,1-.51.18,5.17,5.17,0,0,1,.57.21,2.83,2.83,0,0,1,.67.44,2.52,2.52,0,0,1,.45.48,2.67,2.67,0,0,1,.26.5,2.4,2.4,0,0,1,.12.48,3.29,3.29,0,0,1,0,.41,2.76,2.76,0,0,1-.29,1.24,2.88,2.88,0,0,1-.79,1,3.79,3.79,0,0,1-1.21.65,4.88,4.88,0,0,1-1.51.23,4.45,4.45,0,0,1-.61,0,5.5,5.5,0,0,1-.67-.11,3.89,3.89,0,0,1-.66-.21,2.42,2.42,0,0,1-.58-.35,2.13,2.13,0,0,1-.54-.63,2.8,2.8,0,0,1-.28-.68,3,3,0,0,1-.11-.61c0-.19,0-.34,0-.44Z"/><path class="cls-2" d="M207.77,106.7a1,1,0,0,0-.35-.8,1.24,1.24,0,0,0-.75-.24,1.18,1.18,0,0,0-.87.31,1.9,1.9,0,0,0-.46.76,4.19,4.19,0,0,0-.19,1c0,.34,0,.64-.05.91a3,3,0,0,1,.32-.27,2.34,2.34,0,0,1,.44-.27,2.12,2.12,0,0,1,.57-.21,2.63,2.63,0,0,1,.72-.09,3.17,3.17,0,0,1,1.08.2,2.61,2.61,0,0,1,1,.61,2.92,2.92,0,0,1,.69,1,3.73,3.73,0,0,1,.26,1.48,4.14,4.14,0,0,1-.25,1.52,3.26,3.26,0,0,1-.86,1.21,3.8,3.8,0,0,1-1.15.73,4.29,4.29,0,0,1-1.52.24,3.83,3.83,0,0,1-1.52-.26,2.87,2.87,0,0,1-1-.69,3,3,0,0,1-.61-1,5.39,5.39,0,0,1-.33-1.06,6.06,6.06,0,0,1-.12-1c0-.32,0-.58,0-.79,0-.52,0-1,.07-1.57a8.75,8.75,0,0,1,.24-1.49,5.26,5.26,0,0,1,.51-1.29,3,3,0,0,1,.87-1,3.37,3.37,0,0,1,.71-.4,3.43,3.43,0,0,1,.69-.22,2.88,2.88,0,0,1,.6-.1h.42a4,4,0,0,1,1.14.16,3,3,0,0,1,1,.48,2.54,2.54,0,0,1,.7.85,2.8,2.8,0,0,1,.29,1.24Zm-1.27,6.4a1.37,1.37,0,0,0,1-.39,1.71,1.71,0,0,0,.34-.58,2.6,2.6,0,0,0,.13-.9,2,2,0,0,0-.39-1.33,1.15,1.15,0,0,0-.95-.47,1.85,1.85,0,0,0-.39.06,1.31,1.31,0,0,0-.5.25,1.64,1.64,0,0,0-.43.57,2.15,2.15,0,0,0-.19,1,2.55,2.55,0,0,0,.12.83,1.73,1.73,0,0,0,.32.57,1.19,1.19,0,0,0,.45.33A1.39,1.39,0,0,0,206.5,113.1Z"/><path class="cls-2" d="M214.13,112a1.37,1.37,0,0,0,0,.29,1,1,0,0,0,.17.39,1.27,1.27,0,0,0,.38.34,1.24,1.24,0,0,0,.64.15,1.46,1.46,0,0,0,.58-.11,1.27,1.27,0,0,0,.49-.35,1.72,1.72,0,0,0,.35-.61,2.86,2.86,0,0,0,.12-.89,3.23,3.23,0,0,0-.07-.71,1.62,1.62,0,0,0-.25-.6,1.2,1.2,0,0,0-.43-.41,1.19,1.19,0,0,0-.64-.15,1.4,1.4,0,0,0-.62.12,1.29,1.29,0,0,0-.4.31,1.54,1.54,0,0,0-.22.35c0,.12-.08.2-.1.26l-2.17-.06.24-6.19h6.34v1.71h-4.36l-.14,2.59.29-.24a1.7,1.7,0,0,1,.4-.24,2.27,2.27,0,0,1,.54-.19,3.36,3.36,0,0,1,1.95.15,3,3,0,0,1,1,.65,3.32,3.32,0,0,1,.67,1,3.88,3.88,0,0,1,.24,1.4,4.46,4.46,0,0,1-.2,1.35,3.31,3.31,0,0,1-1.81,2.1,3.94,3.94,0,0,1-1.72.35,5.16,5.16,0,0,1-1.61-.25,2.75,2.75,0,0,1-1.32-.89,2.21,2.21,0,0,1-.48-.92,5.2,5.2,0,0,1-.1-.75Z"/><path class="cls-2" d="M223.77,104.12l-.4,3.72h-1.19l-.4-3.72Zm2.87,0-.39,3.72h-1.19l-.4-3.72Z"/><path class="cls-2" d="M229.68,103.74h7.26v1.77H232v2.57h4.62v1.77H232v2.92h5.1v1.81h-7.43Z"/><path class="cls-1" d="M1.46,121.24H4.82l4.06,8.52v-8.52H11v10.84H7.85l-4.2-9v9H1.46Z"/><path class="cls-1" d="M17.87,132.08a5.72,5.72,0,0,1-.07-.61c0-.18,0-.32,0-.43a3,3,0,0,1-.65.7,3,3,0,0,1-.64.36,2,2,0,0,1-.56.13,3.34,3.34,0,0,1-.41,0,3.12,3.12,0,0,1-1.25-.19,2.74,2.74,0,0,1-.64-.4,2.16,2.16,0,0,1-.5-.79A2.44,2.44,0,0,1,13,130a3.74,3.74,0,0,1,0-.53,2,2,0,0,1,.23-.63,2.49,2.49,0,0,1,.48-.64,2.86,2.86,0,0,1,.84-.56,3.54,3.54,0,0,1,.76-.23,4.81,4.81,0,0,1,.82-.13c.27,0,.53,0,.78,0h.64c0-.25,0-.44,0-.58a1.58,1.58,0,0,0-.09-.42.78.78,0,0,0-.21-.33,1.26,1.26,0,0,0-.28-.19,1.52,1.52,0,0,0-.28-.09l-.22,0a1.1,1.1,0,0,0-.47.1,1,1,0,0,0-.37.32.85.85,0,0,0-.14.37,1.69,1.69,0,0,0,0,.3H13.31c0-.09,0-.22,0-.36a2.26,2.26,0,0,1,.11-.47,2.33,2.33,0,0,1,.26-.49,1.67,1.67,0,0,1,.46-.46,2.89,2.89,0,0,1,1.14-.49,5.42,5.42,0,0,1,1.16-.13l.58,0a5.06,5.06,0,0,1,.72.14,4.63,4.63,0,0,1,.75.29,2.29,2.29,0,0,1,.65.52,1.71,1.71,0,0,1,.3.5,3.08,3.08,0,0,1,.22,1v.35l0,3c0,.32,0,.63,0,1a6.67,6.67,0,0,0,.14,1Zm-.29-3.58a5.23,5.23,0,0,0-1,0,2.48,2.48,0,0,0-.77.22,1.24,1.24,0,0,0-.51.41,1,1,0,0,0-.18.58,1.07,1.07,0,0,0,.07.39,1.07,1.07,0,0,0,.54.6,1.13,1.13,0,0,0,.47.09,1.19,1.19,0,0,0,.54-.12,1.43,1.43,0,0,0,.76-1.12A8.27,8.27,0,0,0,17.58,128.5Zm-.87-5.2h-1.2l1.25-2.18h2Z"/><path class="cls-1" d="M22,126.36V126q0-.26,0-.54t0-.54c0-.18,0-.32,0-.43h2.08l0,1.45a4.27,4.27,0,0,1,.27-.51,1.87,1.87,0,0,1,.45-.49,2.17,2.17,0,0,1,.73-.36,3.46,3.46,0,0,1,1.13-.11v2a3.55,3.55,0,0,0-1.32.07,1.5,1.5,0,0,0-.72.44,1.24,1.24,0,0,0-.29.65,4.59,4.59,0,0,0-.06.73v3.74H22Z"/><path class="cls-1" d="M27.38,128.35a5.35,5.35,0,0,1,.19-1.4,3.65,3.65,0,0,1,.65-1.29,3.32,3.32,0,0,1,1.2-1,4.15,4.15,0,0,1,1.87-.37,4.53,4.53,0,0,1,1.78.32,3.46,3.46,0,0,1,1.22.87,3.53,3.53,0,0,1,.71,1.27,5,5,0,0,1,.22,1.51,5,5,0,0,1-.23,1.54,3.49,3.49,0,0,1-.72,1.29A3.35,3.35,0,0,1,33,132a4.38,4.38,0,0,1-1.78.33,4.7,4.7,0,0,1-1.52-.24,3.51,3.51,0,0,1-1.23-.75,3.57,3.57,0,0,1-.82-1.26A4.66,4.66,0,0,1,27.38,128.35Zm2.28,0a3.18,3.18,0,0,0,.42,1.85,1.42,1.42,0,0,0,1.24.58,1.81,1.81,0,0,0,.67-.12,1.11,1.11,0,0,0,.52-.42,2.38,2.38,0,0,0,.33-.8A5.6,5.6,0,0,0,33,128.2a7.45,7.45,0,0,0-.05-.79,2.52,2.52,0,0,0-.23-.78,1.43,1.43,0,0,0-.5-.59,1.49,1.49,0,0,0-.89-.24,1.35,1.35,0,0,0-.94.31,1.9,1.9,0,0,0-.48.72,3.15,3.15,0,0,0-.18.85Q29.66,128.12,29.66,128.37Z"/><path class="cls-1" d="M42.21,121.24h2.22v9.6c0,.24,0,.46,0,.69s0,.4,0,.55H42.26L42.2,131a4.94,4.94,0,0,1-.27.42,1.87,1.87,0,0,1-.5.43,2.08,2.08,0,0,1-.82.33,4.68,4.68,0,0,1-.65.07,3,3,0,0,1-2.39-1,4.13,4.13,0,0,1-.85-2.77,5.58,5.58,0,0,1,.25-1.7,3.78,3.78,0,0,1,.69-1.27,3,3,0,0,1,1.05-.81,3.23,3.23,0,0,1,1.37-.28,2.88,2.88,0,0,1,.88.12,3.27,3.27,0,0,1,.62.29,2.11,2.11,0,0,1,.41.34l.22.28ZM39,128.4a4.46,4.46,0,0,0,.09.91,2.46,2.46,0,0,0,.26.75,1.51,1.51,0,0,0,.47.53,1.29,1.29,0,0,0,.72.19,1.5,1.5,0,0,0,.86-.25,1.67,1.67,0,0,0,.56-.6,2.78,2.78,0,0,0,.31-1c0-.34,0-.61,0-.79a2.82,2.82,0,0,0-.45-1.72,1.43,1.43,0,0,0-1.21-.58,1.32,1.32,0,0,0-.89.29,1.92,1.92,0,0,0-.5.7,3,3,0,0,0-.21.84A5.46,5.46,0,0,0,39,128.4Z"/><path class="cls-1" d="M46.68,125.85v-.5c0-.14,0-.29,0-.44s0-.31,0-.44h2.13l.06,1.14a2.78,2.78,0,0,1,.24-.35,2.36,2.36,0,0,1,.45-.44,2.69,2.69,0,0,1,.72-.37,3,3,0,0,1,1-.16,2.76,2.76,0,0,1,1,.15,2.31,2.31,0,0,1,.68.37,1.89,1.89,0,0,1,.44.46,3.17,3.17,0,0,1,.23.44c0,.12.07.24.1.36a2,2,0,0,1,.07.42,5,5,0,0,1,0,.6c0,.24,0,.54,0,.89v4.1H51.54v-4.72c0-.16,0-.3,0-.44a1,1,0,0,0-.11-.38,1.1,1.1,0,0,0-1.08-.64,1.45,1.45,0,0,0-.66.15,1.29,1.29,0,0,0-.49.43,1.76,1.76,0,0,0-.19.43,2.86,2.86,0,0,0-.08.72v4.45H46.68Z"/><path class="cls-1" d="M56.12,124.48h2.22v7.6H56.12Zm1.3-1.18h-1.2l1.25-2.18h2Z"/><path class="cls-1" d="M69.53,132a5.81,5.81,0,0,1-1,.19c-.3,0-.55.05-.73.05a3,3,0,0,1-1.3-.23,1.69,1.69,0,0,1-.66-.56,1.57,1.57,0,0,1-.25-.67c0-.23,0-.42,0-.58V126H64.1v-1.48h1.45v-1.48l2.22-.8v2.28h1.8V126h-1.8v3.42a3.38,3.38,0,0,0,0,.47.8.8,0,0,0,.11.36.55.55,0,0,0,.29.22,1.75,1.75,0,0,0,.58.08h.4a2.88,2.88,0,0,0,.35,0Z"/><path class="cls-1" d="M72.69,128.85c0,.12,0,.3,0,.52a1.84,1.84,0,0,0,.17.68,1.58,1.58,0,0,0,.46.58,1.41,1.41,0,0,0,.89.24,1.58,1.58,0,0,0,.79-.21,1.3,1.3,0,0,0,.53-.83h2c0,.08,0,.19,0,.32a2,2,0,0,1-.1.39,2.31,2.31,0,0,1-.22.45,2.63,2.63,0,0,1-.37.49,2.75,2.75,0,0,1-1.11.65,5,5,0,0,1-1.54.23l-.58,0a3.77,3.77,0,0,1-.7-.14,4.47,4.47,0,0,1-.74-.28,2.4,2.4,0,0,1-.66-.5,3.23,3.23,0,0,1-.76-1.29,5.75,5.75,0,0,1-.22-1.66,6.39,6.39,0,0,1,.07-1,4.17,4.17,0,0,1,.24-1,3.57,3.57,0,0,1,.48-.9,3.37,3.37,0,0,1,.79-.76,3.76,3.76,0,0,1,1-.46,4,4,0,0,1,1.17-.17,4.14,4.14,0,0,1,.84.09,3.66,3.66,0,0,1,.84.3,3.25,3.25,0,0,1,1.38,1.45,3.28,3.28,0,0,1,.29.77,5.58,5.58,0,0,1,.14.76c0,.25,0,.47,0,.68s0,.4,0,.56Zm2.82-1.4a3.6,3.6,0,0,0,0-.41,1.51,1.51,0,0,0-.15-.56,1.27,1.27,0,0,0-.4-.5,1.14,1.14,0,0,0-.75-.22,1.35,1.35,0,0,0-.62.14,1.31,1.31,0,0,0-.43.38,1.52,1.52,0,0,0-.27.54,2.59,2.59,0,0,0-.1.63Z"/><path class="cls-1" d="M83.55,127.18c0-.07,0-.18,0-.33a1.68,1.68,0,0,0-.13-.46,1.25,1.25,0,0,0-.3-.42.68.68,0,0,0-.5-.18.81.81,0,0,0-.62.26,1.88,1.88,0,0,0-.35.64,4,4,0,0,0-.16.79q0,.4,0,.72c0,.11,0,.27,0,.47a5.2,5.2,0,0,0,.07.64,4,4,0,0,0,.16.68,1.56,1.56,0,0,0,.31.54.8.8,0,0,0,.32.21,1,1,0,0,0,.28,0l.24,0a.76.76,0,0,0,.31-.18,1.29,1.29,0,0,0,.29-.44,2.22,2.22,0,0,0,.17-.8h2.19c0,.15,0,.32-.05.5a3.33,3.33,0,0,1-.12.56,3.27,3.27,0,0,1-.29.6,2.28,2.28,0,0,1-.52.57,2.8,2.8,0,0,1-.92.53,3.78,3.78,0,0,1-1.24.18,4.53,4.53,0,0,1-1.41-.21,2.62,2.62,0,0,1-1.17-.8,3.54,3.54,0,0,1-.72-1.32,5.41,5.41,0,0,1-.24-1.66,4.37,4.37,0,0,1,.42-2.07,3.28,3.28,0,0,1,1-1.19,3,3,0,0,1,1.17-.54,4.55,4.55,0,0,1,1-.13,3.77,3.77,0,0,1,1.08.16,3.06,3.06,0,0,1,1,.49,2.66,2.66,0,0,1,.74.88,2.74,2.74,0,0,1,.28,1.3Z"/><path class="cls-1" d="M87.39,121.24H89.6v4.28a3.67,3.67,0,0,1,.25-.32,1.92,1.92,0,0,1,.42-.37,2.06,2.06,0,0,1,.63-.31,2.86,2.86,0,0,1,.89-.12,3,3,0,0,1,.76.09,4.6,4.6,0,0,1,.63.24,2.86,2.86,0,0,1,.48.32,2.7,2.7,0,0,1,.33.36,2.61,2.61,0,0,1,.36.8,5,5,0,0,1,.14,1.26v4.61H92.27v-4.55c0-.11,0-.25,0-.44a1.86,1.86,0,0,0-.14-.55,1,1,0,0,0-.36-.46,1.09,1.09,0,0,0-.71-.2,2.14,2.14,0,0,0-.49.07,1.33,1.33,0,0,0-.46.26,1.39,1.39,0,0,0-.34.47,1.82,1.82,0,0,0-.14.75l0,4.65H87.39Z"/><path class="cls-1" d="M96.83,125.85v-.16c0-.09,0-.21,0-.34s0-.29,0-.44,0-.31,0-.44h2.13l.06,1.14a2.78,2.78,0,0,1,.24-.35,2.36,2.36,0,0,1,.45-.44,2.69,2.69,0,0,1,.72-.37,3,3,0,0,1,1.05-.16,2.76,2.76,0,0,1,1,.15,2.51,2.51,0,0,1,.69.37,1.84,1.84,0,0,1,.43.46,2.36,2.36,0,0,1,.23.44c0,.12.08.24.11.36a3,3,0,0,1,.07.42q0,.24,0,.6v5h-2.26v-4.72c0-.16,0-.3,0-.44a1,1,0,0,0-.1-.38,1.24,1.24,0,0,0-.38-.45,1.16,1.16,0,0,0-.7-.19,1.5,1.5,0,0,0-.67.15,1.36,1.36,0,0,0-.49.43,1.46,1.46,0,0,0-.18.43,2.43,2.43,0,0,0-.09.72v4.45H96.83Z"/><path class="cls-1" d="M106.19,121.24h2.37v1.94h-2.37Zm.07,3.24h2.22v7.6h-2.22Z"/><path class="cls-1" d="M114.75,127.18c0-.07,0-.18,0-.33a1.68,1.68,0,0,0-.13-.46,1.25,1.25,0,0,0-.3-.42.68.68,0,0,0-.5-.18.82.82,0,0,0-.62.26,1.88,1.88,0,0,0-.35.64,3.35,3.35,0,0,0-.15.79,6.49,6.49,0,0,0,0,.72c0,.11,0,.27,0,.47a5.2,5.2,0,0,0,.07.64,4,4,0,0,0,.16.68,1.56,1.56,0,0,0,.31.54.74.74,0,0,0,.32.21,1,1,0,0,0,.28,0l.24,0a.83.83,0,0,0,.31-.18,1.16,1.16,0,0,0,.29-.44,2.22,2.22,0,0,0,.17-.8H117c0,.15,0,.32,0,.5a2.63,2.63,0,0,1-.13.56,3.18,3.18,0,0,1-.28.6,2.49,2.49,0,0,1-.52.57,2.8,2.8,0,0,1-.92.53,3.78,3.78,0,0,1-1.24.18,4.53,4.53,0,0,1-1.41-.21,2.62,2.62,0,0,1-1.17-.8,3.54,3.54,0,0,1-.72-1.32,5.41,5.41,0,0,1-.24-1.66,4.5,4.5,0,0,1,.41-2.07,3.41,3.41,0,0,1,1-1.19,3,3,0,0,1,1.17-.54,4.55,4.55,0,0,1,1-.13,3.77,3.77,0,0,1,1.08.16,3.06,3.06,0,0,1,1,.49,2.66,2.66,0,0,1,.74.88,2.74,2.74,0,0,1,.28,1.3Z"/><path class="cls-1" d="M118.56,121.24h2.22v6.38l2.3-3.17h2.5l-2.59,3.3,2.76,4.33h-2.63L120.78,128v4.13h-2.22Z"/><path class="cls-1" d="M131.49,132.08a3.78,3.78,0,0,1-.06-.61c0-.18,0-.32,0-.43a3.18,3.18,0,0,1-.65.7,3.26,3.26,0,0,1-.64.36,2.14,2.14,0,0,1-.56.13,3.57,3.57,0,0,1-.42,0,3.06,3.06,0,0,1-1.24-.19,2.83,2.83,0,0,1-.65-.4,2.3,2.3,0,0,1-.5-.79,2.68,2.68,0,0,1-.16-.88,2.77,2.77,0,0,1,.06-.53,2,2,0,0,1,.22-.63,2.8,2.8,0,0,1,.49-.64,2.86,2.86,0,0,1,.84-.56,3.38,3.38,0,0,1,.76-.23,4.55,4.55,0,0,1,.81-.13c.27,0,.53,0,.78,0h.65c0-.25,0-.44,0-.58a1.58,1.58,0,0,0-.09-.42.78.78,0,0,0-.21-.33,1.48,1.48,0,0,0-.27-.19,1.61,1.61,0,0,0-.29-.09l-.22,0a1.06,1.06,0,0,0-.46.1,1,1,0,0,0-.38.32,1,1,0,0,0-.14.37c0,.11,0,.21,0,.3h-2.18a2.73,2.73,0,0,1,0-.36,1.76,1.76,0,0,1,.11-.47,2.27,2.27,0,0,1,.25-.49,1.72,1.72,0,0,1,.47-.46,2.89,2.89,0,0,1,1.14-.49,5.33,5.33,0,0,1,1.15-.13l.59,0a5.06,5.06,0,0,1,.72.14,4.2,4.2,0,0,1,.74.29,2.16,2.16,0,0,1,.65.52,1.71,1.71,0,0,1,.3.5,3.14,3.14,0,0,1,.16.53,2.86,2.86,0,0,1,.06.48c0,.14,0,.26,0,.35v3c0,.32,0,.63,0,1a8.4,8.4,0,0,0,.14,1Zm-.28-3.58a5.21,5.21,0,0,0-1,0,2.47,2.47,0,0,0-.78.22,1.24,1.24,0,0,0-.51.41,1,1,0,0,0-.18.58,1.34,1.34,0,0,0,.07.39,1.17,1.17,0,0,0,.2.34,1.1,1.1,0,0,0,.34.26,1.16,1.16,0,0,0,.47.09,1.19,1.19,0,0,0,.54-.12,1.64,1.64,0,0,0,.41-.31,1.57,1.57,0,0,0,.36-.81A8.27,8.27,0,0,0,131.21,128.5Zm-.87-5.2h-1.2l1.24-2.18h2Z"/><path class="cls-1" d="M140.09,121.24h2.22v6.38l2.29-3.17h2.51l-2.6,3.3,2.76,4.33h-2.62L142.31,128v4.13h-2.22Z"/><path class="cls-1" d="M148.73,125.85v-.16c0-.09,0-.21,0-.34s0-.29,0-.44,0-.31,0-.44h2.13l.06,1.14a2.78,2.78,0,0,1,.24-.35,2.36,2.36,0,0,1,.45-.44,2.69,2.69,0,0,1,.72-.37,3,3,0,0,1,1.05-.16,2.76,2.76,0,0,1,1,.15,2.51,2.51,0,0,1,.69.37,2,2,0,0,1,.43.46,2.36,2.36,0,0,1,.23.44c0,.12.08.24.11.36a3,3,0,0,1,.07.42q0,.24,0,.6v5h-2.26v-4.72c0-.16,0-.3,0-.44a1,1,0,0,0-.1-.38,1.24,1.24,0,0,0-.38-.45,1.16,1.16,0,0,0-.7-.19,1.53,1.53,0,0,0-.67.15,1.36,1.36,0,0,0-.49.43,1.76,1.76,0,0,0-.19.43,2.86,2.86,0,0,0-.08.72v4.45h-2.23Z"/><path class="cls-1" d="M158.09,121.24h2.37v1.94h-2.37Zm.07,3.24h2.22v7.6h-2.22Z"/><path class="cls-1" d="M162.69,121.24h2.21v4.28a3.67,3.67,0,0,1,.25-.32,1.92,1.92,0,0,1,.42-.37,2.06,2.06,0,0,1,.63-.31,2.86,2.86,0,0,1,.89-.12,3,3,0,0,1,.76.09,4.6,4.6,0,0,1,.63.24,2.86,2.86,0,0,1,.48.32,2.7,2.7,0,0,1,.33.36,2.61,2.61,0,0,1,.36.8,5,5,0,0,1,.14,1.26v4.61h-2.22v-4.55c0-.11,0-.25,0-.44a1.86,1.86,0,0,0-.14-.55,1,1,0,0,0-.36-.46,1.09,1.09,0,0,0-.71-.2,2.14,2.14,0,0,0-.49.07,1.33,1.33,0,0,0-.46.26,1.39,1.39,0,0,0-.34.47,1.82,1.82,0,0,0-.14.75l0,4.65h-2.24Z"/><path class="cls-1" d="M171.75,128.35a5.38,5.38,0,0,1,.2-1.4,3.63,3.63,0,0,1,.64-1.29,3.32,3.32,0,0,1,1.2-1,4.2,4.2,0,0,1,1.88-.37,4.56,4.56,0,0,1,1.78.32,3.56,3.56,0,0,1,1.22.87,3.51,3.51,0,0,1,.7,1.27,5,5,0,0,1,.23,1.51,5.27,5.27,0,0,1-.23,1.54,3.8,3.8,0,0,1-.72,1.29,3.43,3.43,0,0,1-1.24.89,4.43,4.43,0,0,1-1.79.33,4.64,4.64,0,0,1-1.51-.24,3.51,3.51,0,0,1-1.23-.75,3.6,3.6,0,0,1-.83-1.26A4.66,4.66,0,0,1,171.75,128.35Zm2.28,0a3.18,3.18,0,0,0,.42,1.85,1.44,1.44,0,0,0,1.25.58,1.85,1.85,0,0,0,.67-.12,1.14,1.14,0,0,0,.51-.42,2.38,2.38,0,0,0,.33-.8,5.6,5.6,0,0,0,.12-1.26,5.49,5.49,0,0,0-.05-.79,2.51,2.51,0,0,0-.22-.78,1.53,1.53,0,0,0-.51-.59,1.46,1.46,0,0,0-.88-.24,1.37,1.37,0,0,0-.95.31,1.9,1.9,0,0,0-.48.72,3.15,3.15,0,0,0-.18.85Q174,128.12,174,128.37Z"/><path class="cls-1" d="M182.76,124.5l1.71,5.15,1.74-5.15h2.15l-2.73,7.58h-2.46l-2.78-7.58Z"/><path class="cls-1" d="M189.93,125.85v-.5c0-.14,0-.29,0-.44s0-.31,0-.44H192l.06,1.14a2.78,2.78,0,0,1,.24-.35,2.36,2.36,0,0,1,.45-.44,2.69,2.69,0,0,1,.72-.37,3,3,0,0,1,1-.16,2.76,2.76,0,0,1,1,.15,2.31,2.31,0,0,1,.68.37,1.89,1.89,0,0,1,.44.46,3.17,3.17,0,0,1,.23.44c0,.12.07.24.1.36a2,2,0,0,1,.07.42c0,.16,0,.36,0,.6s0,.54,0,.89v4.1h-2.27v-4.72c0-.16,0-.3,0-.44a1,1,0,0,0-.11-.38,1.24,1.24,0,0,0-.38-.45,1.14,1.14,0,0,0-.7-.19,1.45,1.45,0,0,0-.66.15,1.29,1.29,0,0,0-.49.43,1.45,1.45,0,0,0-.19.43,2.86,2.86,0,0,0-.08.72v4.45h-2.24Z"/><path class="cls-1" d="M203.91,132.08a3.78,3.78,0,0,1-.06-.61c0-.18,0-.32,0-.43a3.18,3.18,0,0,1-.65.7,3.26,3.26,0,0,1-.64.36,2.14,2.14,0,0,1-.56.13,3.57,3.57,0,0,1-.42,0,3.06,3.06,0,0,1-1.24-.19,2.83,2.83,0,0,1-.65-.4,2.3,2.3,0,0,1-.5-.79A2.68,2.68,0,0,1,199,130a2.77,2.77,0,0,1,.06-.53,2,2,0,0,1,.22-.63,2.8,2.8,0,0,1,.49-.64,2.86,2.86,0,0,1,.84-.56,3.46,3.46,0,0,1,.75-.23,4.81,4.81,0,0,1,.82-.13c.27,0,.53,0,.78,0h.65c0-.25,0-.44,0-.58a1.58,1.58,0,0,0-.09-.42.78.78,0,0,0-.21-.33,1.48,1.48,0,0,0-.27-.19,1.61,1.61,0,0,0-.29-.09l-.22,0a1.06,1.06,0,0,0-.46.1,1,1,0,0,0-.38.32,1,1,0,0,0-.14.37c0,.11,0,.21,0,.3h-2.18a2.73,2.73,0,0,1,0-.36,1.76,1.76,0,0,1,.11-.47,2.27,2.27,0,0,1,.25-.49,1.72,1.72,0,0,1,.47-.46,2.89,2.89,0,0,1,1.14-.49,5.33,5.33,0,0,1,1.15-.13l.59,0a5.06,5.06,0,0,1,.72.14,4.53,4.53,0,0,1,.74.29,2.29,2.29,0,0,1,.65.52,1.71,1.71,0,0,1,.3.5,4.45,4.45,0,0,1,.16.53,2.86,2.86,0,0,1,.06.48c0,.14,0,.26,0,.35v3c0,.32,0,.63,0,1a6.67,6.67,0,0,0,.14,1Zm-.28-3.58a5.21,5.21,0,0,0-1,0,2.47,2.47,0,0,0-.78.22,1.24,1.24,0,0,0-.51.41,1,1,0,0,0-.18.58,1.34,1.34,0,0,0,.07.39,1,1,0,0,0,.2.34,1.1,1.1,0,0,0,.34.26,1.16,1.16,0,0,0,.47.09,1.19,1.19,0,0,0,.54-.12,1.64,1.64,0,0,0,.41-.31,1.57,1.57,0,0,0,.36-.81A8.27,8.27,0,0,0,203.63,128.5Z"/><path class="cls-1" d="M1.46,138.74H4.82l4.06,8.52v-8.52H11v10.83H7.85l-4.2-9v9H1.46Z"/><path class="cls-1" d="M17.86,149.57a3.67,3.67,0,0,1-.06-.61c0-.17,0-.32,0-.43a3.18,3.18,0,0,1-.65.7,2.48,2.48,0,0,1-.64.36,2.18,2.18,0,0,1-.56.14l-.41,0a3.09,3.09,0,0,1-1.25-.2,2.44,2.44,0,0,1-.64-.4,2.2,2.2,0,0,1-.51-.78A2.76,2.76,0,0,1,13,147a2.16,2.16,0,0,1,.22-.63,3,3,0,0,1,.49-.64,2.84,2.84,0,0,1,.84-.55,4,4,0,0,1,.76-.24,7.76,7.76,0,0,1,.82-.13c.26,0,.52,0,.77,0h.65c0-.25,0-.45,0-.59a1.58,1.58,0,0,0-.09-.42.69.69,0,0,0-.21-.32,1.11,1.11,0,0,0-.27-.19.81.81,0,0,0-.29-.09.9.9,0,0,0-.21,0,1.1,1.1,0,0,0-.47.1.92.92,0,0,0-.37.31,1.2,1.2,0,0,0-.15.37c0,.12,0,.22,0,.31H13.31a2.62,2.62,0,0,1,0-.37,1.7,1.7,0,0,1,.11-.46,2.39,2.39,0,0,1,.26-.5,2,2,0,0,1,.46-.46,2.89,2.89,0,0,1,1.14-.49,6,6,0,0,1,1.16-.12l.58,0a4,4,0,0,1,.72.14,3.07,3.07,0,0,1,.74.29,2.13,2.13,0,0,1,.65.51,1.76,1.76,0,0,1,.3.51,2.89,2.89,0,0,1,.16.53,2.09,2.09,0,0,1,.06.47c0,.15,0,.26,0,.35v3.05c0,.32,0,.64,0,1a7.93,7.93,0,0,0,.14,1ZM17.58,146a4.53,4.53,0,0,0-1,0,2.6,2.6,0,0,0-.77.22,1.32,1.32,0,0,0-.51.41,1,1,0,0,0-.18.59,1.21,1.21,0,0,0,.06.38,1.08,1.08,0,0,0,.21.34.93.93,0,0,0,.33.26,1,1,0,0,0,.47.1,1.08,1.08,0,0,0,.54-.13,1.43,1.43,0,0,0,.41-.31,1.57,1.57,0,0,0,.36-.81A8.1,8.1,0,0,0,17.58,146Z"/><path class="cls-1" d="M26.43,149.46a6.09,6.09,0,0,1-1,.2c-.31,0-.55,0-.73,0a2.88,2.88,0,0,1-1.3-.23,1.76,1.76,0,0,1-.66-.55,1.62,1.62,0,0,1-.25-.67c0-.23,0-.43,0-.59v-4.15H21V142h1.45v-1.48l2.22-.8V142h1.8v1.48h-1.8v3.42a3.23,3.23,0,0,0,0,.46.8.8,0,0,0,.11.36.53.53,0,0,0,.29.23,1.75,1.75,0,0,0,.58.07h.39l.36,0Z"/><path class="cls-1" d="M28,138.74h2.37v1.94H28Zm.07,3.24h2.22v7.59H28.09Z"/><path class="cls-1" d="M32.21,145.85a5.26,5.26,0,0,1,.2-1.4,3.68,3.68,0,0,1,.64-1.3,3.4,3.4,0,0,1,1.2-1,4.19,4.19,0,0,1,1.88-.38,4.38,4.38,0,0,1,1.78.33,3.31,3.31,0,0,1,1.22.87,3.47,3.47,0,0,1,.7,1.26,5.08,5.08,0,0,1,.23,1.52,4.9,4.9,0,0,1-.24,1.53,3.53,3.53,0,0,1-.72,1.3,3.42,3.42,0,0,1-1.23.89,4.43,4.43,0,0,1-1.79.33,4.64,4.64,0,0,1-1.51-.25,3.24,3.24,0,0,1-1.23-.75,3.46,3.46,0,0,1-.83-1.25A4.66,4.66,0,0,1,32.21,145.85Zm2.28,0a3.18,3.18,0,0,0,.42,1.85,1.44,1.44,0,0,0,1.25.58,1.85,1.85,0,0,0,.67-.12,1.14,1.14,0,0,0,.51-.42,2.29,2.29,0,0,0,.33-.8,6.45,6.45,0,0,0,.07-2,2.49,2.49,0,0,0-.22-.79,1.61,1.61,0,0,0-.51-.59,1.53,1.53,0,0,0-.88-.23,1.33,1.33,0,0,0-1,.31,1.76,1.76,0,0,0-.48.72,3,3,0,0,0-.18.84Q34.49,145.61,34.49,145.86Z"/><path class="cls-1" d="M42.05,143.34v-.15c0-.1,0-.21,0-.35s0-.28,0-.44,0-.3,0-.44h2.13l.06,1.14c0-.08.13-.2.24-.35a2.08,2.08,0,0,1,.45-.43,2.7,2.7,0,0,1,.72-.38,3.17,3.17,0,0,1,1-.15,2.55,2.55,0,0,1,1,.15,2.79,2.79,0,0,1,.69.36,1.87,1.87,0,0,1,.43.47,2.09,2.09,0,0,1,.23.44c0,.12.08.24.11.35a3.66,3.66,0,0,1,.07.42c0,.17,0,.37,0,.61v5H46.91v-4.71c0-.16,0-.31,0-.44a1.07,1.07,0,0,0-.1-.39,1.24,1.24,0,0,0-.38-.45,1.16,1.16,0,0,0-.7-.19,1.41,1.41,0,0,0-.67.16,1.25,1.25,0,0,0-.48.43,1.34,1.34,0,0,0-.19.43,2.47,2.47,0,0,0-.08.72v4.44H42.05Z"/><path class="cls-1" d="M56,149.57A3.8,3.8,0,0,1,56,149c0-.17,0-.32,0-.43a3.18,3.18,0,0,1-.65.7,2.48,2.48,0,0,1-.64.36,2.18,2.18,0,0,1-.56.14l-.41,0a3.09,3.09,0,0,1-1.25-.2,2.44,2.44,0,0,1-.64-.4,2.2,2.2,0,0,1-.51-.78,2.73,2.73,0,0,1-.15-.89,3.87,3.87,0,0,1,0-.53,2.5,2.5,0,0,1,.22-.63,3,3,0,0,1,.49-.64,2.84,2.84,0,0,1,.84-.55,4,4,0,0,1,.76-.24,7.76,7.76,0,0,1,.82-.13c.27,0,.53,0,.78,0h.64c0-.25,0-.45,0-.59a1.58,1.58,0,0,0-.09-.42.69.69,0,0,0-.21-.32,1.16,1.16,0,0,0-.28-.19.81.81,0,0,0-.29-.09.9.9,0,0,0-.21,0,1.1,1.1,0,0,0-.47.1.92.92,0,0,0-.37.31,1.2,1.2,0,0,0-.15.37c0,.12,0,.22,0,.31H51.47c0-.1,0-.22,0-.37a1.7,1.7,0,0,1,.11-.46,2.39,2.39,0,0,1,.26-.5,2,2,0,0,1,.46-.46,2.89,2.89,0,0,1,1.14-.49,6.1,6.1,0,0,1,1.16-.12l.58,0a4,4,0,0,1,.72.14,3.07,3.07,0,0,1,.74.29,2.17,2.17,0,0,1,.66.51,1.76,1.76,0,0,1,.3.51,2.83,2.83,0,0,1,.15.53,2.09,2.09,0,0,1,.06.47c0,.15,0,.26,0,.35l0,3.05q0,.48,0,1a8,8,0,0,0,.15,1ZM55.74,146a4.53,4.53,0,0,0-1,0,2.69,2.69,0,0,0-.77.22,1.32,1.32,0,0,0-.51.41,1,1,0,0,0-.18.59,1.21,1.21,0,0,0,.06.38,1.08,1.08,0,0,0,.21.34.93.93,0,0,0,.33.26,1.06,1.06,0,0,0,.48.1,1.08,1.08,0,0,0,.54-.13,1.38,1.38,0,0,0,.4-.31,1.57,1.57,0,0,0,.36-.81A8.1,8.1,0,0,0,55.74,146Z"/><path class="cls-1" d="M60.12,138.74h2.22v10.83H60.12Z"/><path class="cls-1" d="M69.12,138.74h2.37v9h4.64v1.85h-7Z"/><path class="cls-1" d="M77.62,138.74H80v1.94H77.62Zm.07,3.24h2.22v7.59H77.69Z"/><path class="cls-1" d="M82.09,138.74h2.22v4.17a2.51,2.51,0,0,1,.6-.58,2.5,2.5,0,0,1,1.14-.42l.4,0a3.11,3.11,0,0,1,1.29.27,3.07,3.07,0,0,1,1.05.78,3.71,3.71,0,0,1,.71,1.25,5.53,5.53,0,0,1,.25,1.7,5,5,0,0,1-.28,1.8,3.4,3.4,0,0,1-.74,1.17,2.85,2.85,0,0,1-1,.66,3.45,3.45,0,0,1-1.13.2l-.43,0a2.4,2.4,0,0,1-.6-.15,2.69,2.69,0,0,1-.66-.36,2,2,0,0,1-.59-.69q0,.18,0,.45c0,.18,0,.39,0,.62H82.09Zm5.4,7.23q0-.22,0-.66a3.24,3.24,0,0,0-.19-.86,2,2,0,0,0-.49-.75,1.25,1.25,0,0,0-.93-.32,1.39,1.39,0,0,0-.94.29,1.91,1.91,0,0,0-.49.69,2.21,2.21,0,0,0-.18.79c0,.26,0,.44,0,.56a3.15,3.15,0,0,0,.48,1.93,1.53,1.53,0,0,0,1.26.62,1.22,1.22,0,0,0,.88-.3,1.86,1.86,0,0,0,.46-.69,2.85,2.85,0,0,0,.16-.78C87.48,146.24,87.49,146.07,87.49,146Z"/><path class="cls-1" d="M91.62,143.85v-.38c0-.16,0-.34,0-.53l0-.55c0-.17,0-.31,0-.43H93.6l.05,1.46a4.27,4.27,0,0,1,.27-.51,1.91,1.91,0,0,1,.45-.5,2.61,2.61,0,0,1,.73-.36,3.49,3.49,0,0,1,1.13-.1v2a3.55,3.55,0,0,0-1.32.07,1.49,1.49,0,0,0-.72.43,1.27,1.27,0,0,0-.29.66,4.37,4.37,0,0,0-.06.72v3.74H91.62Z"/><path class="cls-1" d="M102,149.57a5.44,5.44,0,0,1-.07-.61v-.43a3,3,0,0,1-.66.7,2.29,2.29,0,0,1-.63.36,2.15,2.15,0,0,1-.57.14l-.41,0a3,3,0,0,1-1.24-.2,2.52,2.52,0,0,1-.65-.4,2.17,2.17,0,0,1-.5-.78,2.5,2.5,0,0,1-.16-.89,3.87,3.87,0,0,1,0-.53,2.2,2.2,0,0,1,.23-.63,2.73,2.73,0,0,1,.49-.64,2.84,2.84,0,0,1,.84-.55,4.12,4.12,0,0,1,.75-.24,8.19,8.19,0,0,1,.82-.13c.27,0,.53,0,.78,0h.65c0-.25,0-.45,0-.59a1.58,1.58,0,0,0-.09-.42.69.69,0,0,0-.21-.32,1,1,0,0,0-.28-.19.76.76,0,0,0-.28-.09,1,1,0,0,0-.22,0,1.06,1.06,0,0,0-.46.1.85.85,0,0,0-.52.68,1.78,1.78,0,0,0,0,.31H97.44c0-.1,0-.22,0-.37a2.24,2.24,0,0,1,.12-.46,2.34,2.34,0,0,1,.25-.5,2.06,2.06,0,0,1,.47-.46,2.89,2.89,0,0,1,1.14-.49,6,6,0,0,1,1.15-.12l.59,0a4,4,0,0,1,.72.14,3.24,3.24,0,0,1,.74.29,2.26,2.26,0,0,1,.65.51,1.76,1.76,0,0,1,.3.51,4,4,0,0,1,.16.53,4.66,4.66,0,0,1,.06.47c0,.15,0,.26,0,.35v3.05c0,.32,0,.64,0,1a6.35,6.35,0,0,0,.14,1Zm-.28-3.57a4.63,4.63,0,0,0-1,0,2.79,2.79,0,0,0-.77.22,1.32,1.32,0,0,0-.51.41,1,1,0,0,0-.18.59,1,1,0,0,0,.07.38.9.9,0,0,0,.2.34.88.88,0,0,0,.34.26,1,1,0,0,0,.47.1,1.08,1.08,0,0,0,.54-.13,1.43,1.43,0,0,0,.41-.31,1.57,1.57,0,0,0,.36-.81A8.1,8.1,0,0,0,101.72,146Z"/><path class="cls-1" d="M106.09,143.85v-.38c0-.16,0-.34,0-.53l0-.55c0-.17,0-.31,0-.43h2.08l.05,1.46a4.27,4.27,0,0,1,.27-.51,1.91,1.91,0,0,1,.45-.5,2.61,2.61,0,0,1,.73-.36,3.49,3.49,0,0,1,1.13-.1v2a3.55,3.55,0,0,0-1.32.07,1.49,1.49,0,0,0-.72.43,1.27,1.27,0,0,0-.29.66,4.37,4.37,0,0,0-.06.72v3.74h-2.22Z"/><path class="cls-1" d="M113.86,142l1.67,5.24,1.69-5.24h2.2l-2.86,7.43-.91,3h-2.24l1-2.85-2.91-7.6Z"/><path class="cls-1" d="M125,145.85a5.24,5.24,0,0,1,.19-1.4,3.7,3.7,0,0,1,.65-1.3,3.4,3.4,0,0,1,1.2-1,4.15,4.15,0,0,1,1.87-.38,4.38,4.38,0,0,1,1.78.33,3.31,3.31,0,0,1,1.22.87,3.49,3.49,0,0,1,.71,1.26,5.08,5.08,0,0,1,.22,1.52,5.2,5.2,0,0,1-.23,1.53,3.84,3.84,0,0,1-.72,1.3,3.55,3.55,0,0,1-1.24.89,4.38,4.38,0,0,1-1.78.33,4.7,4.7,0,0,1-1.52-.25,3.24,3.24,0,0,1-1.23-.75,3.44,3.44,0,0,1-.82-1.25A4.66,4.66,0,0,1,125,145.85Zm2.28,0a3.18,3.18,0,0,0,.42,1.85,1.42,1.42,0,0,0,1.24.58,1.85,1.85,0,0,0,.67-.12,1.16,1.16,0,0,0,.52-.42,2.29,2.29,0,0,0,.33-.8,6,6,0,0,0,.06-2,2.49,2.49,0,0,0-.22-.79,1.58,1.58,0,0,0-.5-.59,1.56,1.56,0,0,0-.89-.23,1.3,1.3,0,0,0-.94.31,1.76,1.76,0,0,0-.48.72,3,3,0,0,0-.18.84Q127.27,145.61,127.27,145.86Z"/><path class="cls-1" d="M134.94,143.57h-1.12V142h1.12v-1a4.1,4.1,0,0,1,.11-.94,1.82,1.82,0,0,1,.39-.77,2,2,0,0,1,.8-.52,4.11,4.11,0,0,1,1.33-.18H138c.2,0,.46,0,.78.07v1.53l-.25,0h-.22a1.86,1.86,0,0,0-.66.09.8.8,0,0,0-.33.25.59.59,0,0,0-.13.33c0,.12,0,.22,0,.32v.9h1.41v1.57h-1.41v6h-2.22Z"/><path class="cls-1" d="M147,140.51h-3.23v-1.77h8.77v1.77h-3.22v9.06H147Z"/><path class="cls-1" d="M153.57,146.34c0,.12,0,.3,0,.53a2,2,0,0,0,.17.67,1.69,1.69,0,0,0,.46.58,1.37,1.37,0,0,0,.89.25,1.56,1.56,0,0,0,.79-.21,1.3,1.3,0,0,0,.53-.84h2c0,.09,0,.2,0,.32a2.13,2.13,0,0,1-.1.4,2.31,2.31,0,0,1-.22.45,2.5,2.5,0,0,1-.36.48,2.69,2.69,0,0,1-1.12.66,5,5,0,0,1-1.54.22l-.57,0a3.67,3.67,0,0,1-.71-.13,4.11,4.11,0,0,1-.73-.29,2.36,2.36,0,0,1-.66-.49,3,3,0,0,1-.76-1.29,5.81,5.81,0,0,1-.23-1.67,8.35,8.35,0,0,1,.07-1,5.19,5.19,0,0,1,.24-1,3.58,3.58,0,0,1,.49-.9,3,3,0,0,1,.79-.76,3.47,3.47,0,0,1,1-.46,3.87,3.87,0,0,1,1.16-.17,4.14,4.14,0,0,1,.84.09,3.25,3.25,0,0,1,.84.3,3.36,3.36,0,0,1,.77.56,3.2,3.2,0,0,1,.61.88,3.53,3.53,0,0,1,.29.78,5.31,5.31,0,0,1,.14.76c0,.24,0,.47,0,.68s0,.39,0,.55Zm2.82-1.39c0-.09,0-.23,0-.41a1.63,1.63,0,0,0-.16-.56,1.34,1.34,0,0,0-.39-.51,1.2,1.2,0,0,0-.75-.22,1.21,1.21,0,0,0-.62.15,1.23,1.23,0,0,0-.44.37,1.93,1.93,0,0,0-.26.54,2.77,2.77,0,0,0-.11.64Z"/><path class="cls-1" d="M164.42,144.68c0-.07,0-.18,0-.33a1.85,1.85,0,0,0-.13-.47,1.5,1.5,0,0,0-.29-.42.69.69,0,0,0-.5-.17.76.76,0,0,0-.62.26,1.63,1.63,0,0,0-.36.63,4.09,4.09,0,0,0-.15.79,6.79,6.79,0,0,0,0,.73c0,.11,0,.26,0,.46s0,.42.07.65a3.87,3.87,0,0,0,.17.67,1.41,1.41,0,0,0,.3.54.8.8,0,0,0,.32.21,1.11,1.11,0,0,0,.28.05.85.85,0,0,0,.24,0,.74.74,0,0,0,.32-.18,1.53,1.53,0,0,0,.29-.43,2.36,2.36,0,0,0,.16-.81h2.19c0,.15,0,.32,0,.5a3,3,0,0,1-.12.56,2.75,2.75,0,0,1-.29.6,2.15,2.15,0,0,1-.52.58,2.78,2.78,0,0,1-.92.52,3.75,3.75,0,0,1-1.23.18,4.53,4.53,0,0,1-1.41-.21,2.68,2.68,0,0,1-1.17-.79,3.56,3.56,0,0,1-.73-1.32,5.48,5.48,0,0,1-.23-1.67,4.41,4.41,0,0,1,.41-2.07,3.37,3.37,0,0,1,1-1.19,3.25,3.25,0,0,1,1.17-.54,5.25,5.25,0,0,1,1-.12,4.12,4.12,0,0,1,1.07.15,3.08,3.08,0,0,1,1,.5,2.56,2.56,0,0,1,.74.88,2.72,2.72,0,0,1,.28,1.3Z"/><path class="cls-1" d="M168.26,138.74h2.21V143a3.6,3.6,0,0,1,.25-.33,2.22,2.22,0,0,1,.42-.37,2.38,2.38,0,0,1,.62-.3,2.67,2.67,0,0,1,.9-.13,2.59,2.59,0,0,1,.76.1,2.67,2.67,0,0,1,.62.24,1.91,1.91,0,0,1,.48.32,2.25,2.25,0,0,1,.34.36,2.43,2.43,0,0,1,.35.79,4.58,4.58,0,0,1,.15,1.26v4.61h-2.22V145q0-.17,0-.45A1.77,1.77,0,0,0,173,144a1.08,1.08,0,0,0-.36-.47,1.15,1.15,0,0,0-.71-.19,1.66,1.66,0,0,0-.49.07,1.22,1.22,0,0,0-.46.25,1.43,1.43,0,0,0-.34.48,1.74,1.74,0,0,0-.14.74l0,4.65h-2.24Z"/><path class="cls-1" d="M177.7,143.34v-.15c0-.1,0-.21,0-.35s0-.28,0-.44,0-.3,0-.44h2.13l.06,1.14c0-.08.13-.2.24-.35a2.34,2.34,0,0,1,.45-.43,2.7,2.7,0,0,1,.72-.38,3.24,3.24,0,0,1,1.05-.15,2.64,2.64,0,0,1,1.64.51,1.93,1.93,0,0,1,.44.47,2.69,2.69,0,0,1,.23.44c0,.12.07.24.1.35a2.29,2.29,0,0,1,.07.42,5.28,5.28,0,0,1,0,.61c0,.24,0,.53,0,.88v4.1h-2.27v-4.71c0-.16,0-.31,0-.44a1.09,1.09,0,0,0-.11-.39,1.1,1.1,0,0,0-1.08-.64,1.34,1.34,0,0,0-.66.16,1.21,1.21,0,0,0-.49.43,1.6,1.6,0,0,0-.19.43,2.86,2.86,0,0,0-.08.72v4.44H177.7Z"/><path class="cls-1" d="M186.78,145.85a5.26,5.26,0,0,1,.2-1.4,3.68,3.68,0,0,1,.64-1.3,3.4,3.4,0,0,1,1.2-1,4.19,4.19,0,0,1,1.88-.38,4.3,4.3,0,0,1,1.77.33,3.27,3.27,0,0,1,1.23.87,3.62,3.62,0,0,1,.7,1.26,5.08,5.08,0,0,1,.22,1.52,4.89,4.89,0,0,1-.23,1.53,3.53,3.53,0,0,1-.72,1.3,3.42,3.42,0,0,1-1.23.89,4.43,4.43,0,0,1-1.79.33,4.64,4.64,0,0,1-1.51-.25,3.24,3.24,0,0,1-1.23-.75,3.46,3.46,0,0,1-.83-1.25A4.66,4.66,0,0,1,186.78,145.85Zm2.28,0a3.18,3.18,0,0,0,.42,1.85,1.44,1.44,0,0,0,1.25.58,1.76,1.76,0,0,0,.66-.12,1.11,1.11,0,0,0,.52-.42,2.29,2.29,0,0,0,.33-.8,5.45,5.45,0,0,0,.12-1.25,7.29,7.29,0,0,0-.05-.79,2.5,2.5,0,0,0-.23-.79,1.5,1.5,0,0,0-.5-.59,1.53,1.53,0,0,0-.88-.23,1.33,1.33,0,0,0-.95.31,1.76,1.76,0,0,0-.48.72,3,3,0,0,0-.18.84Q189.06,145.61,189.06,145.86Z"/><path class="cls-1" d="M196.59,138.74h2.22v10.83h-2.22Z"/><path class="cls-1" d="M200.71,145.85a5.26,5.26,0,0,1,.2-1.4,3.68,3.68,0,0,1,.64-1.3,3.4,3.4,0,0,1,1.2-1,4.19,4.19,0,0,1,1.88-.38,4.3,4.3,0,0,1,1.77.33,3.15,3.15,0,0,1,1.22.87,3.35,3.35,0,0,1,.71,1.26,5.08,5.08,0,0,1,.22,1.52,4.89,4.89,0,0,1-.23,1.53,3.53,3.53,0,0,1-.72,1.3,3.42,3.42,0,0,1-1.23.89,4.43,4.43,0,0,1-1.79.33,4.64,4.64,0,0,1-1.51-.25,3.24,3.24,0,0,1-1.23-.75,3.46,3.46,0,0,1-.83-1.25A4.66,4.66,0,0,1,200.71,145.85Zm2.28,0a3.18,3.18,0,0,0,.42,1.85,1.44,1.44,0,0,0,1.25.58,1.76,1.76,0,0,0,.66-.12,1.11,1.11,0,0,0,.52-.42,2.29,2.29,0,0,0,.33-.8,5.45,5.45,0,0,0,.12-1.25,7.29,7.29,0,0,0,0-.79,2.5,2.5,0,0,0-.23-.79,1.5,1.5,0,0,0-.5-.59,1.53,1.53,0,0,0-.88-.23,1.33,1.33,0,0,0-.95.31,1.76,1.76,0,0,0-.48.72,3,3,0,0,0-.18.84Q203,145.61,203,145.86Z"/><path class="cls-1" d="M217.7,142c0,.3,0,.59-.07.87s0,.62,0,1v5.59a3.07,3.07,0,0,1-.39,1.66,2.56,2.56,0,0,1-1,.92,3.49,3.49,0,0,1-1.23.4,10.8,10.8,0,0,1-1.2.08,9.1,9.1,0,0,1-1-.06,3.35,3.35,0,0,1-1.07-.3,2.25,2.25,0,0,1-1.3-2.07h2.13l0,.26a.94.94,0,0,0,.17.35,1.27,1.27,0,0,0,.39.31,1.55,1.55,0,0,0,.71.13,1.58,1.58,0,0,0,.87-.24,1.14,1.14,0,0,0,.51-.75c0-.09,0-.18.05-.27l0-.33c0-.13,0-.29,0-.48v-.72a3.23,3.23,0,0,1-.54.56,2.14,2.14,0,0,1-.54.31,2.18,2.18,0,0,1-.51.14l-.45,0a3,3,0,0,1-1.41-.32,3,3,0,0,1-1-.85,3.79,3.79,0,0,1-.59-1.19,4.85,4.85,0,0,1-.19-1.36,5,5,0,0,1,.2-1.4,3.78,3.78,0,0,1,.61-1.2,3,3,0,0,1,1-.83,3,3,0,0,1,1.42-.32,2.77,2.77,0,0,1,.87.12,2.56,2.56,0,0,1,.62.29,2.31,2.31,0,0,1,.39.36l.23.31.08-1Zm-5.29,3.67c0,.09,0,.26,0,.5a2.48,2.48,0,0,0,.17.74,1.74,1.74,0,0,0,.44.67,1.14,1.14,0,0,0,.85.29,1.25,1.25,0,0,0,.9-.29,1.82,1.82,0,0,0,.47-.67,2.21,2.21,0,0,0,.17-.72c0-.24,0-.39,0-.48a6.49,6.49,0,0,0,0-.72,2.59,2.59,0,0,0-.2-.75,1.61,1.61,0,0,0-.46-.6,1.32,1.32,0,0,0-.81-.24,1.38,1.38,0,0,0-1.08.53A2.67,2.67,0,0,0,212.41,145.7Z"/><path class="cls-1" d="M221.32,142l1.66,5.24,1.69-5.24h2.21L224,149.43l-.91,3h-2.23l1-2.85-2.91-7.6Z"/></svg>